<svg width="77" height="102" viewBox="0 0 77 102" fill="none" xmlns="http://www.w3.org/2000/svg">
<g clip-path="url(#clip0_68_209)">
<path d="M38.5 71.9422C41.2183 71.9422 43.4219 69.7408 43.4219 67.0252C43.4219 64.3096 41.2183 62.1082 38.5 62.1082C35.7817 62.1082 33.5781 64.3096 33.5781 67.0252C33.5781 69.7408 35.7817 71.9422 38.5 71.9422Z" fill="#354990"/>
<path d="M0.973501 1.68748C0.939581 1.67731 0.902268 1.66715 0.868347 1.65698V18.5429C25.9188 24.3884 50.9692 30.2305 76.0197 36.0761C76.0536 36.0828 76.0909 36.093 76.1248 36.0998V19.2139C51.0744 13.3717 26.0239 7.52961 0.973501 1.68748ZM75.962 35.8931C50.9862 30.0679 26.0138 24.2427 1.03795 18.4175V1.87386C26.0104 7.69904 50.9862 13.5242 75.9586 19.3494V35.8931H75.962Z" fill="#354990"/>
<path d="M75.962 19.3496V35.8932C50.9862 30.068 26.0138 24.2429 1.03796 18.4177V1.87402C26.0104 7.69921 50.9862 13.5244 75.9586 19.3496H75.962Z" fill="#354990"/>
<path d="M0 0V87.1338C0 91.695 3.71432 95.4022 8.28683 95.4022H30.627C33.4458 95.4022 36.0713 97.0322 37.306 99.5601C37.7029 100.373 38.1031 101.187 38.5 101.997C38.8969 101.183 39.2971 100.37 39.694 99.5601C40.9321 97.0355 43.5542 95.4022 46.373 95.4022H68.7132C73.2789 95.4022 77 91.6916 77 87.1338V0H0ZM76.8304 87.1338C76.8304 91.6001 73.1873 95.2395 68.7132 95.2395H46.373C43.4897 95.2395 40.8134 96.9068 39.5448 99.489C39.1954 100.201 38.8494 100.909 38.5 101.62C38.1506 100.909 37.8046 100.201 37.4552 99.489C36.1832 96.9068 33.5103 95.2395 30.627 95.2395H8.28683C3.81269 95.2395 0.169604 91.6035 0.169604 87.1338V0.169435H76.8372C76.8372 29.1598 76.8372 58.1468 76.8338 87.1371L76.8304 87.1338Z" fill="#354990"/>
<path d="M0.169617 0.169434V87.1372C0.169617 91.6035 3.8127 95.2429 8.28684 95.2429H30.627C33.5103 95.2429 36.1866 96.9102 37.4553 99.4924C37.8046 100.204 38.1506 100.912 38.5 101.624C38.8494 100.912 39.1954 100.204 39.5448 99.4924C40.8168 96.9102 43.4897 95.2429 46.373 95.2429H68.7132C73.1873 95.2429 76.8304 91.6069 76.8304 87.1372V0.169434H0.169617ZM0.871775 19.3766C0.905696 19.3834 0.943009 19.3936 0.97693 19.4003C25.6949 25.1882 50.413 30.9761 75.131 36.7674H0.871775V19.3766ZM76.1283 86.3374C76.1283 88.9196 74.8766 91.3696 72.7803 92.8912C71.3895 93.901 69.7545 94.4296 68.0314 94.4296H46.1966C43.4423 94.4296 40.8846 96.0257 39.6771 98.4927C39.287 99.289 38.8969 100.085 38.5068 100.882C38.1167 100.085 37.7232 99.289 37.3331 98.4927C36.1256 96.0223 33.5612 94.4296 30.8136 94.4296H8.97543C4.50807 94.4296 0.875167 90.8003 0.875167 86.3374V37.9027H76.1316C76.1316 54.0464 76.1316 70.1902 76.1283 86.334V86.3374ZM76.1283 36.1066C76.0943 36.0999 76.057 36.0897 76.0231 36.0829C50.9727 30.2374 25.9222 24.3953 0.871775 18.5532V1.66724C0.905696 1.67741 0.943009 1.68757 0.97693 1.69774C26.0274 7.53987 51.0778 13.382 76.1283 19.2275V36.1066ZM76.1283 18.3736H76.0468C76.0468 18.3736 3.772 1.45714 3.0427 1.28432C2.80865 1.2301 2.57459 1.17588 2.34054 1.12166H76.1249C76.1249 6.87229 76.1249 12.6263 76.1283 18.3769V18.3736Z" fill="#354990"/>
<path d="M2.34052 1.12158C2.57457 1.1758 2.80862 1.23002 3.04267 1.28424C3.76858 1.45368 76.0197 18.3769 76.0434 18.3769H76.1248V1.12158H2.34052ZM75.962 18.1871C51.9021 12.5551 27.8421 6.92304 3.78215 1.28763H75.9586V18.1871H75.962Z" fill="#354990"/>
<path d="M0.871765 37.9026V86.334C0.871765 90.7969 4.50467 94.4262 8.97203 94.4262H30.8068C33.5612 94.4262 36.1188 96.0223 37.3264 98.4892C37.7164 99.2856 38.1099 100.082 38.5 100.878C38.8901 100.082 39.2802 99.2856 39.6703 98.4892C40.8778 96.0189 43.4422 94.4262 46.1898 94.4262H68.0246C69.7444 94.4262 71.3827 93.8975 72.7735 92.8877C74.8732 91.3696 76.1215 88.9161 76.1215 86.334V37.9026H0.871765ZM75.962 86.3373C75.962 88.8721 74.7341 91.2713 72.6785 92.7555C71.3217 93.7417 69.7138 94.2601 68.028 94.2601H46.1932C43.3778 94.2601 40.7591 95.8901 39.5176 98.4181C39.1784 99.1128 38.8358 99.8074 38.4966 100.499C38.1574 99.8041 37.8148 99.1094 37.4756 98.4181C36.2375 95.8935 33.6154 94.2601 30.8 94.2601H8.97203C4.60304 94.2601 1.04137 90.702 1.04137 86.3373V38.072H75.962V86.3373Z" fill="#354990"/>
<path d="M0.976919 19.4004C0.942999 19.3937 0.905686 19.3835 0.871765 19.3767V36.7608H75.1276C50.4096 30.9729 25.6915 25.1816 0.976919 19.4004ZM1.03798 19.5868C25.254 25.2561 49.4666 30.9254 73.6826 36.5981H1.03798V19.5868Z" fill="#354990"/>
<path d="M38.5 71.9422C41.2183 71.9422 43.4219 69.7408 43.4219 67.0252C43.4219 64.3096 41.2183 62.1082 38.5 62.1082C35.7817 62.1082 33.5781 64.3096 33.5781 67.0252C33.5781 69.7408 35.7817 71.9422 38.5 71.9422Z" fill="#354990"/>
<path d="M64.0491 66.876C64.0491 64.0363 60.9453 61.4778 55.9963 59.675C58.2181 54.9004 58.6014 50.8949 56.5933 48.8922C54.7107 47.0115 51.0676 47.1335 46.3323 49.2243C46.1559 49.3022 45.9761 49.3869 45.7929 49.475C43.9883 44.5377 41.4239 41.4404 38.5848 41.4404C35.7456 41.4404 33.1846 44.5377 31.3766 49.475C31.1969 49.3869 31.0171 49.3056 30.8373 49.2243C26.102 47.1335 22.4589 47.0182 20.5831 48.8922C18.5716 50.8983 18.9515 54.9004 21.1767 59.675C16.2243 61.4778 13.1239 64.0397 13.1239 66.876C13.1239 69.7124 16.2243 72.281 21.1767 74.0838C18.9549 78.8585 18.5716 82.8572 20.5831 84.8667C21.4684 85.7511 22.7472 86.195 24.3517 86.195C26.1461 86.195 28.3407 85.6427 30.8373 84.5312C31.0137 84.4533 31.1969 84.3618 31.38 84.2804C33.1846 89.2178 35.7456 92.315 38.5848 92.315C41.4239 92.315 43.985 89.2178 45.7895 84.2804C45.9727 84.3618 46.1559 84.4533 46.3323 84.5312C48.8356 85.6359 51.0303 86.195 52.8247 86.195C54.4224 86.195 55.7012 85.7511 56.5933 84.8667C58.6048 82.8572 58.2249 78.8517 55.9963 74.077C60.9419 72.2743 64.0491 69.7124 64.0491 66.876ZM55.2534 50.2273C56.885 51.8573 56.5288 55.1647 54.6428 59.2142C52.6008 58.5636 50.301 58.0451 47.8146 57.6723C47.4381 55.1816 46.9157 52.8807 46.2712 50.8407C50.4977 48.8786 53.6863 48.6584 55.2568 50.2307L55.2534 50.2273ZM48.4557 65.1139C48.9408 65.69 49.4123 66.2729 49.86 66.8489C49.4123 67.4318 48.9408 68.018 48.4557 68.6043C48.4693 68.0316 48.4862 67.4555 48.4862 66.8794C48.4862 66.3034 48.4761 65.6968 48.4557 65.1139ZM50.7589 68.0282C52.0954 69.8445 53.2216 71.6236 54.1171 73.301C52.2989 73.8602 50.2332 74.3143 48.0012 74.6565C48.1504 73.4501 48.2691 72.2031 48.3539 70.9255C49.2054 69.9598 50.0093 68.994 50.7589 68.0282ZM50.7318 65.6866C49.9923 64.7344 49.1952 63.7788 48.3539 62.8265C48.2725 61.549 48.1572 60.302 48.008 59.0956C50.206 59.4311 52.2379 59.8851 54.0391 60.4273C53.1639 62.1014 52.0547 63.8703 50.7318 65.6866ZM44.4768 72.9622C43.6831 73.7551 42.8758 74.5243 42.0617 75.2563C40.9728 75.3139 39.8636 75.3376 38.7272 75.3376C37.4891 75.3376 36.2782 75.3004 35.0943 75.236C34.2904 74.504 33.4865 73.7449 32.6961 72.9588C31.8312 72.0947 30.9967 71.2102 30.203 70.3257C30.1453 69.2447 30.1148 68.1366 30.1148 67.0184C30.1148 65.7815 30.1521 64.5717 30.2199 63.3891C30.9458 62.5859 31.7023 61.7896 32.496 60.9933C33.3542 60.1325 34.2294 59.3091 35.1079 58.5229C36.2884 58.4619 37.4891 58.4178 38.7171 58.4178C39.8398 58.4178 40.9457 58.4483 42.0277 58.4992C42.9131 59.2921 43.795 60.1257 44.6634 60.9899C45.4571 61.7828 46.2169 62.5859 46.9428 63.3857C47.0039 64.5683 47.048 65.7815 47.048 67.015C47.048 68.1366 47.0141 69.2414 46.9598 70.3224C46.1695 71.2068 45.3384 72.0811 44.4666 72.9655L44.4768 72.9622ZM46.8173 72.6097C46.7495 73.3756 46.6681 74.1245 46.5765 74.8598C45.8404 74.9513 45.084 75.0327 44.3208 75.1004C44.7482 74.7006 45.1722 74.2939 45.5928 73.8737C46.0134 73.4535 46.4205 73.0333 46.8207 72.6097H46.8173ZM40.3521 76.7406C39.7652 77.2353 39.1784 77.7063 38.5848 78.1638C37.9946 77.703 37.4043 77.2319 36.8141 76.7406C37.3976 76.7541 37.9878 76.7711 38.5848 76.7711C39.1818 76.7711 39.7686 76.7609 40.3521 76.7406ZM32.825 75.0733C32.0652 75.0022 31.3224 74.9208 30.5965 74.8226C30.5049 74.1008 30.4269 73.3654 30.359 72.6097C30.7593 73.0333 31.1663 73.4569 31.5869 73.8703C32.0042 74.2838 32.4112 74.6768 32.825 75.0733ZM28.7105 68.6043C28.2254 68.0214 27.7573 67.4352 27.3061 66.8489C27.7573 66.2729 28.2288 65.69 28.7173 65.1071C28.7037 65.69 28.6867 66.2796 28.6867 66.8727C28.6867 67.4657 28.7003 68.0316 28.7105 68.6043ZM26.4412 65.6934C25.1624 63.9279 24.0599 62.1793 23.178 60.5019C24.9588 59.9428 26.9737 59.4819 29.165 59.1396C29.0158 60.3325 28.897 61.5659 28.8224 62.8333C27.9812 63.7855 27.1908 64.7412 26.4412 65.6934ZM28.8156 70.9289C28.8936 72.1929 29.009 73.423 29.1582 74.6226C26.9364 74.2702 24.8944 73.7992 23.0898 73.2333C23.9751 71.5796 25.0911 69.8242 26.4106 68.035C27.1569 69.0008 27.9642 69.9665 28.8156 70.9289ZM38.5882 56.9844C38.0047 56.9844 37.4383 56.9946 36.865 57.0149C37.4383 56.5405 38.0149 56.0729 38.5848 55.6357C39.1614 56.0796 39.7381 56.5337 40.3181 57.0149C39.7449 57.0014 39.1716 56.9844 38.5916 56.9844H38.5882ZM32.825 58.6889C32.4112 59.082 31.9974 59.4785 31.5869 59.8851C31.1765 60.2952 30.783 60.7086 30.3929 61.1152C30.4608 60.3697 30.5422 59.6378 30.6338 58.9261C31.3495 58.8346 32.0822 58.7567 32.825 58.6855V58.6889ZM44.3174 58.655C45.0738 58.7228 45.8099 58.8041 46.5256 58.8923C46.6206 59.6174 46.7088 60.3596 46.78 61.1186C46.3899 60.7052 45.9897 60.2952 45.5826 59.8818C45.1654 59.465 44.7414 59.0583 44.3174 58.655ZM46.3289 57.4656C45.1349 57.3165 43.9036 57.1979 42.6417 57.12C41.6953 56.283 40.7354 55.49 39.7788 54.7411C41.5393 53.4636 43.293 52.3622 44.9721 51.4812C45.525 53.2636 45.9863 55.2799 46.3289 57.4656ZM38.5882 43.3313C40.8948 43.3313 42.9809 45.9169 44.5073 50.102C42.5773 51.1016 40.5861 52.3656 38.5882 53.8363C36.5902 52.3588 34.5991 51.1016 32.669 50.102C34.1954 45.9203 36.2884 43.3313 38.5882 43.3313ZM32.2009 51.4812C33.88 52.3622 35.6269 53.4636 37.3874 54.7411C36.4342 55.4866 35.4776 56.2796 34.5347 57.1098C33.2694 57.1911 32.0313 57.303 30.8373 57.4521C31.1799 55.2697 31.6446 53.2602 32.2009 51.4812ZM21.9195 50.2273C22.6115 49.536 23.6291 49.1836 24.9046 49.1836C26.5158 49.1836 28.551 49.7428 30.9119 50.8373C30.2674 52.8773 29.7417 55.1748 29.3685 57.6588C26.8821 58.0349 24.5789 58.5568 22.5403 59.2074C20.5729 54.9851 20.349 51.7997 21.9229 50.2273H21.9195ZM15.0133 66.876C15.0133 64.5717 17.6082 62.4877 21.8042 60.9594C22.7913 62.857 24.0464 64.853 25.5389 66.876C24.0464 68.8991 22.7913 70.895 21.8042 72.7927C17.6082 71.2644 15.0133 69.177 15.0133 66.876ZM30.8339 83.0571C26.5497 85.0768 23.3103 85.3106 21.7228 83.7247C20.0641 82.0676 20.461 78.662 22.4385 74.5176C24.4975 75.175 26.8313 75.7104 29.3584 76.0933C29.7417 78.6179 30.2776 80.9459 30.9357 83.0029C30.8983 83.0164 30.8644 83.0402 30.8305 83.0571H30.8339ZM30.7966 76.2899C32.011 76.4424 33.2558 76.5576 34.5347 76.6423C35.4878 77.4895 36.4546 78.2926 37.4213 79.0415C35.6303 80.3529 33.8596 81.4881 32.15 82.3929C31.5903 80.5766 31.129 78.523 30.7932 76.2933L30.7966 76.2899ZM38.5882 90.6986C36.2443 90.6986 34.1208 88.0114 32.5876 83.6874C34.5414 82.6776 36.5631 81.4102 38.5882 79.9124C40.6132 81.4068 42.6349 82.6776 44.5887 83.6874C43.0521 88.008 40.9321 90.6986 38.5882 90.6986ZM45.0161 82.3895C43.3065 81.4814 41.5325 80.3495 39.7415 79.0381C40.7082 78.2824 41.675 77.4861 42.6281 76.6389C43.9137 76.5576 45.1586 76.4356 46.373 76.2831C46.0304 78.5129 45.5691 80.5732 45.0161 82.3895ZM55.4502 83.7213C53.8627 85.3072 50.6232 85.0734 46.3391 83.0537C46.3051 83.0402 46.2678 83.0164 46.2339 82.9995C46.892 80.9426 47.4279 78.6111 47.8112 76.0899C50.3383 75.7036 52.6754 75.175 54.7378 74.5142C56.7154 78.6586 57.1089 82.0608 55.4502 83.7213ZM55.4095 72.8808C54.419 70.956 53.1435 68.933 51.6273 66.8794C53.1435 64.8259 54.4122 62.796 55.4061 60.878C59.7411 62.4131 62.4276 64.5378 62.4276 66.8794C62.4276 69.221 59.7377 71.3457 55.4095 72.8808Z" fill="#354990"/>
<path d="M36.8209 21.159C35.8406 22.0909 34.4634 22.7449 32.8115 23.0567C31.2579 23.3447 29.6433 23.321 28.0795 23.2973C27.3638 23.2837 26.5294 23.243 25.7322 23.0194C25.6746 22.9991 25.6542 22.9516 25.6508 22.9313C25.6508 22.9076 25.6406 22.8601 25.6881 22.8161C26.5599 22.0773 28.3543 20.8845 31.0171 19.2783C31.0781 19.241 31.1358 19.2037 31.1935 19.1664C31.6684 18.8784 32.1568 18.5802 32.6961 18.4684C33.6358 18.2718 34.9926 18.9191 35.8813 19.3494C35.8983 19.3562 35.9118 19.3664 35.9288 19.3731C36.1255 20.061 36.363 20.6168 36.8175 21.1556L36.8209 21.159Z" fill="#354990"/>
<path d="M51.4204 15.5542C49.2868 18.1466 45.5046 20.2035 42.2415 18.5871C42.1804 18.5532 42.1024 18.5736 42.0549 18.6244C42.0074 18.6718 41.9972 18.7532 42.0346 18.8108C42.3229 19.2784 42.7096 19.7325 43.0793 20.1764C43.388 20.5458 43.7035 20.9253 43.9646 21.3049C44.4904 22.0741 46.4239 22.6061 46.4442 22.6129C46.6308 22.6604 46.8208 22.7518 46.8004 22.8433C46.7868 22.9043 46.6749 22.9687 46.6172 22.9958C45.966 23.3449 45.3181 23.6939 44.6668 24.0429C44.4158 24.1785 44.1342 24.331 43.8391 24.3615C43.5135 24.3954 43.1404 24.2802 42.7469 24.0158C42.5841 23.904 42.4246 23.7786 42.2652 23.6566C42.0888 23.5177 41.909 23.3788 41.7123 23.2534C41.1187 22.8738 40.4369 22.6807 39.7788 22.4875C39.6092 22.4401 39.443 22.3926 39.2734 22.3418C38.941 22.2402 38.6289 22.1114 38.2761 21.9623C38.0353 21.8572 37.8046 21.6742 37.5977 21.4912C36.7701 20.7762 36.4682 20.1358 36.207 19.2208C36.2002 19.1632 36.19 19.1022 36.1832 19.0446C36.1052 18.4956 36.034 17.9229 35.6405 17.4926C35.4777 17.3062 35.2742 17.1605 35.0774 17.0215C34.9994 16.9639 34.9248 16.9097 34.8468 16.8521C34.5042 16.5878 34.2226 16.2693 33.9886 15.8999C33.975 15.8762 33.975 15.8524 33.9784 15.8321C33.9818 15.8084 34.0021 15.7847 34.0259 15.7711C34.416 15.5542 34.8332 15.334 35.2979 15.1883C35.7083 15.0595 36.3087 14.9477 36.8922 15.1408C37.2958 15.2696 37.652 15.5339 37.9946 15.7914C38.5814 16.2218 39.1649 16.6522 39.7517 17.0859C39.7653 17.1469 39.8195 17.2011 39.8874 17.2045C39.9756 17.2079 40.0502 17.1503 40.0604 17.0656C40.1486 16.2523 40.7998 15.4797 41.7361 15.0934C42.5841 14.741 43.4965 14.7105 44.5176 14.7003C46.8242 14.68 49.0595 14.7477 51.1626 14.9104C51.3356 14.9239 51.5222 14.9544 51.5866 15.0629C51.6646 15.1984 51.5324 15.3984 51.4238 15.5475L51.4204 15.5542Z" fill="#354990"/>
<path d="M38.6866 21.4945H38.6561C38.2795 21.3589 38.0048 20.9862 37.9912 20.5863C37.9912 20.5253 37.9912 20.4575 37.9946 20.3898C38.0048 20.2542 38.0082 20.1288 37.9607 20.0238C37.9064 19.9052 37.7877 19.8205 37.6859 19.7459C37.5401 19.6409 37.3976 19.5392 37.2517 19.4375C37.2042 19.4037 37.1568 19.3698 37.1059 19.3359C37.1975 19.5663 37.2314 19.8272 37.1873 20.0712C37.1771 20.1153 37.1398 20.1424 37.0957 20.1322C37.0516 20.1288 37.0245 20.0848 37.0346 20.0407C37.0889 19.7188 37.0007 19.3664 36.804 19.1088C36.7802 19.0783 36.7836 19.0309 36.8074 19.0072C36.8379 18.9767 36.8786 18.9733 36.9091 18.997C37.055 19.1021 37.1975 19.2037 37.3433 19.3054C37.4892 19.407 37.6384 19.5087 37.7775 19.6138C37.8928 19.6951 38.0319 19.8001 38.1031 19.956C38.1642 20.1017 38.1574 20.2508 38.1472 20.3932C38.1472 20.4542 38.1371 20.5118 38.1439 20.5761C38.154 20.9116 38.3847 21.2302 38.7069 21.3454C38.751 21.3589 38.768 21.403 38.7544 21.447C38.7442 21.4809 38.7103 21.5013 38.6832 21.4945H38.6866Z" fill="white"/>
<path d="M39.5651 21.9859H39.5515C39.5074 21.9757 39.4803 21.9384 39.4905 21.8944C39.5278 21.7012 39.4464 21.4843 39.2836 21.3759C39.2395 21.3454 39.192 21.3217 39.1445 21.2979C39.097 21.2742 39.0529 21.2505 39.0088 21.22C38.8799 21.1387 38.8053 21.0235 38.8019 20.9082C38.8019 20.8201 38.8324 20.749 38.8595 20.6812C38.8697 20.6609 38.8799 20.6372 38.8833 20.6202C38.907 20.5626 38.907 20.4847 38.8731 20.4609C38.8392 20.4372 38.829 20.383 38.8595 20.3491C38.8833 20.3152 38.9376 20.3051 38.9715 20.3356C39.0834 20.4169 39.0732 20.5728 39.0325 20.6778C39.0224 20.7015 39.0122 20.7253 39.002 20.749C38.9783 20.8032 38.9545 20.854 38.9579 20.9015C38.9579 20.993 39.0529 21.0641 39.097 21.0878C39.1343 21.1116 39.1784 21.1353 39.2157 21.1556C39.27 21.1861 39.3209 21.2098 39.3751 21.2471C39.5854 21.3962 39.6974 21.6741 39.6431 21.9282C39.6329 21.9655 39.6058 21.9892 39.5617 21.9825L39.5651 21.9859Z" fill="white"/>
<path d="M41.4307 22.5282C41.4307 22.5282 41.4002 22.5282 41.3934 22.518C41.0712 22.335 40.8337 22.047 40.7184 21.7115C40.637 21.8708 40.5081 22.0063 40.3283 22.0978C40.3079 22.108 40.2808 22.108 40.2605 22.0978C40.2367 22.0877 40.2231 22.0673 40.2164 22.0436C40.1858 21.9284 40.0909 21.8335 39.9959 21.7352C39.9043 21.6404 39.8093 21.5421 39.755 21.4133C39.7211 21.3354 39.7109 21.254 39.6974 21.1761C39.694 21.1422 39.6872 21.1083 39.677 21.0744C39.6567 20.9965 39.6227 20.8982 39.5481 20.8542C39.5108 20.8338 39.4938 20.7864 39.5142 20.7491C39.5346 20.7119 39.582 20.6949 39.6194 20.7152C39.7211 20.7695 39.7957 20.8847 39.8297 21.0406C39.8398 21.0778 39.8432 21.1185 39.85 21.1524C39.8602 21.2235 39.8738 21.2913 39.8975 21.3489C39.9416 21.4506 40.0162 21.5319 40.1044 21.6166C40.1858 21.7047 40.274 21.7895 40.3317 21.9013C40.525 21.7725 40.6404 21.5658 40.6404 21.3591C40.6404 21.3286 40.637 21.3015 40.637 21.2778C40.637 21.2337 40.6675 21.1998 40.7082 21.1964C40.7523 21.193 40.7896 21.2202 40.7964 21.2642C40.7964 21.2947 40.8066 21.3252 40.8066 21.3557C40.8507 21.7217 41.0338 22.0436 41.3154 22.2707C41.3154 22.1554 41.3459 22.0402 41.3866 21.9453C41.4545 21.7928 41.5698 21.6607 41.6716 21.5455C41.6851 21.5251 41.7157 21.515 41.7394 21.5218C41.7631 21.5218 41.7869 21.5353 41.8005 21.559C41.9294 21.7691 42.1804 21.8945 42.3941 21.8606C42.4619 21.8505 42.523 21.8267 42.5908 21.7996C42.6349 21.7861 42.6722 21.7657 42.7163 21.7556C42.8757 21.7081 43.042 21.698 43.2014 21.7217C43.2455 21.7319 43.2726 21.7691 43.2624 21.8132C43.2523 21.8572 43.2149 21.8843 43.1709 21.8742C43.0318 21.8505 42.8927 21.8606 42.757 21.9047C42.7197 21.9182 42.679 21.9352 42.6417 21.9487C42.5705 21.9792 42.4924 22.0063 42.411 22.0199C42.1702 22.0572 41.892 21.9386 41.719 21.7251C41.641 21.8132 41.5732 21.9047 41.5257 22.0097C41.4714 22.1283 41.4375 22.3045 41.502 22.413C41.5223 22.4435 41.5155 22.4841 41.4918 22.5079C41.4782 22.5214 41.4579 22.5316 41.4307 22.5282Z" fill="white"/>
<path d="M36.6242 15.9507C36.5563 15.8693 36.4512 15.8117 36.3732 15.7778C36.2002 15.7101 36.0034 15.7168 35.8203 15.7338C35.671 15.7473 35.6608 15.8931 35.7185 16.0015C35.7762 16.1065 35.8915 16.1608 35.9966 16.198C36.1154 16.2421 36.2477 16.2929 36.3732 16.3133C36.4749 16.3268 36.5835 16.3133 36.6479 16.2319C36.7192 16.1438 36.6852 16.0252 36.6242 15.9473V15.9507Z" fill="white"/>
<path d="M51.8749 14.9138C51.7257 14.6393 51.3695 14.6122 51.1999 14.5953C49.5548 14.4699 47.8316 14.3987 46.0609 14.3852C46.027 14.3716 45.9897 14.3716 45.9558 14.3852C45.4843 14.3852 45.0094 14.3818 44.5277 14.3852C43.5067 14.3953 42.5196 14.4326 41.6241 14.7986C40.6947 15.1849 40.0162 15.9202 39.8093 16.7301C39.27 16.3303 38.7307 15.9338 38.1913 15.5339C37.8385 15.2798 37.4451 14.985 36.9973 14.8426C36.4715 14.6732 35.8576 14.6901 35.2131 14.8901C34.7212 15.0426 34.2836 15.2798 33.8834 15.5001C33.7816 15.5543 33.7104 15.6492 33.6799 15.761C33.6493 15.866 33.6663 15.9779 33.7273 16.0727C33.9716 16.4726 34.287 16.8183 34.6568 17.1063C34.7348 17.1639 34.8162 17.2215 34.8976 17.2791C35.0842 17.4147 35.264 17.5434 35.4064 17.7027C35.7083 18.045 35.7863 18.5024 35.8576 18.987C34.9281 18.5431 33.6154 17.9535 32.6249 18.1602C32.0313 18.2856 31.5225 18.5939 31.0239 18.8989C30.9662 18.9328 30.9051 18.9701 30.8475 19.004C28.1677 20.6238 26.3632 21.82 25.4778 22.5723C25.3591 22.6773 25.3048 22.8366 25.3388 22.9891C25.3727 23.1484 25.488 23.267 25.6407 23.311C26.4717 23.5482 27.3333 23.5889 28.066 23.6058C28.5171 23.6092 28.9717 23.6194 29.4228 23.6194C30.5693 23.6194 31.7294 23.5719 32.8624 23.3585C34.572 23.0365 36 22.352 37.0244 21.3828C37.1364 21.4981 37.2517 21.6133 37.384 21.7285C37.6045 21.9149 37.8589 22.1284 38.1506 22.2537C38.5068 22.4028 38.829 22.5418 39.1818 22.6468C39.3514 22.6943 39.5244 22.7417 39.6906 22.7959C40.3249 22.9721 40.9898 23.1653 41.5427 23.5177C41.7259 23.6329 41.8988 23.7719 42.0684 23.9074C42.2279 24.0328 42.3907 24.1616 42.5705 24.2768C42.9741 24.5445 43.3642 24.68 43.7238 24.68C43.7713 24.68 43.8188 24.68 43.8696 24.6767C44.2224 24.6394 44.5379 24.4699 44.816 24.3208C45.4673 23.9718 46.1152 23.6228 46.7665 23.2737C46.8716 23.2161 47.065 23.1145 47.1091 22.9078C47.1667 22.6333 46.9496 22.413 46.5222 22.308C46.2441 22.2368 44.6261 21.7149 44.2258 21.1253C43.9578 20.7322 43.6322 20.3459 43.3201 19.9731C43.0793 19.6851 42.8283 19.3869 42.6078 19.0887C45.9049 20.3425 49.5581 18.2991 51.6612 15.7508C51.9292 15.4289 51.997 15.1442 51.8715 14.9138H51.8749ZM51.1762 14.9138C51.322 14.924 51.4713 14.9477 51.5561 15.0256C50.223 15.5068 48.7746 15.6695 47.3601 15.5204C47.6789 15.2798 47.9808 15.0256 48.259 14.7545C49.2495 14.7884 50.2264 14.8426 51.1762 14.9138ZM46.0507 14.7071C46.6444 14.7105 47.2312 14.7206 47.8112 14.741C47.5229 15.0019 47.2244 15.2425 46.9055 15.4662C46.434 15.395 45.9659 15.2899 45.5148 15.1442C45.7081 15.0155 45.8845 14.8698 46.0473 14.7071H46.0507ZM42.4178 16.4557C42.6112 16.3066 42.8079 16.1778 43.0182 16.0863C43.2048 16.005 43.3981 15.9406 43.6017 15.883C44.0121 16.1473 44.4633 16.3642 44.9551 16.5268C44.8873 16.5573 44.816 16.5844 44.7482 16.6149C44.7177 16.6115 44.6905 16.6115 44.66 16.6183C44.5345 16.6658 44.3615 16.7301 44.1647 16.8013C44.0392 16.8488 43.9002 16.8962 43.7611 16.9504C43.3032 16.8149 42.8554 16.6522 42.4178 16.4557ZM43.2794 17.13C43.2557 17.1402 43.2251 17.1503 43.2014 17.1639C43.1675 17.1775 43.1302 17.1944 43.0962 17.208C43.025 17.2385 42.947 17.2656 42.8758 17.2961C42.8215 17.3198 42.7638 17.3503 42.7028 17.3842C42.5264 17.4655 42.3703 17.5536 42.2652 17.6282C41.8547 17.9264 41.5529 18.3771 41.4138 18.8888C41.2883 18.7701 41.1492 18.621 41.0712 18.5126C41.2679 17.9399 41.4986 17.4791 41.7801 17.1131C41.8955 16.9606 42.0244 16.8183 42.1566 16.6895C42.523 16.8589 42.8961 17.008 43.2828 17.1334L43.2794 17.13ZM44.0189 15.7745C44.2292 15.7203 44.4463 15.6627 44.66 15.5882C44.833 15.5272 45.0026 15.4424 45.1654 15.3577C45.6098 15.5102 46.0643 15.6356 46.5256 15.7237C46.1593 15.9541 45.7794 16.1608 45.3893 16.3438C44.894 16.2083 44.4327 16.0185 44.0189 15.7779V15.7745ZM34.4431 16.4794C34.2803 16.3066 34.131 16.1134 33.9987 15.9067C33.9851 15.883 33.9851 15.8593 33.9885 15.8389C33.9919 15.8152 34.0123 15.7915 34.036 15.7779C34.2328 15.6661 34.4465 15.5577 34.6602 15.4526C34.7416 15.805 34.6602 16.1913 34.4397 16.4828L34.4431 16.4794ZM31.1935 19.17C31.6684 18.882 32.1568 18.5838 32.6962 18.4719C33.6358 18.2754 34.9926 18.9226 35.8813 19.353C35.8983 19.3598 35.9118 19.3699 35.9288 19.3767C35.9525 19.4648 35.9763 19.5462 36.0068 19.6275C35.5828 19.7393 35.1317 19.7529 34.6941 19.7393C33.4797 19.702 32.2789 19.5224 31.1053 19.231C31.1358 19.2141 31.1629 19.1971 31.1969 19.1734L31.1935 19.17ZM36.1561 20.0375C36.2375 20.2341 36.3257 20.4272 36.4342 20.6102C36.2375 20.6339 36.0441 20.6577 35.8474 20.6814C35.9661 20.4543 36.0747 20.2375 36.1561 20.0375ZM32.9268 19.8952C33.1914 19.9291 33.4526 19.963 33.7172 19.9867C33.5544 20.2408 33.3407 20.5526 33.0964 20.8847C32.7979 20.8949 32.4994 20.905 32.2009 20.905C32.4757 20.5391 32.7267 20.1934 32.9268 19.8952ZM31.8108 20.905C31.5564 20.905 31.2952 20.905 31.0408 20.8949C31.3529 20.495 31.6175 20.0917 31.8142 19.7088C32.0686 19.763 32.323 19.8105 32.5842 19.8478C32.3739 20.1663 32.1025 20.5289 31.8108 20.905ZM34.0733 20.0036C34.2769 20.0172 34.4838 20.0375 34.6839 20.0409H34.8196C34.6907 20.2612 34.5245 20.5255 34.3447 20.8135C34.0598 20.8339 33.7782 20.8508 33.4933 20.8678C33.724 20.5458 33.9275 20.2442 34.0767 20.0036H34.0733ZM35.1825 20.0477C35.3996 20.0443 35.6201 20.024 35.8372 19.9867C35.7355 20.2171 35.6066 20.4679 35.4675 20.7254C35.2266 20.7492 34.9824 20.7695 34.7416 20.7932C34.918 20.5153 35.074 20.2612 35.1859 20.0477H35.1825ZM31.0883 19.5428C31.224 19.5767 31.3529 19.6105 31.4886 19.6377C31.2783 20.0375 30.9798 20.4645 30.6406 20.8813C30.3997 20.8711 30.1657 20.861 29.9248 20.8474C30.3692 20.4103 30.7762 19.963 31.0883 19.5394V19.5428ZM30.7288 19.4581C30.7288 19.4581 30.7491 19.4581 30.7593 19.4682C30.4167 19.9121 29.9757 20.373 29.5042 20.8271C29.2159 20.8068 28.9276 20.783 28.6392 20.7559C29.26 20.3628 29.952 19.9291 30.7321 19.4581H30.7288ZM25.7322 23.0196C25.6746 22.9993 25.6542 22.9518 25.6508 22.9315C25.6508 22.9078 25.6407 22.8603 25.6881 22.8163C26.2037 22.3791 27.0484 21.7793 28.2051 21.027C28.5307 21.0609 28.8597 21.088 29.1854 21.1185C28.3102 21.9318 27.3604 22.6909 26.6888 23.206C26.3699 23.1619 26.0477 23.1111 25.7322 23.0196ZM28.0796 23.2975C27.7844 23.2941 27.469 23.2771 27.1399 23.2534C27.8523 22.701 28.7749 21.942 29.6128 21.149C29.8672 21.1626 30.1216 21.1795 30.3794 21.1931C29.6569 22.0233 28.8055 22.8095 28.1847 23.3042C28.1508 23.3042 28.1135 23.3042 28.0796 23.3008V23.2975ZM29.7451 23.311H28.6766C29.3312 22.7587 30.125 22.003 30.783 21.21C31.0442 21.2202 31.302 21.2236 31.5564 21.2236C30.9119 22.047 30.1996 22.8739 29.7417 23.311H29.7451ZM30.1996 23.3042C30.7016 22.7858 31.3699 21.9928 31.9601 21.227C32.2586 21.227 32.5571 21.2168 32.8556 21.2134C32.2688 21.9928 31.5836 22.8095 31.1087 23.2703C30.8068 23.2907 30.5015 23.3042 30.1996 23.3042ZM32.7742 23.067C32.3841 23.1382 31.9906 23.1924 31.5903 23.2263C32.0958 22.6943 32.7301 21.9081 33.2559 21.1965C33.5442 21.1863 33.8393 21.166 34.1276 21.149C33.6459 21.8742 33.0964 22.6502 32.7742 23.067ZM33.2457 22.9654C33.6052 22.474 34.1039 21.7692 34.5245 21.1253C34.7755 21.105 35.0265 21.0812 35.2741 21.0575C34.8637 21.7556 34.3888 22.4266 34.1208 22.7146C33.8359 22.8095 33.5476 22.8908 33.2457 22.9654ZM34.7043 22.5011C35.0062 22.0979 35.3589 21.5557 35.6608 21.0202C35.9831 20.9864 36.3053 20.9423 36.6242 20.9016C36.6852 20.9898 36.7497 21.0745 36.8209 21.1626C36.2443 21.7115 35.5251 22.1589 34.7043 22.5045V22.5011ZM42.5332 23.8701C42.4416 23.8024 42.3568 23.7346 42.2686 23.6634C42.1058 23.5347 41.9362 23.4025 41.753 23.2839C41.9904 23.25 42.2211 23.1924 42.4348 23.1212C42.6315 23.3042 42.8452 23.4737 43.0589 23.6296C42.8859 23.7109 42.7062 23.7922 42.5298 23.8701H42.5332ZM42.7876 23.0094C42.7876 23.0094 42.8249 22.9959 42.8452 22.9891C43.1302 22.884 43.4422 22.7587 43.734 22.5791C43.8832 22.7282 44.0359 22.8671 44.2055 22.9959C43.9409 23.1687 43.6661 23.3313 43.3812 23.4771C43.1743 23.3313 42.9775 23.1755 42.7842 23.006L42.7876 23.0094ZM43.8425 24.3717C43.5406 24.4056 43.2014 24.3005 42.8418 24.0769C43.0148 24.0057 43.1844 23.9244 43.3507 23.8397C43.6051 24.0091 43.8696 24.1582 44.1444 24.2903C44.0426 24.3242 43.9409 24.3513 43.8425 24.3683V24.3717ZM44.6702 24.0531C44.6227 24.0769 44.5684 24.1074 44.5209 24.1311C44.2258 23.9955 43.9477 23.8464 43.6797 23.6736C43.9544 23.5245 44.2224 23.3618 44.4836 23.189C44.7685 23.3754 45.0704 23.5414 45.3927 23.66C45.1518 23.7888 44.911 23.921 44.6702 24.0531ZM46.4442 22.6197C46.6308 22.6672 46.8207 22.7587 46.8004 22.8501C46.7868 22.9111 46.6749 22.9755 46.6172 23.0026C46.3323 23.1551 46.0507 23.3076 45.7658 23.4601C45.4096 23.3483 45.0738 23.1924 44.7584 22.9993C45.0467 22.7925 45.3316 22.5723 45.5996 22.3351C46.0609 22.5113 46.4374 22.6197 46.4408 22.6197H46.4442ZM44.5141 21.7997C44.7448 21.9488 45.0162 22.0843 45.274 22.1995C45.0229 22.4164 44.7584 22.6163 44.4904 22.8061C44.3174 22.6807 44.1546 22.5418 44.0053 22.3927C44.0257 22.3791 44.0494 22.3622 44.0664 22.3452C44.2428 22.1927 44.392 22.003 44.5141 21.803V21.7997ZM43.0827 20.1832C43.3914 20.5526 43.7068 20.9321 43.968 21.3117C44.0392 21.4167 44.141 21.5184 44.2563 21.6133C44.1512 21.7963 44.0189 21.9691 43.8561 22.1046C43.5304 22.3825 43.1064 22.5519 42.7333 22.6909C42.2822 22.8603 41.753 23.0365 41.2272 22.9925C40.7659 22.7756 40.2639 22.6367 39.7788 22.4977C39.6092 22.4503 39.443 22.4028 39.2734 22.352C38.941 22.2503 38.6289 22.1216 38.2761 21.9725C38.0353 21.8674 37.8046 21.6844 37.5977 21.5014C36.77 20.7864 36.4681 20.146 36.207 19.231C36.2002 19.1734 36.19 19.1124 36.1832 19.0514C36.1052 18.5024 36.034 17.9297 35.6405 17.4994C35.4777 17.313 35.2741 17.1673 35.0774 17.0284C34.9994 16.9707 34.9248 16.9165 34.8467 16.8589C34.7789 16.8047 34.7178 16.7539 34.6534 16.6963C34.9621 16.3201 35.0706 15.7915 34.9417 15.3272C35.057 15.2798 35.1792 15.2357 35.2979 15.1985C35.7083 15.0697 36.3087 14.9579 36.8922 15.151C37.2958 15.2798 37.652 15.5441 37.9946 15.8016C38.5814 16.232 39.1648 16.6624 39.7517 17.0961C39.7652 17.1571 39.8195 17.2113 39.8873 17.2147C39.9755 17.2181 40.0502 17.1605 40.0603 17.0758C40.1485 16.2625 40.7998 15.4899 41.736 15.1036C42.584 14.7511 43.4965 14.7206 44.5175 14.7105H45.5725C45.2638 14.9612 44.9144 15.1578 44.5413 15.2933C44.314 15.3747 44.0732 15.4391 43.8391 15.4967C43.5203 15.578 43.1878 15.6661 42.8758 15.805C42.367 16.0355 41.8955 16.4252 41.5155 16.9267C41.2069 17.3401 40.9525 17.8484 40.7354 18.4889C40.7286 18.5126 40.7184 18.5329 40.7116 18.5567C40.7252 18.577 40.7388 18.5973 40.7489 18.6177C40.8744 18.8278 41.2442 19.1836 41.4002 19.3056C41.4714 19.3632 41.5427 19.4174 41.6105 19.475C41.6241 19.3869 41.6411 19.2954 41.6546 19.2073C41.6919 18.9565 41.7801 18.7227 41.8955 18.5092C41.909 18.7125 41.9972 18.9023 42.1702 19.0345C42.4382 19.4242 42.757 19.8071 43.0861 20.1866L43.0827 20.1832ZM42.2448 18.5872C42.1973 18.4347 42.2245 18.2449 42.3025 18.1127C42.3025 18.1094 42.3127 18.0992 42.3161 18.0924C43.4863 18.4347 44.6939 18.6075 45.9015 18.6075C46.4849 18.6075 47.065 18.5634 47.6484 18.4821C45.9218 19.2615 44.0053 19.4614 42.2448 18.5872ZM48.588 17.9941C46.6003 18.4313 44.5345 18.3703 42.5739 17.8247C42.6553 17.7637 42.7469 17.7061 42.8385 17.662C42.964 17.601 43.1064 17.5434 43.2557 17.4791C43.2692 17.4757 43.2862 17.4689 43.293 17.4655C43.4083 17.4181 43.5236 17.374 43.639 17.3299C43.6831 17.3164 43.7272 17.2995 43.7747 17.2825C44.8466 17.5909 45.9693 17.7501 47.0853 17.7501C47.8316 17.7501 48.5711 17.6722 49.3037 17.5333C49.0731 17.6959 48.8322 17.8552 48.588 17.9941ZM49.8804 17.0826C48.0724 17.54 46.1321 17.54 44.3072 17.0961C44.4904 17.0351 44.6668 16.9775 44.8466 16.9098C45.0433 16.8386 45.2366 16.7573 45.4232 16.6692C46.0304 16.8216 46.6783 16.9064 47.3669 16.9064H47.4008C48.4829 16.9064 49.548 16.7132 50.569 16.4794C50.3485 16.6895 50.1178 16.8962 49.8804 17.086V17.0826ZM51.4204 15.5543C51.2847 15.7237 51.1422 15.8864 50.993 16.0456C49.8465 16.3303 48.6355 16.5777 47.4076 16.5844H47.3736C46.8547 16.5844 46.3526 16.537 45.8811 16.4455C46.261 16.249 46.6274 16.0321 46.9768 15.7915C47.4347 15.8525 47.896 15.8864 48.3641 15.8864C49.453 15.8864 50.5351 15.7034 51.5595 15.3476C51.5222 15.4187 51.4713 15.4865 51.4204 15.5543Z" fill="white"/>
<path d="M13.5242 15.6253C12.5439 16.5572 11.1667 17.2112 9.51479 17.523C7.96122 17.811 6.34659 17.7873 4.78285 17.7636C4.06712 17.75 3.23267 17.7094 2.43554 17.4857C2.37787 17.4654 2.35752 17.4179 2.35413 17.3976C2.35413 17.3739 2.34395 17.3264 2.39144 17.2824C3.2632 16.5436 5.05761 15.3508 7.72038 13.7446C7.78144 13.7073 7.8391 13.67 7.89677 13.6327C8.37166 13.3447 8.86012 13.0465 9.39946 12.9347C10.3391 12.7381 11.6959 13.3854 12.5846 13.8157C12.6016 13.8225 12.6151 13.8327 12.6321 13.8395C12.8288 14.5274 13.0663 15.0831 13.5208 15.6219L13.5242 15.6253Z" fill="#354990"/>
<path d="M28.1202 10.0203C25.9866 12.6127 22.2045 14.6696 18.9413 13.0532C18.8802 13.0193 18.8022 13.0396 18.7547 13.0905C18.7072 13.1379 18.6971 13.2192 18.7344 13.2768C19.0227 13.7445 19.4094 14.1986 19.7791 14.6425C20.0878 15.0119 20.4033 15.3914 20.6645 15.7709C21.1902 16.5402 23.1237 17.0722 23.1441 17.079C23.3306 17.1264 23.5206 17.2179 23.5002 17.3094C23.4867 17.3704 23.3747 17.4348 23.3171 17.4619C22.6658 17.8109 22.0179 18.16 21.3666 18.509C21.1156 18.6446 20.8341 18.797 20.539 18.8275C20.2133 18.8614 19.8402 18.7462 19.4467 18.4819C19.2839 18.3701 19.1245 18.2447 18.965 18.1227C18.7887 17.9838 18.6089 17.8448 18.4121 17.7194C17.8185 17.3399 17.1367 17.1467 16.4787 16.9536C16.3091 16.9062 16.1428 16.8587 15.9732 16.8079C15.6408 16.7062 15.3287 16.5774 14.976 16.4283C14.7351 16.3233 14.5045 16.1403 14.2976 15.9573C13.4699 15.2423 13.168 14.6018 12.9068 13.6869C12.9 13.6293 12.8898 13.5683 12.8831 13.5107C12.805 12.9617 12.7338 12.389 12.3403 11.9586C12.1775 11.7723 11.974 11.6266 11.7772 11.4876C11.6992 11.43 11.6246 11.3758 11.5466 11.3182C11.204 11.0539 10.9224 10.7353 10.6884 10.366C10.6748 10.3422 10.6748 10.3185 10.6782 10.2982C10.6816 10.2745 10.702 10.2507 10.7257 10.2372C11.1158 10.0203 11.533 9.80004 11.9977 9.65432C12.4082 9.52555 13.0086 9.41373 13.592 9.60688C13.9957 9.73565 14.3518 9.99997 14.6944 10.2575C15.2813 10.6879 15.8647 11.1182 16.4515 11.552C16.4651 11.613 16.5194 11.6672 16.5872 11.6706C16.6754 11.674 16.75 11.6164 16.7602 11.5317C16.8484 10.7184 17.4997 9.94575 18.4359 9.55944C19.2839 9.20701 20.1964 9.17313 21.2174 9.16635C23.524 9.14602 25.7594 9.21379 27.8624 9.37645C28.0354 9.39001 28.222 9.4205 28.2865 9.52894C28.3645 9.66449 28.2322 9.86442 28.1236 10.0135L28.1202 10.0203Z" fill="#354990"/>
<path d="M15.3864 15.9608H15.3559C14.9794 15.8252 14.7046 15.4525 14.691 15.0526C14.691 14.9916 14.691 14.9239 14.6944 14.8561C14.7046 14.7205 14.708 14.5951 14.6605 14.4901C14.6062 14.3715 14.4875 14.2868 14.3858 14.2122C14.2399 14.1072 14.0974 14.0055 13.9516 13.9039C13.9041 13.87 13.8566 13.8361 13.8057 13.8022C13.8973 14.0326 13.9312 14.2936 13.8871 14.5375C13.8769 14.5816 13.8396 14.6087 13.7955 14.5985C13.7514 14.5951 13.7243 14.5511 13.7345 14.507C13.7887 14.1851 13.7006 13.8327 13.5038 13.5751C13.4801 13.5447 13.4835 13.4972 13.5072 13.4735C13.5377 13.443 13.5784 13.4396 13.609 13.4633C13.7548 13.5684 13.8973 13.67 14.0432 13.7717C14.189 13.8734 14.3383 13.975 14.4773 14.0801C14.5927 14.1614 14.7317 14.2664 14.803 14.4223C14.864 14.568 14.8572 14.7171 14.8471 14.8595C14.8471 14.9205 14.8369 14.9781 14.8437 15.0425C14.8539 15.3779 15.0845 15.6965 15.4068 15.8117C15.4509 15.8252 15.4678 15.8693 15.4543 15.9134C15.4441 15.9472 15.4102 15.9676 15.383 15.9608H15.3864Z" fill="white"/>
<path d="M16.265 16.4522H16.2514C16.2073 16.442 16.1802 16.4047 16.1904 16.3607C16.2277 16.1675 16.1463 15.9506 15.9834 15.8422C15.9393 15.8117 15.8919 15.788 15.8444 15.7643C15.7969 15.7405 15.7528 15.7168 15.7087 15.6863C15.5798 15.605 15.5052 15.4898 15.5018 15.3746C15.5018 15.2864 15.5323 15.2153 15.5594 15.1475C15.5696 15.1272 15.5798 15.1035 15.5832 15.0865C15.6069 15.0289 15.6069 14.951 15.573 14.9272C15.5391 14.9035 15.5289 14.8493 15.5594 14.8154C15.5832 14.7815 15.6375 14.7714 15.6714 14.8019C15.7833 14.8832 15.7731 15.0391 15.7324 15.1441C15.7223 15.1678 15.7121 15.1916 15.7019 15.2153C15.6782 15.2695 15.6544 15.3203 15.6578 15.3678C15.6578 15.4593 15.7528 15.5304 15.7969 15.5542C15.8342 15.5779 15.8783 15.6016 15.9156 15.6219C15.9699 15.6524 16.0208 15.6762 16.075 15.7134C16.2853 15.8625 16.3973 16.1404 16.343 16.3946C16.3328 16.4318 16.3057 16.4556 16.2616 16.4488L16.265 16.4522Z" fill="white"/>
<path d="M18.1273 16.9911C18.1273 16.9911 18.0967 16.9911 18.0899 16.9809C17.7677 16.7979 17.5302 16.5099 17.4149 16.1744C17.3335 16.3337 17.2046 16.4692 17.0248 16.5573C17.0045 16.5675 16.9773 16.5675 16.957 16.5573C16.9332 16.5471 16.9197 16.5268 16.9129 16.5031C16.8824 16.3879 16.7874 16.293 16.6924 16.1947C16.6008 16.0998 16.5058 16.0016 16.4516 15.8728C16.4176 15.7948 16.4075 15.7135 16.3939 15.6356C16.3905 15.6017 16.3837 15.5678 16.3736 15.5339C16.3532 15.456 16.3193 15.3577 16.2447 15.3137C16.2073 15.2933 16.1904 15.2459 16.2107 15.2086C16.2311 15.1713 16.2786 15.1544 16.3159 15.1747C16.4176 15.2289 16.4923 15.3441 16.5262 15.5C16.5364 15.5373 16.5398 15.578 16.5465 15.6119C16.5567 15.683 16.5703 15.7508 16.594 15.8084C16.6381 15.9101 16.7128 15.9914 16.801 16.0761C16.8824 16.1642 16.9706 16.2489 17.0282 16.3608C17.2216 16.232 17.3369 16.0253 17.3369 15.8186C17.3369 15.7881 17.3335 15.761 17.3335 15.7372C17.3335 15.6932 17.364 15.6593 17.4047 15.6559C17.4488 15.6525 17.4862 15.6796 17.4929 15.7237C17.4929 15.7542 17.5031 15.7847 17.5031 15.8152C17.5472 16.1812 17.7304 16.5031 18.0119 16.7301C18.0119 16.6149 18.0425 16.4997 18.0832 16.4048C18.151 16.2523 18.2663 16.1202 18.3681 16.0049C18.3817 15.9846 18.4122 15.9744 18.4359 15.9812C18.4597 15.9812 18.4834 15.9948 18.497 16.0185C18.6259 16.2286 18.8769 16.354 19.0872 16.3201C19.1551 16.3099 19.2161 16.2862 19.2839 16.2591C19.328 16.2455 19.3654 16.2252 19.4095 16.215C19.5689 16.1676 19.7351 16.1574 19.8945 16.1812C19.9386 16.1913 19.9658 16.2286 19.9556 16.2727C19.9454 16.3167 19.9081 16.3438 19.864 16.3337C19.7249 16.3099 19.5858 16.3201 19.4502 16.3641C19.4128 16.3777 19.3721 16.3946 19.3348 16.4082C19.2636 16.4387 19.1856 16.4658 19.1042 16.4794C18.8633 16.5166 18.5852 16.398 18.4122 16.1845C18.3342 16.2727 18.2663 16.3608 18.2188 16.4692C18.1646 16.5878 18.1306 16.764 18.1951 16.8725C18.2154 16.903 18.2087 16.9436 18.1849 16.9673C18.1713 16.9809 18.151 16.9911 18.1239 16.9877L18.1273 16.9911Z" fill="white"/>
<path d="M13.3274 10.4136C13.2596 10.3322 13.1544 10.2746 13.0764 10.2407C12.9034 10.173 12.7067 10.1797 12.5235 10.1967C12.3743 10.2102 12.3641 10.356 12.4217 10.4644C12.4794 10.5694 12.5947 10.6237 12.6999 10.6609C12.8186 10.705 12.9509 10.7558 13.0764 10.7761C13.1782 10.7897 13.2867 10.7761 13.3512 10.6948C13.4224 10.6067 13.3885 10.4881 13.3274 10.4102V10.4136Z" fill="white"/>
<path d="M28.5714 9.37987C28.4221 9.10538 28.066 9.07827 27.8964 9.06133C26.2512 8.93595 24.528 8.86479 22.7574 8.85123C22.7235 8.83768 22.6862 8.83768 22.6522 8.85123C22.1807 8.85123 21.7058 8.84784 21.2242 8.85123C20.2032 8.8614 19.2161 8.89867 18.3206 9.26465C17.3911 9.65096 16.7127 10.3863 16.5058 11.1962C15.9665 10.7963 15.4271 10.3965 14.8878 10C14.535 9.74585 14.1415 9.45103 13.6938 9.30871C13.168 9.13927 12.554 9.15621 11.9095 9.35615C11.4177 9.50864 10.9801 9.74585 10.5799 9.96611C10.4781 10.0203 10.4069 10.1152 10.3763 10.227C10.3458 10.3321 10.3628 10.4439 10.4238 10.5388C10.668 10.9387 10.9835 11.2843 11.3532 11.5724C11.4313 11.63 11.5127 11.6876 11.5941 11.7452C11.7806 11.8807 11.9604 12.0095 12.1029 12.1688C12.4048 12.511 12.4828 12.9685 12.554 13.4531C11.6246 13.0092 10.3119 12.4195 9.3214 12.6262C8.73118 12.7516 8.21897 13.06 7.72034 13.3684C7.66267 13.4023 7.60162 13.4395 7.54395 13.4734C4.86422 15.0932 3.05963 16.2894 2.1743 17.0417C2.05558 17.1468 2.00131 17.306 2.03523 17.4585C2.06915 17.6178 2.18448 17.7364 2.33712 17.7805C3.16818 18.0177 4.02977 18.0583 4.76245 18.0753C5.2136 18.0787 5.66814 18.0888 6.11928 18.0888C7.2658 18.0888 8.42589 18.0414 9.55884 17.8279C11.2684 17.506 12.6965 16.8215 13.7209 15.8523C13.8329 15.9675 13.9482 16.0827 14.0805 16.1979C14.301 16.3843 14.5554 16.5978 14.8471 16.7232C15.2032 16.8723 15.5255 17.0112 15.8783 17.1163C16.0479 17.1637 16.2209 17.2112 16.3871 17.2654C17.0214 17.4416 17.6862 17.6348 18.2392 17.9872C18.4223 18.1024 18.5953 18.2413 18.7649 18.3769C18.9243 18.5023 19.0872 18.631 19.2669 18.7462C19.6706 19.014 20.0607 19.1495 20.4203 19.1495C20.4677 19.1495 20.5152 19.1495 20.5661 19.1461C20.9189 19.1088 21.2343 18.9394 21.5125 18.7903C22.1638 18.4413 22.8117 18.0922 23.4629 17.7432C23.5681 17.6856 23.7614 17.5839 23.8055 17.3772C23.8632 17.1027 23.6461 16.8825 23.2187 16.7774C22.9406 16.7062 21.3225 16.1878 20.9223 15.5948C20.6543 15.2017 20.3287 14.8154 20.0166 14.4426C19.7758 14.1546 19.5247 13.8563 19.3043 13.5581C22.6014 14.812 26.2546 12.7686 28.3577 10.2203C28.6257 9.89834 28.6935 9.61369 28.568 9.38326L28.5714 9.37987ZM27.8726 9.37987C28.0185 9.39003 28.1677 9.41376 28.2525 9.4917C26.9195 9.97289 25.471 10.1355 24.0566 9.98645C24.3754 9.74585 24.6773 9.4917 24.9555 9.2206C25.9459 9.25449 26.9228 9.30871 27.8726 9.37987ZM22.754 9.17316C23.3476 9.17655 23.9344 9.18671 24.5145 9.20704C24.2262 9.46797 23.9277 9.70857 23.6088 9.93223C23.1373 9.86106 22.6692 9.75601 22.2181 9.6103C22.4114 9.48153 22.5878 9.33581 22.7506 9.17316H22.754ZM19.1143 10.9217C19.3077 10.7726 19.5044 10.6439 19.7147 10.5524C19.9013 10.471 20.0946 10.4066 20.2981 10.349C20.7086 10.6134 21.1597 10.8302 21.6516 10.9929C21.5837 11.0234 21.5125 11.0505 21.4447 11.081C21.4141 11.0776 21.387 11.0776 21.3565 11.0844C21.231 11.1318 21.058 11.1962 20.8612 11.2674C20.7357 11.3148 20.5966 11.3623 20.4576 11.4165C19.9996 11.2809 19.5519 11.1183 19.1143 10.9217ZM19.9759 11.5961C19.9521 11.6062 19.9216 11.6164 19.8979 11.63C19.864 11.6435 19.8266 11.6605 19.7927 11.674C19.7215 11.7045 19.6435 11.7316 19.5722 11.7621C19.518 11.7858 19.4603 11.8163 19.3992 11.8502C19.2229 11.9316 19.0668 12.0197 18.9617 12.0942C18.5512 12.3924 18.2493 12.8431 18.1103 13.3548C17.9847 13.2362 17.8457 13.0871 17.7677 12.9787C17.9644 12.406 18.1951 11.9451 18.4766 11.5791C18.5919 11.4266 18.7208 11.2843 18.8531 11.1555C19.2195 11.325 19.5926 11.4741 19.9793 11.5995L19.9759 11.5961ZM20.7221 10.2372C20.9325 10.183 21.1495 10.1254 21.3632 10.0508C21.5362 9.98983 21.7058 9.90512 21.8687 9.8204C22.313 9.97289 22.7676 10.0983 23.2289 10.1864C22.8625 10.4168 22.4826 10.6235 22.0925 10.8065C21.5973 10.671 21.136 10.4812 20.7221 10.2406V10.2372ZM11.1395 10.9454C10.9767 10.7726 10.8275 10.5795 10.6952 10.3728C10.6816 10.349 10.6816 10.3253 10.685 10.305C10.6884 10.2813 10.7088 10.2575 10.7325 10.244C10.9292 10.1322 11.1429 10.0237 11.3566 9.91867C11.438 10.2711 11.3566 10.6574 11.1362 10.9488L11.1395 10.9454ZM7.89333 13.6361C8.36822 13.348 8.85668 13.0498 9.39602 12.938C10.3356 12.7415 11.6925 13.3887 12.5812 13.8191C12.5981 13.8258 12.6117 13.836 12.6287 13.8428C12.6524 13.9309 12.6762 14.0122 12.7067 14.0936C12.2827 14.2054 11.8315 14.2189 11.394 14.2054C10.1796 14.1681 8.9788 13.9885 7.80514 13.6971C7.83567 13.6801 7.86281 13.6632 7.89673 13.6395L7.89333 13.6361ZM12.8525 14.5036C12.934 14.7001 13.0221 14.8933 13.1307 15.0763C12.934 15.1 12.7406 15.1237 12.5439 15.1474C12.6626 14.9204 12.7711 14.7035 12.8525 14.5036ZM9.62668 14.3545C9.89126 14.3884 10.1525 14.4223 10.417 14.446C10.2542 14.7001 10.0405 15.0119 9.79629 15.344C9.49778 15.3542 9.19928 15.3643 8.90078 15.3643C9.17554 14.9983 9.42655 14.6527 9.62668 14.3545ZM8.5073 15.3711C8.25289 15.3711 7.9917 15.3711 7.7373 15.3609C8.04937 14.9611 8.31395 14.5578 8.51069 14.1749C8.7651 14.2291 9.0195 14.2765 9.28069 14.3138C9.07038 14.6324 8.79902 14.995 8.5073 15.3711ZM10.7698 14.4697C10.9733 14.4833 11.1803 14.5036 11.3804 14.507H11.5161C11.3872 14.7272 11.221 14.9916 11.0412 15.2796C10.7562 15.2999 10.4747 15.3169 10.1898 15.3338C10.4204 15.0119 10.624 14.7103 10.7732 14.4697H10.7698ZM11.8824 14.5138C12.0995 14.5104 12.32 14.49 12.5371 14.4528C12.4353 14.6832 12.3064 14.934 12.1673 15.1915C11.9265 15.2152 11.6823 15.2355 11.4414 15.2593C11.6178 14.9814 11.7739 14.7272 11.8858 14.5138H11.8824ZM7.79157 14.0088C7.92726 14.0427 8.05615 14.0766 8.19184 14.1037C7.98153 14.5036 7.68303 14.9306 7.34382 15.3474C7.10298 15.3372 6.86893 15.327 6.62809 15.3135C7.07245 14.8763 7.4795 14.429 7.79157 14.0055V14.0088ZM7.42523 13.9241C7.42523 13.9241 7.44558 13.9241 7.45576 13.9343C7.11316 14.3782 6.67219 14.8391 6.20069 15.2932C5.91237 15.2728 5.62404 15.2491 5.33571 15.222C5.95646 14.8289 6.64845 14.3952 7.42862 13.9241H7.42523ZM2.42871 17.4856C2.37104 17.4653 2.35069 17.4179 2.3473 17.3975C2.3473 17.3738 2.33712 17.3264 2.38461 17.2823C2.90021 16.8452 3.74822 16.2454 4.90153 15.4931C5.22717 15.527 5.5562 15.5541 5.88184 15.5846C5.00668 16.3979 4.0569 17.1569 3.38527 17.672C3.06642 17.628 2.74417 17.5771 2.42871 17.4856ZM4.77941 17.7635C4.4843 17.7601 4.16884 17.7432 3.83981 17.7195C4.55215 17.1671 5.47479 16.408 6.31263 15.6151C6.56704 15.6286 6.82144 15.6456 7.07924 15.6591C6.35673 16.4894 5.50532 17.2755 4.88457 17.7703C4.85065 17.7703 4.81333 17.7703 4.77941 17.7669V17.7635ZM6.44492 17.7737H5.37642C6.03109 17.2213 6.82483 16.4656 7.48289 15.6727C7.74408 15.6829 8.00188 15.6862 8.25629 15.6862C7.61179 16.5097 6.89946 17.3365 6.44153 17.7737H6.44492ZM6.89607 17.7703C7.39809 17.2518 8.06633 16.4589 8.65655 15.693C8.95505 15.693 9.25355 15.6829 9.55206 15.6795C8.96523 16.4589 8.28003 17.2755 7.80514 17.7364C7.50325 17.7567 7.19796 17.7703 6.89607 17.7703ZM9.47065 17.5297C9.08056 17.6009 8.68708 17.6551 8.28682 17.689C8.79223 17.1569 9.42655 16.3708 9.95232 15.6591C10.2406 15.649 10.5358 15.6286 10.8241 15.6117C10.3424 16.3369 9.79289 17.1129 9.47065 17.5297ZM9.94215 17.428C10.3017 16.9367 10.8003 16.2318 11.221 15.588C11.472 15.5676 11.723 15.5439 11.9706 15.5202C11.5602 16.2183 11.0853 16.8892 10.8173 17.1773C10.5324 17.2722 10.244 17.3535 9.94215 17.428ZM11.4041 16.9672C11.706 16.5639 12.0588 16.0217 12.3607 15.4863C12.6829 15.4524 13.0052 15.4084 13.324 15.3677C13.3851 15.4558 13.4495 15.5405 13.5208 15.6286C12.9441 16.1776 12.225 16.6249 11.4041 16.9706V16.9672ZM19.2364 18.3362C19.1448 18.2684 19.0566 18.2007 18.9718 18.1295C18.809 18.0007 18.6394 17.8686 18.4562 17.75C18.6937 17.7161 18.9243 17.6585 19.138 17.5873C19.3348 17.7703 19.5485 17.9397 19.7622 18.0956C19.5892 18.1769 19.4094 18.2583 19.233 18.3362H19.2364ZM19.4874 17.4721C19.4874 17.4721 19.5247 17.4585 19.5451 17.4518C19.83 17.3467 20.1421 17.2213 20.4338 17.0417C20.5831 17.1908 20.7357 17.3298 20.9053 17.4585C20.6407 17.6314 20.366 17.794 20.081 17.9397C19.8741 17.794 19.6774 17.6381 19.484 17.4687L19.4874 17.4721ZM20.5458 18.8377C20.2439 18.8716 19.9047 18.7666 19.5451 18.5429C19.7181 18.4718 19.8877 18.3904 20.0539 18.3057C20.3083 18.4752 20.5729 18.6243 20.8477 18.7564C20.7459 18.7903 20.6441 18.8174 20.5458 18.8344V18.8377ZM21.3666 18.5192C21.3192 18.5429 21.2649 18.5734 21.2174 18.5971C20.9223 18.4616 20.6441 18.3125 20.3762 18.1397C20.6509 17.9906 20.9189 17.8279 21.1801 17.6551C21.465 17.8415 21.7669 18.0075 22.0892 18.1261C21.8483 18.2549 21.6075 18.387 21.3666 18.5192ZM23.1475 17.0858C23.334 17.1332 23.524 17.2247 23.5036 17.3162C23.4901 17.3772 23.3781 17.4416 23.3205 17.4687C23.0355 17.6212 22.754 17.7737 22.4691 17.9262C22.1129 17.8144 21.7771 17.6585 21.4616 17.4653C21.7499 17.2586 22.0349 17.0383 22.3029 16.8011C22.7642 16.9773 23.1407 17.0858 23.1441 17.0858H23.1475ZM21.214 16.2657C21.4447 16.4148 21.716 16.5504 21.9738 16.6656C21.7228 16.8825 21.4582 17.0824 21.1903 17.2722C21.0173 17.1468 20.8544 17.0078 20.7052 16.8587C20.7255 16.8452 20.7493 16.8282 20.7662 16.8113C20.9426 16.6588 21.0919 16.469 21.214 16.2691V16.2657ZM19.7825 14.6425C20.0912 15.0119 20.4067 15.3914 20.6679 15.771C20.7391 15.876 20.8409 15.9777 20.9562 16.0726C20.851 16.2555 20.7188 16.4284 20.5559 16.5639C20.2303 16.8418 19.8063 17.0112 19.4332 17.1502C18.982 17.3196 18.4529 17.4958 17.9271 17.4518C17.4658 17.2349 16.9637 17.0959 16.4787 16.957C16.3091 16.9096 16.1429 16.8621 15.9732 16.8113C15.6408 16.7096 15.3288 16.5809 14.976 16.4318C14.7351 16.3267 14.5045 16.1437 14.2976 15.9607C13.4699 15.2457 13.168 14.6053 12.9068 13.6903C12.9 13.6327 12.8899 13.5717 12.8831 13.5141C12.8051 12.9651 12.7338 12.3924 12.3403 11.9621C12.1775 11.7757 11.974 11.63 11.7773 11.491C11.6992 11.4334 11.6246 11.3792 11.5466 11.3216C11.4788 11.2674 11.4177 11.2165 11.3532 11.1589C11.6619 10.7828 11.7705 10.2542 11.6416 9.7899C11.7569 9.74246 11.879 9.69841 11.9977 9.66113C12.4082 9.53236 13.0086 9.42053 13.592 9.61369C13.9957 9.74246 14.3518 10.0068 14.6944 10.2643C15.2813 10.6947 15.8647 11.1251 16.4515 11.5588C16.4651 11.6198 16.5194 11.674 16.5872 11.6774C16.6754 11.6808 16.75 11.6232 16.7602 11.5385C16.8484 10.7252 17.5031 9.95256 18.4359 9.56625C19.2839 9.21382 20.1964 9.17993 21.2174 9.17316H22.2723C21.9636 9.42392 21.6143 9.62047 21.2411 9.75601C21.0139 9.83734 20.773 9.90173 20.539 9.95934C20.2201 10.0407 19.8877 10.1288 19.5756 10.2677C19.0668 10.4981 18.5953 10.8878 18.2154 11.3894C17.9067 11.8028 17.6523 12.3111 17.4352 12.9516C17.4284 12.9753 17.4183 12.9956 17.4115 13.0193C17.4251 13.0397 17.4386 13.06 17.4488 13.0803C17.5743 13.2904 17.944 13.6462 18.1001 13.7682C18.1713 13.8258 18.2425 13.8801 18.3104 13.9377C18.324 13.8496 18.3409 13.7581 18.3545 13.67C18.3918 13.4192 18.48 13.1854 18.5953 12.9719C18.6089 13.1752 18.6971 13.365 18.8701 13.4971C19.1381 13.8868 19.4569 14.2698 19.7859 14.6527L19.7825 14.6425ZM18.9413 13.0532C18.8938 12.9007 18.921 12.711 18.999 12.5788C18.999 12.5754 19.0091 12.5653 19.0125 12.5585C20.1828 12.9007 21.3904 13.0736 22.598 13.0736C23.1814 13.0736 23.7614 13.0295 24.3449 12.9482C22.6183 13.7276 20.7018 13.9275 18.9413 13.0532ZM25.2845 12.4602C23.2967 12.8973 21.231 12.8363 19.2703 12.2908C19.3517 12.2298 19.4433 12.1722 19.5349 12.1281C19.6604 12.0671 19.8029 12.0095 19.9521 11.9451C19.9657 11.9417 19.9827 11.935 19.9895 11.9316C20.1048 11.8841 20.2201 11.8401 20.3355 11.796C20.3795 11.7825 20.4236 11.7655 20.4711 11.7486C21.543 12.0569 22.6658 12.2162 23.7818 12.2162C24.528 12.2162 25.2675 12.1383 26.0002 11.9993C25.7695 12.162 25.5287 12.3213 25.2845 12.4602ZM26.5836 11.5486C24.7757 12.0061 22.8354 12.0061 21.0105 11.5622C21.1936 11.5012 21.37 11.4436 21.5498 11.3758C21.7466 11.3047 21.9399 11.2233 22.1265 11.1352C22.7336 11.2877 23.3815 11.3724 24.0701 11.3724H24.104C25.1861 11.3724 26.2512 11.1793 27.2722 10.9454C27.0518 11.1555 26.8211 11.3623 26.5836 11.552V11.5486ZM28.1203 10.0203C27.9846 10.1898 27.8421 10.3524 27.6929 10.5117C26.5463 10.7963 25.3354 11.0437 24.1074 11.0505H24.0735C23.5545 11.0505 23.0525 11.0031 22.581 10.9116C22.9609 10.715 23.3273 10.4981 23.6766 10.2575C24.1346 10.3185 24.5959 10.3524 25.064 10.3524C26.1529 10.3524 27.2349 10.1694 28.2593 9.81362C28.222 9.88478 28.1711 9.95256 28.1203 10.0203Z" fill="white"/>
<path d="M60.2093 26.5472C59.229 27.4791 57.8518 28.1331 56.1998 28.4448C54.6463 28.7329 53.0316 28.7092 51.4679 28.6854C50.7522 28.6719 49.9177 28.6312 49.1206 28.4076C49.0629 28.3872 49.0426 28.3398 49.0392 28.3195C49.0392 28.2957 49.029 28.2483 49.0765 28.2042C49.9483 27.4655 51.7427 26.2727 54.4054 24.6664C54.4631 24.6292 54.5242 24.5919 54.5818 24.5546C55.0567 24.2666 55.5452 23.9684 56.0845 23.8565C57.0241 23.66 58.3809 24.3072 59.2697 24.7376C59.2866 24.7444 59.3002 24.7545 59.3172 24.7613C59.5139 25.4492 59.7513 26.005 60.2059 26.5438L60.2093 26.5472Z" fill="#354990"/>
<path d="M74.8088 20.9421C72.6752 23.5345 68.893 25.5915 65.6298 23.975C65.5688 23.9412 65.4908 23.9615 65.4433 24.0123C65.3958 24.0598 65.3856 24.1411 65.4229 24.1987C65.7112 24.6663 66.0979 25.1204 66.4677 25.5643C66.7764 25.9337 67.0918 26.3132 67.353 26.6928C67.8788 27.462 69.8123 27.994 69.8326 28.0008C70.0192 28.0483 70.2091 28.1398 70.1888 28.2313C70.1752 28.2922 70.0633 28.3566 70.0056 28.3837C69.3543 28.7328 68.7064 29.0818 68.0552 29.4309C67.8042 29.5664 67.5226 29.7189 67.2275 29.7494C66.9019 29.7833 66.5287 29.6681 66.1353 29.4037C65.9724 29.2919 65.813 29.1665 65.6536 29.0445C65.4772 28.9056 65.2974 28.7667 65.1007 28.6413C64.5071 28.2617 63.8253 28.0686 63.1672 27.8754C62.9976 27.828 62.8314 27.7806 62.6618 27.7297C62.3294 27.6281 62.0173 27.4993 61.6645 27.3502C61.4237 27.2451 61.193 27.0621 60.9861 26.8792C60.1584 26.1641 59.8565 25.5237 59.5953 24.6087C59.5886 24.5477 59.5784 24.4901 59.5716 24.4291C59.4936 23.8802 59.4224 23.3075 59.0289 22.8771C58.8661 22.6907 58.6625 22.545 58.4658 22.4061C58.3878 22.3485 58.3131 22.2942 58.2351 22.2366C57.8925 21.9723 57.611 21.6538 57.3769 21.2844C57.3634 21.2607 57.3634 21.237 57.3668 21.2166C57.3701 21.1929 57.3905 21.1692 57.4142 21.1556C57.8043 20.9388 58.2216 20.7185 58.6863 20.5728C59.0967 20.444 59.6971 20.3322 60.2805 20.5253C60.6842 20.6541 61.0404 20.9184 61.383 21.176C61.9698 21.6063 62.5532 22.0367 63.1401 22.4705C63.1536 22.5315 63.2079 22.5857 63.2757 22.5891C63.3639 22.5924 63.4386 22.5348 63.4487 22.4501C63.5369 21.6368 64.1882 20.8642 65.1244 20.4779C65.9724 20.1255 66.8849 20.095 67.9059 20.0848C70.2125 20.0645 72.4479 20.1322 74.551 20.2949C74.724 20.3085 74.9105 20.339 74.975 20.4474C75.053 20.5829 74.9207 20.7829 74.8122 20.932L74.8088 20.9421Z" fill="#354990"/>
<path d="M62.0749 26.8861H62.0444C61.6679 26.7505 61.3931 26.3778 61.3796 25.9779C61.3796 25.9169 61.3796 25.8491 61.383 25.7814C61.3931 25.6458 61.3965 25.5204 61.349 25.4154C61.2948 25.2968 61.1761 25.2121 61.0743 25.1375C60.9284 25.0325 60.786 24.9308 60.6401 24.8291C60.5926 24.7953 60.5451 24.7614 60.4942 24.7275C60.5858 24.9579 60.6198 25.2188 60.5757 25.4628C60.5655 25.5069 60.5282 25.534 60.4841 25.5238C60.44 25.5204 60.4128 25.4764 60.423 25.4323C60.4773 25.1104 60.3891 24.758 60.1923 24.5004C60.1686 24.4699 60.172 24.4225 60.1957 24.3988C60.2263 24.3683 60.267 24.3649 60.2975 24.3886C60.4434 24.4937 60.5858 24.5953 60.7317 24.697C60.8775 24.7986 61.0268 24.9003 61.1659 25.0054C61.2812 25.0867 61.4203 25.1917 61.4915 25.3476C61.5526 25.4933 61.5458 25.6424 61.5356 25.7848C61.5356 25.8458 61.5254 25.9034 61.5322 25.9677C61.5424 26.3032 61.7731 26.6218 62.0953 26.737C62.1394 26.7505 62.1564 26.7946 62.1428 26.8386C62.1326 26.8725 62.0987 26.8929 62.0716 26.8861H62.0749Z" fill="white"/>
<path d="M62.9534 27.374H62.9398C62.8957 27.3639 62.8686 27.3266 62.8788 27.2825C62.9161 27.0894 62.8347 26.8725 62.6719 26.7641C62.6278 26.7336 62.5803 26.7099 62.5328 26.6861C62.4853 26.6624 62.4412 26.6387 62.3971 26.6082C62.2682 26.5269 62.1936 26.4116 62.1902 26.2964C62.1902 26.2083 62.2207 26.1372 62.2479 26.0694C62.258 26.0491 62.2682 26.0253 62.2716 26.0084C62.2953 25.9508 62.2953 25.8728 62.2614 25.8491C62.2275 25.8254 62.2173 25.7712 62.2479 25.7373C62.2716 25.7034 62.3259 25.6932 62.3598 25.7237C62.4717 25.8051 62.4616 25.9609 62.4208 26.066C62.4107 26.0897 62.4005 26.1134 62.3903 26.1372C62.3666 26.1914 62.3428 26.2422 62.3462 26.2897C62.3462 26.3811 62.4412 26.4523 62.4853 26.476C62.5226 26.4998 62.5667 26.5235 62.604 26.5438C62.6583 26.5743 62.7092 26.598 62.7634 26.6353C62.9738 26.7844 63.0857 27.0623 63.0314 27.3164C63.0212 27.3537 62.9941 27.3774 62.95 27.3706L62.9534 27.374Z" fill="white"/>
<path d="M64.8157 27.9127C64.8157 27.9127 64.7852 27.9127 64.7784 27.9025C64.4562 27.7195 64.2187 27.4315 64.1034 27.096C64.022 27.2553 63.8931 27.3908 63.7133 27.4789C63.693 27.4891 63.6658 27.4891 63.6455 27.4789C63.6217 27.4688 63.6082 27.4484 63.6014 27.4247C63.5708 27.3095 63.4759 27.2146 63.3809 27.1163C63.2893 27.0215 63.1943 26.9232 63.14 26.7944C63.1061 26.7165 63.096 26.6351 63.0824 26.5572C63.079 26.5233 63.0722 26.4894 63.062 26.4555C63.0417 26.3776 63.0078 26.2759 62.9331 26.2353C62.8958 26.2149 62.8789 26.1675 62.8992 26.1302C62.9196 26.093 62.9671 26.076 63.0044 26.0963C63.1061 26.1506 63.1808 26.2658 63.2147 26.4217C63.2249 26.4589 63.2282 26.4996 63.235 26.5335C63.2452 26.6047 63.2588 26.6724 63.2825 26.73C63.3266 26.8317 63.4012 26.913 63.4894 26.9977C63.5708 27.0858 63.659 27.1706 63.7167 27.2824C63.91 27.1536 64.0254 26.9469 64.0254 26.7402C64.0254 26.7097 64.022 26.6826 64.022 26.6589C64.022 26.6148 64.0525 26.5809 64.0932 26.5775C64.1373 26.5742 64.1746 26.6013 64.1814 26.6453C64.1814 26.6758 64.1916 26.7063 64.1916 26.7368C64.2357 27.1028 64.4189 27.4247 64.7004 27.6518C64.7004 27.5365 64.7309 27.4213 64.7716 27.3264C64.8395 27.174 64.9548 27.0418 65.0566 26.9266C65.0701 26.9062 65.1007 26.8961 65.1244 26.9029C65.1482 26.9029 65.1719 26.9164 65.1855 26.9401C65.3144 27.1502 65.5654 27.2756 65.7791 27.2417C65.8469 27.2316 65.908 27.2078 65.9758 27.1807C66.0199 27.1672 66.0572 27.1468 66.1013 27.1367C66.2608 27.0892 66.427 27.0791 66.5864 27.1028C66.6305 27.113 66.6576 27.1502 66.6474 27.1943C66.6373 27.2383 66.6 27.2654 66.5559 27.2553C66.4168 27.2316 66.2777 27.2417 66.142 27.2858C66.1047 27.2993 66.064 27.3163 66.0267 27.3298C65.9555 27.3603 65.8774 27.3874 65.796 27.401C65.5552 27.4383 65.2771 27.3197 65.1041 27.1062C65.026 27.1943 64.9582 27.2824 64.9107 27.3908C64.8564 27.5094 64.8225 27.6856 64.887 27.7941C64.9073 27.8246 64.9005 27.8652 64.8768 27.889C64.8632 27.9025 64.8429 27.9127 64.8157 27.9093V27.9127Z" fill="white"/>
<path d="M60.0125 21.3352C59.9446 21.2539 59.8395 21.1963 59.7615 21.1624C59.5885 21.0946 59.3917 21.1014 59.2086 21.1183C59.0593 21.1319 59.0491 21.2776 59.1068 21.386C59.1645 21.4911 59.2798 21.5453 59.385 21.5826C59.5037 21.6266 59.636 21.6774 59.7615 21.6978C59.8632 21.7113 59.9718 21.6978 60.0362 21.6165C60.1075 21.5283 60.0735 21.4097 60.0125 21.3318V21.3352Z" fill="white"/>
<path d="M75.2565 20.3017C75.1072 20.0273 74.7511 20.0001 74.5815 19.9832C72.9363 19.8578 71.2131 19.7867 69.4425 19.7731C69.4086 19.7596 69.3712 19.7596 69.3373 19.7731C68.8658 19.7731 68.3909 19.7697 67.9093 19.7731C66.8882 19.7833 65.9011 19.8205 65.009 20.1865C64.0796 20.5695 63.4012 21.3082 63.1943 22.1181C62.6549 21.7182 62.1156 21.3184 61.5763 20.9219C61.2235 20.6677 60.83 20.3729 60.3823 20.2306C59.8565 20.0611 59.2425 20.0781 58.598 20.278C58.1062 20.4305 57.6686 20.6677 57.2683 20.888C57.1666 20.9422 57.0953 21.0371 57.0648 21.1489C57.0343 21.254 57.0512 21.3658 57.1123 21.4607C57.3565 21.8605 57.672 22.2062 58.0417 22.4942C58.1197 22.5518 58.2012 22.6095 58.2826 22.6671C58.4691 22.8026 58.6489 22.9314 58.7914 23.0906C59.0933 23.4329 59.1713 23.8904 59.2425 24.375C58.3131 23.931 57.0004 23.3414 56.0099 23.5481C55.4197 23.6735 54.9074 23.9819 54.4088 24.2869C54.3511 24.3207 54.2901 24.358 54.2324 24.3919C51.5527 26.0117 49.7481 27.2079 48.8628 27.9602C48.7441 28.0653 48.6898 28.2245 48.7237 28.377C48.7576 28.5363 48.873 28.6549 49.0256 28.699C49.8567 28.9362 50.7182 28.9768 51.4509 28.9938C51.9021 28.9972 52.3566 29.0073 52.8078 29.0073C53.9543 29.0073 55.1144 28.9599 56.2473 28.7464C57.9569 28.4245 59.385 27.74 60.4094 26.7708C60.5213 26.886 60.6367 27.0012 60.7689 27.1164C60.9894 27.3028 61.2438 27.5163 61.5356 27.6417C61.8917 27.7908 62.214 27.9297 62.5667 28.0348C62.7363 28.0822 62.9093 28.1297 63.0756 28.1839C63.7099 28.3635 64.3747 28.5532 64.9276 28.9057C65.1108 29.0209 65.2838 29.1598 65.4534 29.2954C65.6128 29.4207 65.7756 29.5495 65.9554 29.6647C66.3591 29.9324 66.7492 30.068 67.1087 30.068C67.1562 30.068 67.2037 30.068 67.2546 30.0646C67.6074 30.0273 67.9228 29.8579 68.201 29.7088C68.8523 29.3598 69.5001 29.0107 70.1514 28.6617C70.2566 28.6041 70.4499 28.5024 70.494 28.2957C70.5517 28.0212 70.3346 27.8009 69.9072 27.6959C69.629 27.6247 68.011 27.1029 67.6108 26.5132C67.3428 26.1201 67.0171 25.7338 66.7051 25.3611C66.4642 25.073 66.2132 24.7748 65.9927 24.4766C69.2898 25.7304 72.9431 23.6871 75.0462 21.1388C75.3141 20.8168 75.382 20.5322 75.2565 20.3017ZM74.5611 20.3017C74.707 20.3119 74.8562 20.3356 74.941 20.4136C73.6079 20.8948 72.1595 21.0574 70.745 20.9083C71.0639 20.6677 71.3658 20.4136 71.6439 20.1425C72.6344 20.1764 73.6113 20.2306 74.5611 20.3017ZM69.4391 20.0916C70.0327 20.095 70.6195 20.1052 71.1996 20.1255C70.9112 20.3865 70.6127 20.6271 70.2939 20.8507C69.8224 20.7796 69.3543 20.6745 68.9031 20.5288C69.0965 20.4 69.2729 20.2543 69.4357 20.0916H69.4391ZM65.8028 21.8402C65.9961 21.6911 66.1929 21.5623 66.4032 21.4708C66.5897 21.3895 66.7831 21.3251 66.9866 21.2675C67.3971 21.5318 67.8482 21.7487 68.34 21.9114C68.2722 21.9419 68.201 21.969 68.1331 21.9995C68.1026 21.9961 68.0755 21.9961 68.0449 22.0029C67.9194 22.0503 67.7464 22.1147 67.5497 22.1859C67.4242 22.2333 67.2851 22.2807 67.146 22.335C66.6881 22.1994 66.2404 22.0368 65.8028 21.8402ZM66.6644 22.5146C66.6406 22.5247 66.6101 22.5349 66.5864 22.5485C66.5524 22.562 66.5151 22.579 66.4812 22.5925C66.41 22.623 66.3319 22.6501 66.2607 22.6806C66.2064 22.7043 66.1488 22.7348 66.0877 22.7687C65.9113 22.8501 65.7553 22.9382 65.6501 23.0127C65.2397 23.3109 64.9378 23.7616 64.7987 24.2733C64.6732 24.1547 64.5341 24.0056 64.4561 23.8972C64.6529 23.3245 64.8835 22.8636 65.1651 22.4976C65.2804 22.3451 65.4093 22.2028 65.5416 22.074C65.9079 22.2435 66.2811 22.3926 66.6678 22.518L66.6644 22.5146ZM67.4072 21.1591C67.6175 21.1049 67.8346 21.0473 68.0483 20.9727C68.2213 20.9117 68.3909 20.827 68.5538 20.7423C68.9981 20.8948 69.4526 21.0201 69.9174 21.1083C69.551 21.3387 69.1711 21.5454 68.781 21.7284C68.2858 21.5928 67.8245 21.4031 67.4106 21.1625L67.4072 21.1591ZM57.8314 21.8707C57.6686 21.6979 57.5193 21.5047 57.3871 21.298C57.3735 21.2743 57.3735 21.2506 57.3769 21.2302C57.3803 21.2065 57.4006 21.1828 57.4244 21.1693C57.6211 21.0574 57.8348 20.949 58.0485 20.8439C58.1299 21.1964 58.0485 21.5827 57.828 21.8741L57.8314 21.8707ZM54.5784 24.558C55.0533 24.2699 55.5418 23.9717 56.0811 23.8599C57.0207 23.6633 58.3775 24.3106 59.2663 24.7409C59.2832 24.7477 59.2968 24.7579 59.3138 24.7647C59.3375 24.8528 59.3612 24.9341 59.3918 25.0154C58.9678 25.1273 58.5166 25.1408 58.079 25.1273C56.8647 25.09 55.6639 24.9104 54.4902 24.619C54.5208 24.602 54.5479 24.5851 54.5818 24.5613L54.5784 24.558ZM59.5444 25.4221C59.6258 25.6186 59.714 25.8118 59.8226 25.9948C59.6258 26.0185 59.4325 26.0422 59.2357 26.0659C59.3545 25.8389 59.463 25.622 59.5444 25.4221ZM56.3118 25.2798C56.5763 25.3136 56.8375 25.3475 57.1021 25.3712C56.9393 25.6254 56.7256 25.9372 56.4814 26.2693C56.1829 26.2794 55.8844 26.2896 55.5859 26.2896C55.8606 25.9236 56.1116 25.578 56.3118 25.2798ZM55.1958 26.2896C54.9414 26.2896 54.6802 26.2896 54.4258 26.2794C54.7378 25.8796 55.0024 25.4763 55.1992 25.0934C55.4536 25.1476 55.708 25.195 55.9692 25.2323C55.7589 25.5508 55.4875 25.9134 55.1958 26.2896ZM57.4549 25.395C57.6584 25.4085 57.8653 25.4289 58.0655 25.4322H58.2012C58.0723 25.6525 57.906 25.9168 57.7263 26.2049C57.4413 26.2252 57.1598 26.2421 56.8749 26.2591C57.1055 25.9372 57.309 25.6356 57.4583 25.395H57.4549ZM58.5675 25.4322C58.7846 25.4289 59.0051 25.4085 59.2222 25.3712C59.1204 25.6017 58.9915 25.8524 58.8524 26.11C58.6116 26.1337 58.3674 26.154 58.1265 26.1778C58.3029 25.8999 58.4589 25.6457 58.5709 25.4322H58.5675ZM54.4767 24.9273C54.6123 24.9612 54.7412 24.9951 54.8769 25.0222C54.6666 25.4221 54.3681 25.8491 54.0289 26.2659C53.7881 26.2557 53.554 26.2455 53.3132 26.232C53.7575 25.7948 54.1646 25.3475 54.4767 24.9239V24.9273ZM54.1103 24.8426C54.1103 24.8426 54.1307 24.8426 54.1408 24.8528C53.7982 25.2967 53.3573 25.7576 52.8858 26.2116C52.5975 26.1913 52.3091 26.1676 52.0208 26.1405C52.6415 25.7474 53.3335 25.3136 54.1137 24.8426H54.1103ZM49.1206 28.4041C49.0629 28.3838 49.0426 28.3364 49.0392 28.316C49.0392 28.2923 49.029 28.2449 49.0765 28.2008C49.5921 27.7637 50.4367 27.1639 51.5934 26.4116C51.919 26.4455 52.2481 26.4726 52.5737 26.5031C51.6986 27.3164 50.7488 28.0754 50.0771 28.5905C49.7583 28.5465 49.436 28.4956 49.1206 28.4041ZM51.4713 28.682C51.1762 28.6786 50.8607 28.6617 50.5317 28.638C51.244 28.0856 52.1667 27.3265 53.0045 26.5336C53.2589 26.5471 53.5133 26.5641 53.7711 26.5776C53.0486 27.4079 52.1972 28.194 51.5764 28.6888C51.5425 28.6888 51.5052 28.6888 51.4713 28.6854V28.682ZM53.1334 28.6956H52.0649C52.7196 28.1432 53.5133 27.3875 54.1714 26.5946C54.4326 26.6047 54.6904 26.6081 54.9448 26.6081C54.3003 27.4316 53.5879 28.2584 53.13 28.6956H53.1334ZM53.5879 28.6888C54.09 28.1703 54.7582 27.3774 55.3484 26.6115C55.6469 26.6115 55.9454 26.6013 56.2439 26.598C55.6571 27.3774 54.9719 28.194 54.497 28.6549C54.1951 28.6752 53.8898 28.6888 53.5879 28.6888ZM56.1557 28.4516C55.7656 28.5227 55.3722 28.577 54.9719 28.6108C55.4773 28.0788 56.1116 27.2926 56.6374 26.581C56.9257 26.5708 57.2208 26.5505 57.5092 26.5336C57.0275 27.2588 56.478 28.0348 56.1557 28.4516ZM56.634 28.3499C56.9936 27.8586 57.4922 27.1537 57.9128 26.5099C58.1638 26.4895 58.4149 26.4658 58.6625 26.4421C58.252 27.1401 57.7771 27.8111 57.5092 28.0992C57.2242 28.194 56.9359 28.2788 56.634 28.3499ZM58.0926 27.8857C58.3945 27.4824 58.7473 26.9402 59.0492 26.4048C59.3714 26.3709 59.6937 26.3269 60.0125 26.2862C60.0736 26.3743 60.138 26.459 60.2093 26.5471C59.6326 27.0961 58.9135 27.5434 58.0926 27.8891V27.8857ZM65.9215 29.2581C65.8299 29.1903 65.7451 29.1225 65.6569 29.0514C65.4941 28.9226 65.3245 28.7904 65.1413 28.6718C65.3788 28.638 65.6094 28.5803 65.8231 28.5092C66.0199 28.6922 66.2336 28.8616 66.4473 29.0175C66.2743 29.0988 66.0945 29.1801 65.9181 29.2581H65.9215ZM66.1725 28.394C66.1725 28.394 66.2098 28.3804 66.2302 28.3736C66.5151 28.2686 66.8272 28.1432 67.1189 27.9636C67.2682 28.1127 67.4208 28.2516 67.5904 28.3804C67.3258 28.5532 67.0511 28.7159 66.7661 28.8616C66.5592 28.7159 66.3625 28.56 66.1691 28.3906L66.1725 28.394ZM67.2308 29.7596C66.9289 29.7935 66.5897 29.6885 66.2302 29.4648C66.4032 29.3936 66.5728 29.3123 66.739 29.2276C66.9934 29.397 67.258 29.5461 67.5327 29.6783C67.431 29.7122 67.3292 29.7393 67.2308 29.7562V29.7596ZM68.0551 29.4411C68.0076 29.4648 67.9534 29.4953 67.9059 29.519C67.6108 29.3835 67.3326 29.2344 67.0646 29.0615C67.3394 28.9124 67.6074 28.7498 67.8686 28.577C68.1535 28.7633 68.4554 28.9294 68.7776 29.048C68.5368 29.1768 68.296 29.3089 68.0551 29.4411ZM69.8326 28.011C70.0191 28.0585 70.2091 28.15 70.1887 28.2415C70.1752 28.3025 70.0632 28.3669 70.0056 28.394C69.7206 28.5465 69.4391 28.699 69.1541 28.8514C68.798 28.7396 68.4622 28.5837 68.1467 28.3906C68.435 28.1839 68.72 27.9636 68.9879 27.7264C69.4493 27.906 69.8258 28.011 69.8292 28.011H69.8326ZM67.8991 27.1876C68.1297 27.3367 68.4011 27.4722 68.6589 27.5875C68.4079 27.8043 68.1433 28.0043 67.8753 28.194C67.7023 28.0687 67.5395 27.9297 67.3903 27.7806C67.4106 27.7671 67.4344 27.7501 67.4513 27.7332C67.6277 27.5807 67.777 27.3909 67.8991 27.191V27.1876ZM66.471 25.5678C66.7797 25.9372 67.0952 26.3167 67.3564 26.6962C67.4276 26.8013 67.5293 26.9029 67.6447 26.9978C67.5395 27.1808 67.4072 27.3536 67.2444 27.4892C66.9188 27.7671 66.4948 27.9365 66.1216 28.0754C65.6705 28.2449 65.1413 28.4211 64.6156 28.377C64.1542 28.1601 63.6522 28.0212 63.1671 27.8823C62.9975 27.8348 62.8313 27.7874 62.6617 27.7366C62.3293 27.6349 62.0172 27.5061 61.6645 27.357C61.4236 27.252 61.193 27.069 60.986 26.886C60.1584 26.171 59.8565 25.5305 59.5953 24.6156C59.5885 24.5546 59.5783 24.497 59.5715 24.4394C59.4935 23.8904 59.4223 23.3177 59.0288 22.8873C58.866 22.7009 58.6625 22.5552 58.4657 22.4163C58.3877 22.3587 58.3131 22.3045 58.2351 22.2469C58.1672 22.1926 58.1062 22.1418 58.0417 22.0842C58.3504 21.7081 58.459 21.1794 58.3301 20.7152C58.4454 20.6677 58.5675 20.6237 58.6862 20.5864C59.0967 20.4576 59.6971 20.3458 60.2805 20.539C60.6841 20.6677 61.0403 20.932 61.3829 21.1896C61.9697 21.6199 62.5532 22.0503 63.14 22.4841C63.1536 22.5451 63.2078 22.5993 63.2757 22.6027C63.3639 22.6061 63.4385 22.5485 63.4487 22.4637C63.5369 21.6504 64.1882 20.8778 65.1244 20.4915C65.9724 20.1391 66.8849 20.1052 67.9059 20.0984H68.9608C68.6521 20.3492 68.3027 20.5457 67.9296 20.6813C67.7023 20.7626 67.4615 20.827 67.2275 20.8846C66.9086 20.9659 66.5762 21.054 66.2641 21.193C65.7553 21.4234 65.2838 21.8131 64.9039 22.3146C64.5952 22.7281 64.3408 23.2364 64.1237 23.8768C64.1169 23.9005 64.1067 23.9209 64.1 23.9446C64.1135 23.9649 64.1271 23.9853 64.1373 24.0056C64.2628 24.2157 64.6325 24.5715 64.7886 24.6935C64.8598 24.7511 64.931 24.8053 64.9989 24.8629C65.0124 24.7748 65.0294 24.6833 65.043 24.5952C65.0803 24.3445 65.1685 24.1106 65.2838 23.8972C65.2974 24.1005 65.3856 24.2902 65.5586 24.4224C65.8265 24.8121 66.1454 25.195 66.4744 25.5746L66.471 25.5678ZM65.6332 23.9751C65.5857 23.8226 65.6128 23.6328 65.6908 23.5007C65.6908 23.4973 65.701 23.4871 65.7044 23.4803C66.8747 23.8226 68.0823 23.9954 69.2898 23.9954C69.8733 23.9954 70.4533 23.9514 71.0367 23.8701C69.3102 24.6495 67.3937 24.8494 65.6332 23.9751ZM71.9696 23.3787C69.9818 23.8158 67.916 23.7548 65.9554 23.2093C66.0368 23.1483 66.1284 23.0906 66.22 23.0466C66.3455 22.9856 66.488 22.928 66.6372 22.8636C66.6508 22.8602 66.6678 22.8534 66.6745 22.85C66.7899 22.8026 66.9052 22.7586 67.0205 22.7145C67.0646 22.7009 67.1087 22.684 67.1562 22.6671C68.2281 22.9754 69.3509 23.1347 70.4669 23.1347C71.2131 23.1347 71.9526 23.0568 72.6853 22.9178C72.4546 23.0805 72.2138 23.2397 71.9696 23.3787ZM73.2687 22.4705C71.4608 22.928 69.5205 22.928 67.6956 22.4841C67.8787 22.4231 68.0551 22.3655 68.2349 22.2977C68.4316 22.2265 68.625 22.1452 68.8115 22.0571C69.4187 22.2096 70.0666 22.2943 70.7552 22.2943H70.7891C71.8712 22.2943 72.9363 22.1011 73.9573 21.8673C73.7368 22.0774 73.5062 22.2841 73.2687 22.4739V22.4705ZM74.8087 20.9422C74.673 21.1116 74.5306 21.2743 74.3813 21.4336C73.2348 21.7182 72.0238 21.9656 70.7959 21.9724H70.762C70.243 21.9724 69.741 21.9249 69.2695 21.8334C69.6494 21.6369 70.0157 21.42 70.3651 21.1794C70.823 21.2404 71.2844 21.2743 71.7525 21.2743C72.8413 21.2743 73.9234 21.0913 74.9478 20.7355C74.9105 20.8067 74.8596 20.8744 74.8087 20.9422Z" fill="white"/>
<path d="M21.8008 50.1122C20.1591 51.7523 20.3795 55.0529 22.4351 59.4006C24.4772 63.7212 28.0762 68.584 32.574 73.0774C39.8738 80.3699 47.7909 84.9142 52.4923 84.9142C53.788 84.9142 54.8362 84.5685 55.5621 83.8434C58.2147 81.1934 55.7724 74.233 50.0669 66.8524H50.0703C50.0703 66.8524 50.0568 66.8321 50.0466 66.8287C48.5168 64.8531 46.7495 62.8436 44.7855 60.8815C35.4777 51.5829 25.1658 46.7574 21.7974 50.1122H21.8008ZM40.3147 57.015C39.7415 57.0014 39.1682 56.9845 38.5882 56.9845C38.0081 56.9845 37.4349 56.9947 36.865 57.0082C37.4383 56.5338 38.0149 56.0695 38.5882 55.629C39.1648 56.0729 39.7415 56.5338 40.3147 57.015ZM38.4525 55.5273C37.8351 55.9984 37.2212 56.4999 36.6004 57.0184C36 57.0387 35.403 57.0658 34.8094 57.0997C35.7151 56.3067 36.6242 55.5578 37.5332 54.8462C37.8351 55.0665 38.1438 55.2969 38.4525 55.5273ZM37.3942 54.7412C36.4376 55.4867 35.4844 56.2796 34.5414 57.1167C33.2762 57.1946 32.0381 57.3098 30.8407 57.4589C31.1867 55.2766 31.648 53.2603 32.2043 51.4812C33.8834 52.3623 35.6303 53.4636 37.3976 54.7412H37.3942ZM32.0652 51.4101C31.4988 53.2163 31.0273 55.2596 30.6745 57.4826C30.2878 57.5301 29.9079 57.5843 29.5347 57.6419C29.9045 55.1885 30.4201 52.9214 31.0544 50.9119C31.3902 51.0712 31.7294 51.2372 32.0652 51.4135V51.4101ZM21.9195 50.2274C22.6115 49.5361 23.6224 49.1905 24.8978 49.1905C26.509 49.1905 28.5443 49.7428 30.9051 50.8442C30.2606 52.8842 29.7349 55.1817 29.3617 57.6656C26.8754 58.0418 24.5721 58.5636 22.5335 59.2143C20.5661 54.9919 20.349 51.8066 21.9229 50.2274H21.9195ZM22.598 59.3498C26.9568 57.9808 32.5266 57.1539 38.5848 57.1539C39.2361 57.1539 39.8806 57.1675 40.5183 57.1878C40.9626 57.5572 41.4002 57.9367 41.8378 58.3264C40.8168 58.279 39.7788 58.2485 38.7205 58.2485C32.747 58.2485 27.2858 59.0482 23.1 60.363C22.9236 60.0208 22.754 59.6853 22.598 59.3498ZM30.6304 58.9296C31.3461 58.8381 32.0788 58.7568 32.8251 58.689C32.4112 59.0821 31.9974 59.4786 31.5836 59.8852C31.1731 60.2953 30.7762 60.7019 30.3862 61.1153C30.454 60.3698 30.5354 59.6378 30.6304 58.9262V58.9296ZM30.2064 61.3017C29.7925 61.7456 29.3889 62.1862 28.992 62.6301C29.0734 61.4271 29.1786 60.2512 29.3244 59.1092C29.6942 59.0516 30.0741 58.9974 30.4608 58.9465C30.359 59.7124 30.2776 60.4986 30.2064 61.3017ZM23.1712 60.4986C24.9521 59.9462 26.9669 59.4854 29.1582 59.1363C29.009 60.3325 28.8936 61.5626 28.8122 62.83C27.971 63.7822 27.1806 64.7378 26.4344 65.6901C25.1556 63.9246 24.0532 62.1794 23.1712 60.4986ZM26.5362 65.8256C28.0728 63.8534 29.8027 61.8913 31.6989 59.9971C32.1568 59.5396 32.6181 59.099 33.0862 58.6619C33.6697 58.6077 34.2565 58.567 34.8535 58.5331C34.0258 59.2786 33.1982 60.058 32.3807 60.8747C30.4506 62.8029 28.7173 64.7751 27.201 66.7202C26.9737 66.422 26.7532 66.1238 26.5362 65.8256ZM28.7173 68.6044C28.2322 68.0215 27.7607 67.4353 27.3129 66.849C27.7607 66.2729 28.2322 65.6901 28.724 65.1072C28.7105 65.6901 28.6935 66.2763 28.6935 66.8727C28.6935 67.4691 28.7071 68.0283 28.7173 68.6044ZM30.0266 70.1293C29.6365 69.6921 29.2566 69.2482 28.8869 68.8077C28.8665 68.1672 28.8529 67.5301 28.8529 66.8761C28.8529 66.2221 28.8665 65.5545 28.8903 64.9039C29.2668 64.46 29.6569 64.0161 30.0503 63.5721C29.9893 64.6972 29.9486 65.8426 29.9486 67.0083C29.9486 68.0656 29.9791 69.0991 30.0266 70.1293ZM36.8141 76.7406C37.401 76.7542 37.9878 76.7711 38.5848 76.7711C39.1818 76.7711 39.7686 76.761 40.3521 76.7474C39.7652 77.2422 39.1716 77.7132 38.5848 78.1707C37.9946 77.7132 37.4043 77.2422 36.8141 76.744V76.7406ZM38.7205 78.2689C39.3514 77.7776 39.9823 77.2693 40.6166 76.7339C41.2035 76.7135 41.7869 76.6898 42.3636 76.6559C41.4477 77.459 40.5284 78.2181 39.6058 78.9331C39.3107 78.7163 39.0122 78.4892 38.7205 78.2656V78.2689ZM39.7449 79.0382C40.7116 78.2825 41.6784 77.4862 42.6315 76.639C43.9171 76.5577 45.162 76.4357 46.3696 76.2866C46.027 78.5163 45.5657 80.5699 45.0128 82.393C43.3032 81.4848 41.5291 80.353 39.7415 79.0382H39.7449ZM45.1552 82.4608C45.7217 80.6139 46.1932 78.5265 46.5426 76.2628C46.9089 76.2154 47.2753 76.1713 47.6348 76.1171C47.2583 78.6078 46.7291 80.902 46.0847 82.9284C45.776 82.7793 45.4673 82.6268 45.1552 82.4574V82.4608ZM55.4502 83.7214C53.8627 85.3073 50.6266 85.0735 46.3391 83.0538C46.3017 83.0335 46.2678 83.0165 46.2271 82.9996C46.8852 80.9426 47.4211 78.6112 47.8044 76.09C50.3315 75.7037 52.6687 75.1751 54.7344 74.5176C56.712 78.662 57.1055 82.0643 55.4468 83.718L55.4502 83.7214ZM54.6666 74.3753C50.2908 75.7647 44.6905 76.6017 38.5882 76.6017C37.9233 76.6017 37.2653 76.5881 36.614 76.5678C36.1696 76.1917 35.7287 75.8121 35.2911 75.419C36.4139 75.4767 37.557 75.5105 38.7273 75.5105C44.6227 75.5105 50.0229 74.7311 54.1951 73.4468C54.3579 73.7654 54.5173 74.0771 54.6666 74.3753ZM46.5765 74.8565C45.8404 74.948 45.0908 75.0327 44.3208 75.1005C44.7448 74.6973 45.1722 74.294 45.5928 73.8704C46.01 73.4536 46.4205 73.03 46.8207 72.6098C46.7529 73.3757 46.6749 74.1246 46.5799 74.8565H46.5765ZM47.0005 72.42C47.4042 71.9931 47.7943 71.5627 48.1742 71.1323C48.0928 72.3489 47.9808 73.5349 47.8384 74.6837C47.4788 74.7379 47.1158 74.7887 46.7461 74.8362C46.8479 74.0466 46.9327 73.2401 47.0005 72.4167V72.42ZM54.1171 73.3045C52.2989 73.8636 50.2332 74.3177 48.0012 74.66C48.1504 73.4536 48.2691 72.2066 48.354 70.929C49.2054 69.9632 50.0093 68.9974 50.7589 68.0317C52.0954 69.848 53.2216 71.6271 54.1171 73.3045ZM48.4557 65.114C48.9408 65.6968 49.4123 66.2729 49.86 66.849C49.4123 67.4319 48.9408 68.0181 48.4557 68.6044C48.4693 68.0317 48.4862 67.459 48.4862 66.8795C48.4862 66.3 48.4761 65.7002 48.4557 65.114ZM48.2895 64.9073C48.3099 65.5579 48.3234 66.2085 48.3234 66.8727C48.3234 67.5369 48.3099 68.1672 48.2895 68.8009C47.9198 69.2448 47.5399 69.682 47.1498 70.1225C47.1973 69.1025 47.2278 68.0656 47.2278 67.0083C47.2278 65.846 47.1939 64.7006 47.1362 63.5789C47.5297 64.0228 47.9164 64.4634 48.2895 64.9073ZM47.1328 70.4038V70.3902C48.147 69.255 49.0968 68.113 49.9618 66.9812C50.1992 67.2828 50.4299 67.5877 50.6504 67.8893C49.124 69.8446 47.394 71.8236 45.4639 73.7484C44.9958 74.2161 44.5209 74.6701 44.0426 75.1175C43.4762 75.1649 42.8961 75.2056 42.3161 75.2327C43.0759 74.5414 43.8357 73.823 44.5921 73.0707C45.4775 72.1862 46.3187 71.2916 47.1226 70.3936C47.1226 70.3936 47.126 70.3936 47.1328 70.4038ZM47.0582 67.0151C47.0582 68.1401 47.0277 69.2414 46.97 70.3224C46.1796 71.2069 45.3486 72.0879 44.4768 72.9555C43.6763 73.7552 42.8758 74.5177 42.0549 75.253C40.966 75.3072 39.85 75.3411 38.7205 75.3411C37.4824 75.3411 36.2748 75.3038 35.0876 75.2394C34.2803 74.5075 33.4797 73.7484 32.6894 72.9622C31.8244 72.0981 30.9899 71.217 30.1962 70.3292C30.1419 69.2482 30.108 68.1401 30.108 67.0218C30.108 65.785 30.1453 64.5752 30.2132 63.3925C30.9391 62.5894 31.6955 61.7931 32.4892 60.9967C33.3508 60.136 34.226 59.3125 35.1079 58.5264C36.2884 58.4586 37.4891 58.4213 38.7171 58.4213C39.8432 58.4213 40.9457 58.4518 42.0277 58.5094C42.9131 59.3024 43.7984 60.136 44.6634 61.0001C45.4571 61.7931 46.2169 62.5962 46.9428 63.3993C47.0107 64.582 47.048 65.7951 47.048 67.0184L47.0582 67.0151Z" fill="#354990"/>
<path d="M64.0491 66.876C64.0491 64.0363 60.9453 61.4778 55.9929 59.675C58.2147 54.9004 58.598 50.8949 56.5899 48.8922C54.7073 47.0115 51.0642 47.1335 46.3289 49.2243C46.1525 49.3022 45.9693 49.3869 45.7896 49.475C43.985 44.5377 41.4206 41.4404 38.5814 41.4404C35.7422 41.4404 33.1812 44.5377 31.3732 49.475C31.1901 49.3869 31.0137 49.3022 30.8339 49.2243C26.0986 47.1335 22.4555 47.0182 20.5797 48.8922C18.5682 50.9017 18.9481 54.9004 21.1699 59.675C16.2175 61.4812 13.1171 64.0397 13.1171 66.8828C13.1171 69.7259 16.2175 72.281 21.1699 74.0906C18.9481 78.8653 18.5648 82.864 20.5797 84.8735C21.465 85.7579 22.7438 86.2018 24.3483 86.2018C26.1427 86.2018 28.3373 85.6495 30.8407 84.5448C31.0171 84.4634 31.2003 84.3753 31.3834 84.294C33.188 89.2313 35.749 92.3286 38.5882 92.3286C41.4273 92.3286 43.9884 89.2313 45.7929 84.294C45.9761 84.3821 46.1593 84.4668 46.3357 84.5448C48.839 85.6495 51.0337 86.2018 52.8281 86.2018C54.4292 86.2018 55.7114 85.7579 56.5967 84.8735C58.6082 82.864 58.2283 78.8653 56.0031 74.0906C60.9487 72.2878 64.0559 69.7259 64.0491 66.8794V66.876ZM46.4035 49.37C48.8865 48.2754 51.0608 47.7197 52.8281 47.7197C54.3817 47.7197 55.6232 48.1467 56.4746 48.9972C58.442 50.9627 58.0587 54.9004 55.8538 59.614C55.5078 59.4887 55.1517 59.3701 54.7853 59.2481C56.6917 55.141 57.0377 51.7658 55.3722 50.0986C52.8756 47.6045 46.546 49.6174 39.6499 54.6259C39.3412 54.3887 39.0393 54.1582 38.7307 53.9278C41.3425 52.003 43.9477 50.4476 46.4001 49.3666L46.4035 49.37ZM45.1077 51.41C45.4503 51.2338 45.7862 51.0644 46.122 50.9051C46.7563 52.9146 47.2685 55.1884 47.6416 57.6418C47.2651 57.5842 46.8852 57.5368 46.5019 57.4893C46.1491 55.2697 45.6776 53.2196 45.1077 51.4134V51.41ZM46.3289 57.4656C45.1349 57.3165 43.9036 57.1979 42.6383 57.12C41.6919 56.283 40.732 55.49 39.7754 54.7411C41.5427 53.4636 43.2896 52.3622 44.9687 51.4812C45.5216 53.2602 45.9829 55.2799 46.3323 57.4656H46.3289ZM46.2611 50.8407C50.4876 48.8752 53.6761 48.6584 55.25 50.2307C56.8816 51.8607 56.5255 55.1681 54.6395 59.2176C52.5974 58.5737 50.2976 58.0485 47.8112 57.6757C47.4347 55.185 46.9123 52.8875 46.2611 50.8441V50.8407ZM38.5882 53.8363C36.5903 52.3588 34.5991 51.1016 32.669 50.102C34.1988 45.9203 36.2884 43.3313 38.5882 43.3313C40.888 43.3313 42.9809 45.9169 44.5074 50.102C42.5773 51.1016 40.5861 52.3656 38.5882 53.8363ZM38.5882 41.6065C41.3697 41.6065 43.8832 44.6597 45.6573 49.5327C45.3214 49.6919 44.9822 49.8546 44.6464 50.0342C43.0861 45.7881 40.9457 43.1687 38.5882 43.1687C36.2307 43.1687 34.0937 45.7949 32.5299 50.0342C32.1873 49.8614 31.8549 49.6919 31.5191 49.5327C33.2966 44.6563 35.8067 41.6065 38.5882 41.6065ZM13.2867 66.876C13.2867 64.0939 16.3464 61.5829 21.2377 59.8072C21.3972 60.1393 21.56 60.4748 21.733 60.817C17.4793 62.3758 14.8505 64.5141 14.8505 66.8693C14.8505 70.9188 22.598 74.3176 33.0116 75.2428C33.4492 75.6562 33.8936 76.056 34.3345 76.4491C22.4046 75.6697 13.2901 71.6711 13.2833 66.8727L13.2867 66.876ZM30.4235 74.7988C30.0537 74.7514 29.6874 74.6972 29.3278 74.6396C29.182 73.501 29.0734 72.3285 28.992 71.1255C29.3787 71.5592 29.7654 71.9862 30.1725 72.4132C30.2403 73.2265 30.3251 74.0194 30.4269 74.7988H30.4235ZM30.3556 72.6097C30.7559 73.0333 31.1629 73.4501 31.5836 73.8703C32.0042 74.2905 32.4078 74.6768 32.8217 75.0733C32.0618 75.0055 31.319 74.9208 30.5931 74.8226C30.5015 74.1008 30.4235 73.362 30.3556 72.6097ZM29.165 74.6158C26.9432 74.2634 24.9012 73.7924 23.0966 73.2265C23.9819 71.5728 25.0979 69.8174 26.4174 68.0282C27.1671 68.9906 27.971 69.9598 28.8224 70.9222C28.9004 72.1861 29.0192 73.4162 29.165 74.6158ZM22.9473 73.1824C22.6115 73.0774 22.2791 72.9622 21.9569 72.8503C22.9473 70.9459 24.1888 68.9838 25.644 67.015C25.8611 67.3098 26.0884 67.608 26.3123 67.8994C24.9758 69.7158 23.8429 71.5016 22.9473 73.1824ZM21.8042 72.7927C17.6082 71.2678 15.0133 69.177 15.0133 66.876C15.0133 64.5751 17.6082 62.4809 21.7974 60.9594C22.7845 62.857 24.0396 64.853 25.5321 66.876C24.0396 68.8991 22.7845 70.895 21.8008 72.7927H21.8042ZM29.5347 76.1204C29.8943 76.1747 30.2607 76.2255 30.6304 76.2695C30.9764 78.5332 31.4479 80.6172 32.0177 82.4607C31.7057 82.6234 31.3936 82.7826 31.0849 82.9317C30.4404 80.8985 29.9113 78.6044 29.5347 76.1204ZM30.9459 83.0063C30.9119 83.0266 30.8746 83.0402 30.8407 83.0605C26.5565 85.0802 23.3171 85.314 21.7296 83.7281C20.0709 82.071 20.4745 78.6687 22.4453 74.5277C24.5043 75.1851 26.8381 75.7206 29.3651 76.1001C29.7518 78.6247 30.2844 80.9527 30.9425 83.0097L30.9459 83.0063ZM30.8 76.2899C32.0076 76.439 33.2592 76.5576 34.5381 76.6423C35.4946 77.4895 36.458 78.2858 37.4247 79.0415C35.6337 80.3529 33.863 81.4847 32.1534 82.3929C31.5937 80.5766 31.1392 78.523 30.7966 76.2933L30.8 76.2899ZM30.7695 84.3855C26.102 86.4492 22.5267 86.578 20.6984 84.7515C18.8701 82.9249 18.999 79.3533 21.0647 74.6904C21.1462 74.5074 21.2344 74.3244 21.3192 74.1414C21.638 74.2566 21.9636 74.3685 22.2995 74.4769C20.3015 78.6823 19.9081 82.1489 21.6075 83.8467C22.3334 84.5719 23.3849 84.9175 24.6773 84.9175C27.8828 84.9175 32.5808 82.803 37.557 79.1499C37.8521 79.3804 38.1506 79.6006 38.4423 79.8243C35.8304 81.7491 33.2253 83.3045 30.7729 84.3855H30.7695ZM38.5882 79.9192C40.6133 81.4136 42.6349 82.6843 44.5888 83.6942C43.0521 88.0148 40.9321 90.7054 38.5882 90.7054C36.2443 90.7054 34.1208 88.0182 32.5876 83.6942C34.5414 82.6843 36.5631 81.417 38.5882 79.9192ZM38.5882 92.149C35.8067 92.149 33.2999 89.0958 31.5225 84.216C31.8312 84.0703 32.1399 83.9178 32.4519 83.7586C34.0157 88.1368 36.19 90.8647 38.5882 90.8647C40.9864 90.8647 43.1607 88.1402 44.7244 83.7586C45.0365 83.9178 45.3452 84.0703 45.6539 84.216C43.8832 89.0958 41.3697 92.149 38.5882 92.149ZM56.1082 74.687C58.174 79.3499 58.3029 82.9216 56.4746 84.7481C54.6462 86.5746 51.071 86.4458 46.4035 84.3821C41.7123 82.3116 36.4885 78.5366 31.7057 73.7517C21.8415 63.8974 16.9027 52.796 20.6984 49.0074C21.5566 48.1501 22.7913 47.7299 24.3449 47.7299C26.1121 47.7299 28.2865 48.2788 30.7695 49.3802C35.4607 51.4507 40.6845 55.2257 45.4673 60.0105C50.2569 64.7954 54.0323 70.0072 56.1082 74.687ZM51.5323 66.7405C51.3051 66.4389 51.0744 66.1305 50.8403 65.8222C52.1836 63.9753 53.3098 62.1725 54.1883 60.4714C54.5547 60.5832 54.9142 60.7018 55.2602 60.8238C54.2799 62.7181 53.0282 64.7141 51.5289 66.7405H51.5323ZM55.4061 60.8746C59.7411 62.4097 62.431 64.5345 62.431 66.8794C62.431 69.2244 59.7411 71.3457 55.4095 72.8808C54.419 70.956 53.1436 68.933 51.6307 66.8794C53.147 64.8225 54.4122 62.796 55.4027 60.8746H55.4061ZM50.7318 65.6866C49.9923 64.7344 49.1952 63.7788 48.354 62.8265C48.2725 61.549 48.1572 60.302 48.008 59.0956C50.206 59.4311 52.2379 59.8784 54.0391 60.4273C53.1639 62.1014 52.0547 63.8737 50.7318 65.6866ZM48.1742 62.6266C47.7841 62.1827 47.3804 61.7455 46.97 61.3084C46.8988 60.4917 46.8004 59.692 46.6952 58.9126C47.0785 58.96 47.4618 59.0143 47.835 59.0719C47.9808 60.2206 48.0962 61.4101 48.1708 62.6232L48.1742 62.6266ZM46.7868 61.1152C46.3967 60.7018 45.9965 60.2918 45.5894 59.8851C45.1824 59.4785 44.7482 59.0583 44.3242 58.6584C45.0738 58.7262 45.8099 58.8042 46.5324 58.8956C46.6274 59.6208 46.7156 60.363 46.7868 61.1152ZM55.9352 73.9415C55.7894 73.6331 55.6367 73.3248 55.4773 73.013C59.8666 71.4474 62.5939 69.2786 62.5939 66.8794C62.5939 66.6693 62.5701 66.4558 62.5328 66.2457C62.4955 66.0356 62.4277 65.8222 62.3462 65.6222C62.2581 65.4121 62.1529 65.2088 62.0342 65.0123C61.9053 64.8055 61.7594 64.6022 61.6068 64.4158C61.4372 64.2125 61.254 64.0228 61.0674 63.8398C60.8605 63.6432 60.6434 63.4535 60.4162 63.2806C60.1753 63.0875 59.9243 62.9113 59.6665 62.7418C59.3918 62.5588 59.1068 62.386 58.8185 62.2267C58.5098 62.0539 58.1944 61.8913 57.8755 61.7354C57.5329 61.5727 57.1937 61.4135 56.8443 61.2677C56.4746 61.1152 56.1048 60.9661 55.7283 60.8238C55.4298 60.712 55.1279 60.6137 54.8226 60.5154C54.5377 60.424 54.2494 60.3325 53.961 60.2477C53.8355 60.2105 53.71 60.1698 53.5845 60.1359C53.3301 60.0648 53.0689 59.9902 52.8145 59.9258C52.5601 59.858 52.2854 59.7869 52.0208 59.7225C51.7562 59.6581 51.4781 59.5937 51.2033 59.5293C50.9285 59.4683 50.6436 59.4107 50.3621 59.3531C50.0771 59.2955 49.7888 59.2379 49.5005 59.1837C49.2121 59.1295 48.9137 59.0786 48.6151 59.0312C48.3166 58.9838 48.0147 58.9363 47.7095 58.8923C47.4076 58.8482 47.0921 58.8042 46.7868 58.7635C46.4781 58.7194 46.1627 58.6855 45.8472 58.6483C45.5351 58.611 45.2129 58.5805 44.8906 58.5466C44.6362 58.5229 44.3818 58.4992 44.124 58.4788C43.7 58.079 43.2726 57.6859 42.8452 57.3063C43.4117 57.3436 43.985 57.3877 44.5548 57.4419C45.1213 57.4961 45.6674 57.5537 46.2203 57.6181C46.7733 57.6859 47.299 57.757 47.8384 57.8384C48.3777 57.9197 48.8831 58.0078 49.4021 58.0993C49.9211 58.1908 50.4095 58.2925 50.9082 58.3975C51.4102 58.5026 51.8749 58.6144 52.3532 58.733C52.8281 58.8516 53.2759 58.9736 53.7338 59.1024C53.8864 59.1464 54.0425 59.1939 54.1951 59.2379C54.4699 59.3192 54.7446 59.4073 55.0194 59.4988C55.5519 59.6717 56.0845 59.8648 56.6069 60.0715C56.6204 60.0749 56.6306 60.0817 56.6442 60.0851C56.8816 60.1766 57.1157 60.2681 57.3463 60.3697C57.8077 60.5663 58.2656 60.773 58.7133 61C59.1306 61.2101 59.541 61.4338 59.9413 61.6744C60.311 61.8946 60.674 62.1319 61.0199 62.386C61.3388 62.6232 61.6441 62.8672 61.9392 63.1349C62.2072 63.3789 62.4582 63.6398 62.6888 63.9177C62.8992 64.1719 63.0993 64.443 63.2655 64.731C63.4249 64.9953 63.5606 65.28 63.659 65.5714C63.7607 65.8662 63.8286 66.1373 63.8625 66.4321C63.8829 66.5812 63.8862 66.7269 63.8862 66.876C63.8862 69.6548 60.8266 72.1658 55.9352 73.9449V73.9415Z" fill="#354990"/>
</g>
<defs>
<clipPath id="clip0_68_209">
<rect width="77" height="102" fill="white"/>
</clipPath>
</defs>
</svg>
