<svg width="219" height="65" viewBox="0 0 948 284" fill="none" xmlns="http://www.w3.org/2000/svg">
<path d="M329.525 29.7H326.725V253.6H329.525V29.7Z" fill="white"/>
<path d="M378.425 128.9H372.925V85.9H385.625C395.425 85.9 401.525 89.9999 401.525 99.2999C401.525 108.2 395.425 113.1 385.125 113.1H378.525V128.9H378.425ZM378.425 107.9H385.025C391.825 107.9 395.525 105.1 395.525 99.4C395.525 93.5 391.825 91 385.025 91H378.425V107.9Z" fill="white"/>
<path d="M413.725 107.4C413.725 93.6 421.625 85.2999 433.025 85.2999C445.825 85.2999 452.725 94.4 452.725 107.4C452.725 122 444.525 129.5 433.225 129.5C421.225 129.5 413.725 121 413.725 107.4ZM446.725 107.4C446.725 95.6 441.425 90.4 432.925 90.4C425.325 90.4 419.525 95.9 419.525 107.4C419.525 118.7 425.225 124.4 433.625 124.4C441.825 124.3 446.725 118.5 446.725 107.4Z" fill="white"/>
<path d="M497.025 127.7C494.725 128.8 491.325 129.5 487.625 129.5C474.225 129.5 466.225 121.1 466.225 107.9C466.225 93.3 474.425 85.2 487.325 85.2C492.225 85.2 495.125 86.1 497.125 86.9L496.125 91.7999C493.425 90.7999 490.625 90.4 487.925 90.4C477.725 90.4 472.225 96.3 472.225 107.4C472.225 118.1 478.425 124.4 488.525 124.4C491.225 124.4 494.125 123.9 496.225 122.9L497.025 127.7Z" fill="white"/>
<path d="M515.525 104.1H533.525C533.125 94.8 527.125 90.5 518.625 90.5C516.125 90.5 512.525 90.8 509.425 92L508.425 87.5C510.525 86.4 515.025 85.2999 519.425 85.2999C531.725 85.2999 539.525 91.9 539.525 106.9C539.525 121 532.325 129.6 517.825 129.6C513.325 129.6 510.525 128.8 508.525 128.1L509.525 123.2C512.125 124.1 515.525 124.4 517.825 124.4C527.225 124.4 533.325 119.5 533.525 109.2H515.425V104.1H515.525Z" fill="white"/>
<path d="M587.725 128.9H582.225V109.1H560.525V128.9H555.025V85.9H560.525V104.1H582.225V85.9H587.725V128.9Z" fill="white"/>
<path d="M628.925 128.9H604.925V85.9H628.925V91.1H610.425V104.1H627.325V109.1H610.425V123.7H628.925V128.9Z" fill="white"/>
<path d="M650.025 128.9H644.525V85.9H657.225C667.025 85.9 673.125 89.9999 673.125 99.2999C673.125 108.2 667.025 113.1 656.725 113.1H650.125V128.9H650.025ZM650.025 107.9H656.625C663.425 107.9 667.125 105.1 667.125 99.4C667.125 93.5 663.425 91 656.625 91H650.025V107.9Z" fill="white"/>
<path d="M692.725 128.9H687.225V85.9H710.025V91.1H692.725V128.9Z" fill="white"/>
<path d="M718.925 107.4C718.925 93.6 726.825 85.2999 738.225 85.2999C751.025 85.2999 757.925 94.4 757.925 107.4C757.925 122 749.725 129.5 738.425 129.5C726.425 129.5 718.925 121 718.925 107.4ZM751.925 107.4C751.925 95.6 746.625 90.4 738.125 90.4C730.525 90.4 724.725 95.9 724.725 107.4C724.725 118.7 730.425 124.4 738.825 124.4C747.025 124.3 751.925 118.5 751.925 107.4Z" fill="white"/>
<path d="M795.825 117.4H777.425L773.225 128.9H767.625L784.025 85.9H789.525L805.625 128.9H799.825L795.825 117.4ZM779.225 112.4H794.025L786.825 92.2H786.625L779.225 112.4Z" fill="white"/>
<path d="M828.825 128.9H823.325V91.1H810.625V85.9H841.625V91.1H828.925V128.9H828.825Z" fill="white"/>
<path d="M851.425 107.4C851.425 93.6 859.325 85.2999 870.725 85.2999C883.525 85.2999 890.425 94.4 890.425 107.4C890.425 122 882.225 129.5 870.925 129.5C858.925 129.5 851.425 121 851.425 107.4ZM884.425 107.4C884.425 95.6 879.125 90.4 870.625 90.4C863.025 90.4 857.225 95.9 857.225 107.4C857.225 118.7 862.925 124.4 871.325 124.4C879.425 124.3 884.425 118.5 884.425 107.4Z" fill="white"/>
<path d="M947.625 128.9H942.125L939.525 95.2999L928.625 128.9H922.825L912.025 95.4L909.325 128.9H903.825L907.525 85.9H914.325L925.925 122.9L937.325 85.9H944.125L947.625 128.9Z" fill="white"/>
<path d="M377.325 194.9H372.925V160.5H383.025C390.825 160.5 395.725 163.7 395.725 171.2C395.725 178.3 390.825 182.2 382.625 182.2H377.325V194.9ZM377.325 178.1H382.625C388.125 178.1 391.025 175.9 391.025 171.3C391.025 166.6 388.025 164.6 382.625 164.6H377.325V178.1Z" fill="white"/>
<path d="M405.125 177.7C405.125 166.7 411.425 160 420.525 160C430.725 160 436.225 167.3 436.225 177.7C436.225 189.4 429.625 195.4 420.625 195.4C411.125 195.4 405.125 188.6 405.125 177.7ZM431.525 177.7C431.525 168.3 427.325 164.1 420.525 164.1C414.525 164.1 409.825 168.5 409.825 177.7C409.825 186.7 414.325 191.3 421.125 191.3C427.525 191.3 431.525 186.6 431.525 177.7Z" fill="white"/>
<path d="M471.225 194C469.325 194.9 466.725 195.4 463.725 195.4C453.025 195.4 446.525 188.7 446.525 178.1C446.525 166.4 453.125 160 463.425 160C467.325 160 469.625 160.7 471.325 161.3L470.525 165.2C468.325 164.4 466.125 164.1 463.925 164.1C455.725 164.1 451.325 168.8 451.325 177.7C451.325 186.3 456.325 191.3 464.325 191.3C466.525 191.3 468.825 190.9 470.525 190.1L471.225 194Z" fill="white"/>
<path d="M502.225 185.7H487.525L484.225 194.9H479.725L492.825 160.5H497.225L510.125 194.9H505.525L502.225 185.7ZM488.925 181.7H500.825L495.025 165.5H494.825L488.925 181.7Z" fill="white"/>
<path d="M528.125 194.9H523.725V164.6H513.525V160.5H538.325V164.6H528.125V194.9Z" fill="white"/>
<path d="M545.725 177.7C545.725 166.7 552.025 160 561.125 160C571.325 160 576.825 167.3 576.825 177.7C576.825 189.4 570.225 195.4 561.225 195.4C551.725 195.4 545.725 188.6 545.725 177.7ZM572.225 177.7C572.225 168.3 568.025 164.1 561.225 164.1C555.225 164.1 550.525 168.5 550.525 177.7C550.525 186.7 555.025 191.3 561.825 191.3C568.225 191.3 572.225 186.6 572.225 177.7Z" fill="white"/>
<path d="M622.325 194.9H617.925L615.825 168L607.125 194.9H602.525L593.825 168.1L591.625 194.9H587.225L590.225 160.5H595.625L604.925 190.1L614.025 160.5H619.425L622.325 194.9Z" fill="white"/>
<path d="M171.525 141.7C171.525 158.2 158.125 171.5 141.725 171.4C125.325 171.4 111.925 158 111.925 141.6C111.925 125.1 125.325 111.8 141.725 111.9C158.225 112 171.525 125.3 171.525 141.7Z" fill="white"/>
<path d="M142.025 0C120.525 0 100.125 4.79993 81.925 13.2999C106.225 10.7999 131.425 21.3 150.025 40C159.325 49.2 167.525 61.1 174.425 75.5C213.925 82.6 240.725 62.9999 251.325 51.2999C225.325 19.9999 186.025 0 142.025 0Z" fill="white"/>
<path d="M56.5251 28.6C37.0251 43.3 21.5251 62.9 11.7251 85.5C23.5251 88.4 58.8251 99.9 75.0251 143.6C79.9251 142 90.4251 135.9 97.7251 112.3C106.625 83.3999 122.925 55.5 144.125 43.1C120.725 20.5 85.4251 10.6 56.5251 28.6Z" fill="white"/>
<path d="M264.925 212.6C275.625 194 281.725 174 283.425 154C273.425 176.2 251.825 192.8 226.125 199.5C213.525 203 199.025 204 183.125 202.9C157.225 233.5 160.825 266.5 165.625 281.5C205.925 274.6 242.925 250.6 264.925 212.6Z" fill="white"/>
<path d="M282.925 124.4C279.925 100.2 270.725 77 256.025 57.2C247.625 65.9 220.025 90.7 174.025 82.9C172.925 87.9 173.025 100 189.825 118.1C210.425 140.3 226.525 168.3 226.625 192.8C257.825 184 284.025 158.3 282.925 124.4Z" fill="white"/>
<path d="M19.0252 212.6C29.7252 231.2 44.1252 246.4 60.6252 257.9C46.3252 238.2 42.8253 211.1 49.7253 185.6C53.0253 173 59.3252 159.9 68.3252 146.8C54.7252 109.1 24.3252 95.7 8.92523 92.4C-5.27477 130.6 -2.97476 174.5 19.0252 212.6Z" fill="white"/>
<path d="M86.6253 272.2C109.125 281.7 133.825 285.3 158.425 282.5C155.025 270.8 147.325 234.6 177.125 198.7C173.325 195.3 162.725 189.3 138.625 194.7C109.025 201.4 76.7253 201.3 55.4253 189.2C47.4253 220.7 56.5253 256.2 86.6253 272.2Z" fill="white"/>
</svg>
