<svg width="219" height="65" viewBox="0 0 219 65" fill="none" xmlns="http://www.w3.org/2000/svg">
<g clip-path="url(#clip0_1_246)">
<path d="M76 13H75V51H76V13Z" fill="white"/>
<path d="M85.5999 19.6978H88.5477C90.7884 19.6978 91.973 20.6425 91.973 22.2752C91.973 23.7955 91.0432 24.6141 89.8861 24.8939C90.8022 25.231 91.2957 27.414 92.3954 29.5558H90.9284C89.124 25.951 89.5464 25.176 87.8406 25.176H86.8672V29.5558H85.5977V19.6978H85.5999ZM86.8695 23.995H88.6327C89.8448 23.995 90.6208 23.5731 90.6208 22.4036C90.6208 21.4313 90.0009 20.8833 88.4788 20.8833H86.8718V23.995H86.8695Z" fill="white"/>
<path d="M95.1733 24.6279C95.1733 21.4726 96.9915 19.5579 99.6018 19.5579C102.534 19.5579 104.113 21.6423 104.113 24.6279C104.113 27.9804 102.224 29.6979 99.6431 29.6979C96.9066 29.6979 95.1733 27.7534 95.1733 24.6279ZM102.758 24.6279C102.758 21.9243 101.546 20.7411 99.5995 20.7411C97.8662 20.7411 96.5255 21.9954 96.5255 24.6279C96.5255 27.2604 97.8226 28.5147 99.7694 28.5147C101.716 28.5147 102.758 27.1755 102.758 24.6279Z" fill="white"/>
<path d="M107.495 27.8106C107.947 28.1202 108.75 28.5146 109.765 28.5146C111.076 28.5146 111.71 27.923 111.71 26.8957C111.71 25.7537 111.161 25.4441 109.807 24.9236L109.469 24.7975C108.046 24.2471 107.341 23.5867 107.341 22.0802C107.341 20.4888 108.539 19.5601 110.5 19.5601C111.712 19.5601 112.614 19.9407 112.825 20.0943L112.502 21.179C111.783 20.8419 111.021 20.7433 110.415 20.7433C109.315 20.7433 108.695 21.195 108.695 22.0802C108.695 22.8552 109.005 23.3047 110.557 23.8963L110.925 24.0362C112.644 24.6989 113.067 25.529 113.067 26.8108C113.067 28.6705 111.769 29.6978 109.88 29.6978C108.838 29.6978 107.834 29.402 107.143 28.9503L107.497 27.8083L107.495 27.8106Z" fill="white"/>
<path d="M122.103 29.5581H116.588V19.6978H122.103V20.881H117.858V23.8666H121.735V25.0223H117.858V28.3748H122.103V29.5581Z" fill="white"/>
<path d="M133.226 29.5581H131.591L126.965 21.3465V29.5581H125.695V19.6978H127.472L131.956 27.6984V19.6978H133.226V29.5581Z" fill="white"/>
<path d="M142.684 29.5581H137.172V19.6978H142.684V20.881H138.442V23.8666H142.319V25.0223H138.442V28.3748H142.684V29.5581Z" fill="white"/>
<path d="M146.279 19.6978H149.227C151.47 19.6978 152.652 20.6425 152.652 22.2752C152.652 23.7955 151.723 24.6141 150.566 24.8939C151.482 25.231 151.975 27.414 153.075 29.5558H151.608C149.803 25.951 150.226 25.176 148.52 25.176H147.547V29.5558H146.277V19.6978H146.279ZM147.549 23.995H149.312C150.524 23.995 151.3 23.5731 151.3 22.4036C151.3 21.4313 150.68 20.8833 149.158 20.8833H147.551V23.995H147.549Z" fill="white"/>
<path d="M160.871 19.5579C161.998 19.5579 162.662 19.7551 163.128 19.9385L162.889 21.0507C162.269 20.8259 161.62 20.7411 161 20.7411C158.658 20.7411 157.391 22.094 157.391 24.6279C157.391 27.1618 158.8 28.5147 161.156 28.5147C161.509 28.5147 161.987 28.4436 162.396 28.3312V25.6277H160.323V24.4444H163.665V29.1201C163.018 29.4709 162.129 29.6979 160.986 29.6979C158.011 29.6979 156.036 27.9231 156.036 24.754C156.036 21.4015 157.926 19.5579 160.874 19.5579" fill="white"/>
<path d="M166.905 24.6279C166.905 21.4726 168.723 19.5579 171.333 19.5579C174.265 19.5579 175.844 21.6423 175.844 24.6279C175.844 27.9804 173.955 29.6979 171.374 29.6979C168.64 29.6979 166.905 27.7534 166.905 24.6279ZM174.492 24.6279C174.492 21.9243 173.28 20.7411 171.333 20.7411C169.6 20.7411 168.259 21.9954 168.259 24.6279C168.259 27.2604 169.556 28.5147 171.501 28.5147C173.445 28.5147 174.49 27.1755 174.49 24.6279" fill="white"/>
<path d="M184.557 26.9232H180.342L179.382 29.558H178.099L181.864 19.7H183.133L186.827 29.558H185.502L184.559 26.9232H184.557ZM180.75 25.7698H184.148L182.497 21.1354H182.44L180.748 25.7698H180.75Z" fill="white"/>
<path d="M191.859 29.5581H190.59V20.881H187.672V19.6978H194.78V20.881H191.859V29.5581Z" fill="white"/>
<path d="M196.892 24.6279C196.892 21.4726 198.71 19.5579 201.32 19.5579C204.252 19.5579 205.831 21.6423 205.831 24.6279C205.831 27.9804 203.942 29.6979 201.362 29.6979C198.627 29.6979 196.892 27.7534 196.892 24.6279ZM204.479 24.6279C204.479 21.9243 203.267 20.7411 201.32 20.7411C199.587 20.7411 198.246 21.9954 198.246 24.6279C198.246 27.2604 199.543 28.5147 201.488 28.5147C203.432 28.5147 204.477 27.1755 204.477 24.6279" fill="white"/>
<path d="M219 29.5581H217.73L217.124 21.8533L214.629 29.5581H213.304L210.823 21.8808L210.203 29.5581H208.933L209.778 19.6978H211.33L213.995 28.1776L216.603 19.6978H218.153L219 29.5581Z" fill="white"/>
<path d="M85.5999 36.8018H87.96C89.7553 36.8018 90.7034 37.5585 90.7034 38.8655C90.7034 40.0832 89.9573 40.7367 89.0321 40.9637C89.7667 41.2343 90.1616 42.9816 91.0409 44.6969H89.8678C88.4237 41.8099 88.7612 41.1884 87.3952 41.1884H86.6169V44.6969H85.5999V36.8018ZM86.6169 40.2414H88.0288C88.9999 40.2414 89.6198 39.9043 89.6198 38.9664C89.6198 38.1891 89.1239 37.7488 87.9026 37.7488H86.6146V40.2414H86.6169Z" fill="white"/>
<path d="M93.153 40.7482C93.153 38.2212 94.6085 36.6895 96.6977 36.6895C99.0462 36.6895 100.311 38.3588 100.311 40.7482C100.311 43.4334 98.7983 44.8093 96.7321 44.8093C94.542 44.8093 93.153 43.2523 93.153 40.7482ZM99.2276 40.7482C99.2276 38.5835 98.2565 37.6365 96.6977 37.6365C95.3087 37.6365 94.2366 38.6409 94.2366 40.7482C94.2366 42.8556 95.2743 43.86 96.8331 43.86C98.392 43.86 99.2276 42.7891 99.2276 40.7482Z" fill="white"/>
<path d="M102.908 43.2983C103.268 43.546 103.913 43.8624 104.726 43.8624C105.775 43.8624 106.285 43.3877 106.285 42.5645C106.285 41.6519 105.844 41.4019 104.76 40.9869L104.489 40.886C103.348 40.4457 102.784 39.916 102.784 38.7098C102.784 37.4349 103.743 36.6919 105.314 36.6919C106.285 36.6919 107.008 36.9969 107.176 37.1207L106.916 37.9898C106.34 37.7192 105.731 37.6412 105.245 37.6412C104.363 37.6412 103.867 38.0013 103.867 38.7121C103.867 39.3335 104.115 39.6936 105.357 40.1659L105.651 40.2783C107.029 40.808 107.368 41.473 107.368 42.5003C107.368 43.9885 106.331 44.8117 104.818 44.8117C103.982 44.8117 103.181 44.5755 102.628 44.2132L102.91 43.3006L102.908 43.2983Z" fill="white"/>
<path d="M114.455 42.5874H111.081L110.314 44.697H109.285L112.3 36.8042H113.317L116.274 44.697H115.213L114.455 42.5874ZM111.409 41.6633H114.129L112.809 37.953H112.763L111.409 41.6633Z" fill="white"/>
<path d="M120.193 44.6969H119.176V37.7488H116.838V36.8018H122.53V37.7488H120.193V44.6969Z" fill="white"/>
<path d="M124.109 40.7482C124.109 38.2212 125.567 36.6895 127.654 36.6895C130.002 36.6895 131.267 38.3588 131.267 40.7482C131.267 43.4334 129.754 44.8093 127.688 44.8093C125.498 44.8093 124.109 43.2523 124.109 40.7482ZM130.184 40.7482C130.184 38.5835 129.213 37.6365 127.654 37.6365C126.265 37.6365 125.193 38.6409 125.193 40.7482C125.193 42.8556 126.23 43.86 127.789 43.86C129.348 43.86 130.184 42.7891 130.184 40.7482Z" fill="white"/>
<path d="M141.699 44.6969H140.682L140.198 38.5262L138.198 44.6969H137.138L135.149 38.5491L134.654 44.6969H133.637L134.314 36.8018H135.556L137.691 43.5916L139.78 36.8018H141.022L141.699 44.6969Z" fill="white"/>
<mask id="mask0_1_246" style="mask-type:luminance" maskUnits="userSpaceOnUse" x="39" y="27" width="12" height="11">
<path d="M41.2528 28.6917C39.3889 30.7694 39.5527 33.971 41.6256 35.8501C43.6928 37.7234 46.8784 37.5588 48.7423 35.4811C50.6062 33.4034 50.4424 30.2017 48.3751 28.3284C47.4093 27.4541 46.2006 27.0227 44.9975 27.0227C43.6194 27.0227 42.2525 27.5847 41.2585 28.6917" fill="white"/>
</mask>
<g mask="url(#mask0_1_246)">
<path d="M50.6061 27.0227H39.3945V37.7234H50.6061V27.0227Z" fill="url(#paint0_radial_1_246)"/>
</g>
<mask id="mask1_1_246" style="mask-type:luminance" maskUnits="userSpaceOnUse" x="22" y="11" width="25" height="22">
<path d="M30.5664 12.8195C27.2679 15.3173 24.6302 18.6552 22.9697 22.5154C24.9635 23.0093 30.9336 24.9621 33.6729 32.3929C34.4976 32.1261 36.2711 31.0816 37.5024 27.0681C39.1516 21.6922 42.2864 16.5207 46.3531 14.7836C43.913 12.3597 41.0042 11.0483 37.6831 11.0483C35.486 11.0483 33.1081 11.6217 30.5608 12.8195" fill="white"/>
</mask>
<g mask="url(#mask1_1_246)">
<path d="M29.9059 0.317625L13.2698 26.0647L39.4177 43.1313L56.0539 17.3842L29.9059 0.317625Z" fill="url(#paint1_linear_1_246)"/>
</g>
<mask id="mask2_1_246" style="mask-type:luminance" maskUnits="userSpaceOnUse" x="30" y="8" width="34" height="14">
<path d="M43.8227 8C38.858 8.2441 34.2943 9.99822 30.5665 12.8196C39.4454 8.63012 46.2909 12.0873 50.4819 20.8181C57.158 22.0216 61.6935 18.6836 63.4783 16.7081C59.31 11.6558 53.1309 8.3406 46.178 8H43.8227Z" fill="white"/>
</mask>
<g mask="url(#mask2_1_246)">
<path d="M35.1886 -3.48651L25.7245 20.0566L58.8635 33.5134L68.3276 9.97029L35.1886 -3.48651Z" fill="url(#paint2_linear_1_246)"/>
</g>
<mask id="mask3_1_246" style="mask-type:luminance" maskUnits="userSpaceOnUse" x="28" y="39" width="23" height="18">
<path d="M35.6159 54.2769C39.4171 55.9005 43.6137 56.5249 47.7651 56.0424C47.1946 54.0612 45.8899 47.8849 50.9281 41.7881C50.2842 41.2034 48.4994 40.1816 44.4214 41.1182C38.9653 42.3671 32.9387 42.2252 29.4142 39.5571C27.9683 45.0976 29.8209 50.2237 35.6159 54.2826" fill="white"/>
</mask>
<g mask="url(#mask3_1_246)">
<path d="M28.0288 38.3437L27.0832 56.4788L50.8632 57.7313L51.8088 39.5963L28.0288 38.3437Z" fill="url(#paint3_linear_1_246)"/>
</g>
<mask id="mask4_1_246" style="mask-type:luminance" maskUnits="userSpaceOnUse" x="21" y="23" width="15" height="32">
<path d="M24.2236 44.1438C26.9347 48.8611 30.9844 52.3069 35.6159 54.2824C27.5673 48.6454 27.1211 40.9648 32.549 32.9492C30.2502 26.5345 25.1047 24.2581 22.5065 23.6904C20.1061 30.1903 20.5014 37.6723 24.2179 44.1438" fill="white"/>
</mask>
<g mask="url(#mask4_1_246)">
<path d="M35.3187 21.5394L15.9215 24.2793L20.4171 56.4287L39.8142 53.6888L35.3187 21.5394Z" fill="url(#paint4_linear_1_246)"/>
</g>
<mask id="mask5_1_246" style="mask-type:luminance" maskUnits="userSpaceOnUse" x="50" y="17" width="19" height="25">
<path d="M50.3971 22.0726C50.2164 22.9241 50.2277 24.9904 53.0687 28.0729C56.8756 32.1999 59.7618 37.5133 59.2252 41.9185C64.7265 40.4085 68.2114 36.2304 68.8101 29.1572C68.3074 25.0358 66.7485 21.0735 64.2577 17.6958C62.8344 19.1831 58.169 23.4066 50.3971 22.0726Z" fill="white"/>
</mask>
<g mask="url(#mask5_1_246)">
<path d="M64.9844 10.1323L40.4708 22.6858L54.0535 49.4781L78.567 36.9246L64.9844 10.1323Z" fill="url(#paint5_linear_1_246)"/>
</g>
<mask id="mask6_1_246" style="mask-type:luminance" maskUnits="userSpaceOnUse" x="48" y="29" width="22" height="27">
<path d="M51.9673 42.4919C47.5956 47.7032 48.2 53.3175 49.0133 55.8607C55.8137 54.6969 62.0606 50.6153 65.7827 44.1438C68.4938 39.4265 69.4371 34.1755 68.8214 29.1572C67.9911 38.978 61.5918 43.2129 51.973 42.4919" fill="white"/>
</mask>
<g mask="url(#mask6_1_246)">
<path d="M61.15 18.5076L34.6988 39.2781L55.8689 66.5118L82.3201 45.7412L61.15 18.5076Z" fill="url(#paint6_linear_1_246)"/>
</g>
</g>
<defs>
<radialGradient id="paint0_radial_1_246" cx="0" cy="0" r="1" gradientUnits="userSpaceOnUse" gradientTransform="translate(43.3426 28.899) scale(7.09409 7.13)">
<stop stop-color="white"/>
<stop offset="1" stop-color="white"/>
</radialGradient>
<linearGradient id="paint1_linear_1_246" x1="30.2536" y1="30.1042" x2="42.2681" y2="11.6968" gradientUnits="userSpaceOnUse">
<stop stop-color="white"/>
<stop offset="1" stop-color="white"/>
</linearGradient>
<linearGradient id="paint2_linear_1_246" x1="32.0034" y1="9.4542" x2="61.6808" y2="21.3842" gradientUnits="userSpaceOnUse">
<stop stop-color="white"/>
<stop offset="1" stop-color="white"/>
</linearGradient>
<linearGradient id="paint3_linear_1_246" x1="50.4978" y1="48.6203" x2="28.6237" y2="47.4797" gradientUnits="userSpaceOnUse">
<stop stop-color="white"/>
<stop offset="1" stop-color="white"/>
</linearGradient>
<linearGradient id="paint4_linear_1_246" x1="28.5426" y1="55.54" x2="24.0491" y2="23.7286" gradientUnits="userSpaceOnUse">
<stop stop-color="white"/>
<stop offset="1" stop-color="white"/>
</linearGradient>
<linearGradient id="paint5_linear_1_246" x1="53.8129" y1="20.456" x2="63.8369" y2="40.0301" gradientUnits="userSpaceOnUse">
<stop stop-color="white"/>
<stop offset="1" stop-color="white"/>
</linearGradient>
<linearGradient id="paint6_linear_1_246" x1="70.4354" y1="31.7064" x2="45.152" y2="51.3605" gradientUnits="userSpaceOnUse">
<stop stop-color="white"/>
<stop offset="1" stop-color="white"/>
</linearGradient>
<clipPath id="clip0_1_246">
<rect width="219" height="65" fill="white"/>
</clipPath>
</defs>
</svg>
