<svg width="246" height="70" viewBox="0 0 246 70" fill="none" xmlns="http://www.w3.org/2000/svg">
<g clip-path="url(#clip0_19_399)">
<mask id="mask0_19_399" style="mask-type:luminance" maskUnits="userSpaceOnUse" x="26" y="30" width="11" height="11">
<path d="M27.981 32.1814C26.1171 34.2591 26.2809 37.4608 28.3538 39.3398C30.421 41.2131 33.6066 41.0485 35.4705 38.9708C37.3344 36.8931 37.1706 33.6914 35.1033 31.8181C34.1375 30.9439 32.9288 30.5125 31.7257 30.5125C30.3476 30.5125 28.9807 31.0744 27.9867 32.1814" fill="white"/>
</mask>
<g mask="url(#mask0_19_399)">
<path d="M37.3343 30.5125H26.1227V41.2131H37.3343V30.5125Z" fill="url(#paint0_radial_19_399)"/>
</g>
<mask id="mask1_19_399" style="mask-type:luminance" maskUnits="userSpaceOnUse" x="9" y="14" width="25" height="22">
<path d="M17.2947 16.3092C13.9961 18.807 11.3584 22.1449 9.69788 26.0051C11.6917 26.499 17.6618 28.4518 20.4011 35.8827C21.2258 35.6159 22.9993 34.5713 24.2306 30.5579C25.8799 25.182 29.0146 20.0105 33.0813 18.2734C30.6413 15.8494 27.7325 14.5381 24.4113 14.5381C22.2142 14.5381 19.8363 15.1114 17.289 16.3092" fill="white"/>
</mask>
<g mask="url(#mask1_19_399)">
<path d="M16.6341 3.80737L-0.00201416 29.5544L26.1459 46.6211L42.7821 20.874L16.6341 3.80737Z" fill="url(#paint1_linear_19_399)"/>
</g>
<mask id="mask2_19_399" style="mask-type:luminance" maskUnits="userSpaceOnUse" x="17" y="11" width="34" height="14">
<path d="M30.5509 11.4897C25.5862 11.7338 21.0225 13.488 17.2947 16.3093C26.1736 12.1199 33.0192 15.577 37.2101 24.3078C43.8862 25.5113 48.4217 22.1734 50.2065 20.1979C46.0382 15.1456 39.8591 11.8304 32.9062 11.4897H30.5509Z" fill="white"/>
</mask>
<g mask="url(#mask2_19_399)">
<path d="M21.9168 0.00323728L12.4527 23.5464L45.5917 37.0032L55.0558 13.46L21.9168 0.00323728Z" fill="url(#paint2_linear_19_399)"/>
</g>
<mask id="mask3_19_399" style="mask-type:luminance" maskUnits="userSpaceOnUse" x="15" y="43" width="23" height="17">
<path d="M22.3441 57.7667C26.1453 59.3902 30.3419 60.0147 34.4933 59.5322C33.9229 57.551 32.6181 51.3747 37.6563 45.2778C37.0124 44.6931 35.2276 43.6713 31.1496 44.608C25.6935 45.8569 19.6669 45.7149 16.1424 43.0469C14.6965 48.5874 16.5491 53.7135 22.3441 57.7724" fill="white"/>
</mask>
<g mask="url(#mask3_19_399)">
<path d="M14.757 41.8335L13.8114 59.9685L37.5914 61.2211L38.537 43.086L14.757 41.8335Z" fill="url(#paint3_linear_19_399)"/>
</g>
<mask id="mask4_19_399" style="mask-type:luminance" maskUnits="userSpaceOnUse" x="7" y="27" width="16" height="31">
<path d="M10.9518 47.6335C13.6629 52.3509 17.7126 55.7967 22.3441 57.7722C14.2955 52.1352 13.8493 44.4545 19.2772 36.439C16.9784 30.0242 11.8329 27.7479 9.23474 27.1802C6.83427 33.6801 7.22964 41.162 10.9461 47.6335" fill="white"/>
</mask>
<g mask="url(#mask4_19_399)">
<path d="M22.0468 25.0291L2.64966 27.769L7.1452 59.9184L26.5424 57.1785L22.0468 25.0291Z" fill="url(#paint4_linear_19_399)"/>
</g>
<mask id="mask5_19_399" style="mask-type:luminance" maskUnits="userSpaceOnUse" x="37" y="21" width="19" height="25">
<path d="M37.1253 25.5623C36.9446 26.4138 36.9559 28.4802 39.7969 31.5626C43.6038 35.6896 46.49 41.0031 45.9534 45.4082C51.4547 43.8982 54.9396 39.7201 55.5383 32.6469C55.0357 28.5256 53.4768 24.5632 50.9859 21.1855C49.5626 22.6729 44.8972 26.8964 37.1253 25.5623Z" fill="white"/>
</mask>
<g mask="url(#mask5_19_399)">
<path d="M51.7126 13.622L27.199 26.1755L40.7817 52.9679L65.2952 40.4144L51.7126 13.622Z" fill="url(#paint5_linear_19_399)"/>
</g>
<mask id="mask6_19_399" style="mask-type:luminance" maskUnits="userSpaceOnUse" x="35" y="32" width="21" height="28">
<path d="M38.6955 45.9817C34.3239 51.1929 34.9282 56.8072 35.7415 59.3504C42.5419 58.1867 48.7888 54.1051 52.5109 47.6336C55.222 42.9162 56.1653 37.6652 55.5496 32.647C54.7194 42.4677 48.32 46.7026 38.7012 45.9817" fill="white"/>
</mask>
<g mask="url(#mask6_19_399)">
<path d="M47.8782 21.9973L21.427 42.7678L42.5971 70.0015L69.0483 49.231L47.8782 21.9973Z" fill="url(#paint6_linear_19_399)"/>
</g>
<path d="M71.116 35.5422H74.0813C75.7193 35.5422 76.9957 35.2186 77.9107 34.5772C78.8257 33.9357 79.2832 32.9366 79.2832 31.5798C79.2832 30.1493 78.837 29.1388 77.9446 28.5485C77.0522 27.9581 75.7757 27.6572 74.1152 27.6572H71.116V35.5422ZM71.2233 48.2865H65.8011V22.8604H74.5105C76.1033 22.8604 77.5323 23.0307 78.8088 23.3713C80.0853 23.7119 81.1754 24.2228 82.0791 24.9153C82.9828 25.6079 83.6719 26.4878 84.1576 27.5664C84.6377 28.645 84.8806 29.9109 84.8806 31.3641C84.8806 32.8174 84.6321 34.0663 84.1407 35.1789C83.6493 36.2915 82.932 37.2339 81.9887 37.9946C81.0511 38.7553 79.9045 39.34 78.5546 39.7373C77.2047 40.1347 75.6854 40.3391 74.0022 40.3391H71.2177V48.2922L71.2233 48.2865Z" fill="#354990"/>
<path d="M101.475 43.9325C102.39 43.9325 103.231 43.7622 104.005 43.4216C104.773 43.081 105.44 42.5701 105.993 41.8775C106.547 41.1849 106.976 40.3221 107.276 39.2832C107.575 38.2444 107.727 37.0068 107.727 35.5763C107.727 32.6925 107.123 30.5808 105.92 29.2354C104.717 27.89 103.124 27.2201 101.147 27.2201C100.255 27.2201 99.4189 27.3904 98.6338 27.731C97.8487 28.0716 97.171 28.5826 96.5892 29.2751C96.0131 29.9677 95.5612 30.8362 95.2336 31.8921C94.9061 32.9423 94.7479 34.1741 94.7479 35.5763C94.7479 36.9785 94.923 38.2387 95.2732 39.2832C95.6234 40.3221 96.0978 41.1906 96.7022 41.8775C97.3065 42.5701 98.0182 43.081 98.8372 43.4216C99.6562 43.7622 100.537 43.9325 101.475 43.9325ZM101.294 48.7237C99.4641 48.7237 97.7923 48.4398 96.2898 47.8721C94.7818 47.3045 93.4884 46.4643 92.4039 45.346C91.3195 44.2333 90.4835 42.8596 89.8905 41.2247C89.2974 39.5898 89.0037 37.7051 89.0037 35.5763C89.0037 33.4475 89.3087 31.5628 89.9244 29.9279C90.54 28.293 91.3872 26.9193 92.4717 25.8066C93.5561 24.694 94.8383 23.8538 96.3237 23.2805C97.8036 22.7128 99.4133 22.429 101.147 22.429C103.102 22.429 104.841 22.7298 106.372 23.3372C107.902 23.9446 109.19 24.8075 110.241 25.9315C111.291 27.0612 112.088 28.4406 112.647 30.0699C113.2 31.7048 113.477 33.5384 113.477 35.5706C113.477 37.8243 113.172 39.7771 112.557 41.4347C111.941 43.0923 111.088 44.4604 109.992 45.539C108.897 46.6176 107.609 47.418 106.123 47.9346C104.643 48.4569 103.034 48.718 101.3 48.718" fill="#354990"/>
<path d="M137.759 47.2816C137.42 47.4519 137.053 47.6165 136.657 47.7868C136.262 47.9571 135.787 48.1104 135.251 48.258C134.709 48.3999 134.082 48.5134 133.37 48.5986C132.658 48.6837 131.845 48.7235 130.93 48.7235C129.004 48.7235 127.247 48.4453 125.672 47.889C124.096 47.3327 122.746 46.5152 121.622 45.4366C120.498 44.3581 119.634 43.0183 119.018 41.4232C118.402 39.8223 118.097 37.9831 118.097 35.8997C118.097 33.8163 118.408 31.7897 119.018 30.1037C119.628 28.4177 120.515 27.0099 121.673 25.8689C122.831 24.7335 124.231 23.8707 125.881 23.2916C127.53 22.7126 129.394 22.4231 131.467 22.4231C132.839 22.4231 134.076 22.5423 135.172 22.7864C136.268 23.0305 137.154 23.3087 137.826 23.6209L136.635 28.1963C135.861 27.9295 135.081 27.7365 134.285 27.6173C133.489 27.4981 132.805 27.4357 132.223 27.4357C130.97 27.4357 129.834 27.5946 128.806 27.9068C127.784 28.2247 126.903 28.7129 126.169 29.3828C125.434 30.0526 124.864 30.8985 124.452 31.9317C124.039 32.9648 123.836 34.1853 123.836 35.5932C123.836 38.2896 124.587 40.3162 126.095 41.673C127.598 43.0297 129.631 43.7109 132.184 43.7109C132.76 43.7109 133.46 43.6314 134.279 43.4725C135.098 43.3135 135.895 43.0694 136.663 42.7288L137.747 47.2816H137.759Z" fill="#354990"/>
<path d="M150.117 37.9377H156.872L153.511 27.2598L150.117 37.9377ZM158.357 42.7346H148.637L146.83 48.2921H141.481L150.117 22.866H157.166L165.694 48.2921H160.165L158.357 42.7346Z" fill="#354990"/>
<path d="M178.019 48.2865H172.602V27.8729H165.406V22.8604H185.175V27.8729H178.019V48.2865Z" fill="#354990"/>
<path d="M200.176 43.9325C201.091 43.9325 201.933 43.7622 202.707 43.4216C203.481 43.081 204.141 42.5701 204.695 41.8775C205.249 41.1849 205.678 40.3221 205.977 39.2832C206.276 38.2444 206.429 37.0068 206.429 35.5763C206.429 32.6925 205.825 30.5808 204.622 29.2354C203.419 27.89 201.826 27.2201 199.849 27.2201C198.956 27.2201 198.121 27.3904 197.335 27.731C196.55 28.0716 195.873 28.5826 195.291 29.2751C194.715 29.9677 194.263 30.8362 193.935 31.8921C193.608 32.9423 193.45 34.1741 193.45 35.5763C193.45 36.9785 193.625 38.2387 193.975 39.2832C194.325 40.3221 194.799 41.1906 195.404 41.8775C196.008 42.5701 196.714 43.081 197.533 43.4216C198.352 43.7622 199.233 43.9325 200.171 43.9325M199.996 48.7237C198.166 48.7237 196.494 48.4398 194.991 47.8721C193.483 47.3045 192.19 46.4643 191.106 45.346C190.021 44.2333 189.185 42.8596 188.592 41.2247C187.999 39.5898 187.705 37.7051 187.705 35.5763C187.705 33.4475 188.01 31.5628 188.626 29.9279C189.242 28.293 190.089 26.9193 191.173 25.8066C192.258 24.694 193.54 23.8538 195.02 23.2805C196.5 22.7128 198.109 22.429 199.843 22.429C201.792 22.429 203.537 22.7298 205.068 23.3372C206.598 23.9446 207.886 24.8075 208.937 25.9315C209.987 27.0612 210.784 28.4406 211.343 30.0699C211.896 31.7048 212.173 33.5384 212.173 35.5706C212.173 37.8243 211.868 39.7771 211.253 41.4347C210.637 43.0923 209.784 44.4604 208.688 45.539C207.593 46.6176 206.299 47.418 204.819 47.9346C203.339 48.4569 201.73 48.718 199.996 48.718" fill="#354990"/>
<path d="M237.183 22.8604L231.546 42.0421L225.836 22.8604H219.363L216.839 48.2865H222.295L223.667 31.472L228.801 48.2865H233.969L239.171 31.3982L240.544 48.2865H246L243.436 22.8604H237.183Z" fill="#354990"/>
</g>
<defs>
<radialGradient id="paint0_radial_19_399" cx="0" cy="0" r="1" gradientUnits="userSpaceOnUse" gradientTransform="translate(30.0708 32.3887) scale(7.09409 7.13)">
<stop stop-color="#6795CF"/>
<stop offset="1" stop-color="#262964"/>
</radialGradient>
<linearGradient id="paint1_linear_19_399" x1="16.9818" y1="33.594" x2="28.9963" y2="15.1865" gradientUnits="userSpaceOnUse">
<stop stop-color="#6795CF"/>
<stop offset="1" stop-color="#262964"/>
</linearGradient>
<linearGradient id="paint2_linear_19_399" x1="18.7316" y1="12.9439" x2="48.409" y2="24.874" gradientUnits="userSpaceOnUse">
<stop stop-color="#6795CF"/>
<stop offset="1" stop-color="#262964"/>
</linearGradient>
<linearGradient id="paint3_linear_19_399" x1="37.226" y1="52.1101" x2="15.3519" y2="50.9695" gradientUnits="userSpaceOnUse">
<stop stop-color="#6795CF"/>
<stop offset="1" stop-color="#262964"/>
</linearGradient>
<linearGradient id="paint4_linear_19_399" x1="15.2707" y1="59.0298" x2="10.7773" y2="27.2183" gradientUnits="userSpaceOnUse">
<stop stop-color="#6795CF"/>
<stop offset="1" stop-color="#262964"/>
</linearGradient>
<linearGradient id="paint5_linear_19_399" x1="40.5411" y1="23.9458" x2="50.5651" y2="43.5198" gradientUnits="userSpaceOnUse">
<stop stop-color="#6795CF"/>
<stop offset="1" stop-color="#262964"/>
</linearGradient>
<linearGradient id="paint6_linear_19_399" x1="57.1636" y1="35.1961" x2="31.8802" y2="54.8502" gradientUnits="userSpaceOnUse">
<stop stop-color="#6795CF"/>
<stop offset="1" stop-color="#262964"/>
</linearGradient>
<clipPath id="clip0_19_399">
<rect width="246" height="70" fill="white"/>
</clipPath>
</defs>
</svg>
