<svg width="176" height="32" viewBox="0 0 176 32" fill="none" xmlns="http://www.w3.org/2000/svg">
<g clip-path="url(#clip0_68_162)">
<path d="M164.645 11.2942H155.183V20.706H164.645V11.2942Z" fill="#fff"/>
<path d="M0 0V32H176V0H0ZM132.473 5.64706H138.151V11.2941H132.473V5.64706ZM56.7742 5.64706H62.4516V11.2941H56.7742V5.64706ZM26.4946 26.3529H5.67742V5.64706H11.3548V20.7059H20.8172V5.64706H26.4946V26.3529ZM49.2043 26.3529H35.957V11.2941H34.0645V26.3529H28.3871V5.64706H41.6344V20.7059H43.5269V5.64706H49.2043V26.3529ZM71.914 26.3529H65.2903C60.8971 26.3529 57.3149 23.0588 56.8418 18.8235H51.0968V13.1765H62.4516V17.8824C62.4516 19.4286 63.7358 20.7059 65.2903 20.7059H71.914V26.3529ZM94.6237 11.2941H87.2903L93.914 17.8824L89.8925 21.8824L87.0538 19.0588V26.3529H81.3763V19.0588L78.5376 21.8824L74.5161 17.8824L81.1398 11.2941H73.8064V5.64706H94.6237V11.2941ZM117.333 18.8235H109.797V26.3193H104.086V18.8235H96.5499V5.64706H102.261V13.1429H104.086V5.64706H109.797V13.1429H117.333V18.8235ZM124.903 26.3529H119.226V20.7059H124.903V26.3529ZM147.613 26.3529H140.989C136.596 26.3529 133.014 23.0588 132.541 18.8235H126.796V13.1765H138.151V17.8824C138.151 19.4286 139.435 20.7059 140.989 20.7059H147.613V26.3529ZM170.323 26.3529H149.505V5.64706H170.323V26.3529Z" fill="#fff"/>
</g>
<defs>
<clipPath id="clip0_68_162">
<rect width="176" height="32" fill="white"/>
</clipPath>
</defs>
</svg>
