<svg width="237" height="55" viewBox="0 0 237 55" fill="none" xmlns="http://www.w3.org/2000/svg">
<g clip-path="url(#clip0_68_124)">
<path d="M25.6217 0C25.6217 0.727032 25.6217 1.49042 25.6217 2.21745C25.6217 2.29015 25.6217 2.36285 25.6217 2.43556C25.6217 2.50826 25.584 2.54461 25.5086 2.54461C25.4333 2.54461 25.3956 2.54461 25.3202 2.54461C24.7174 2.54461 24.1145 2.54461 23.5116 2.54461C23.4363 2.54461 23.3986 2.54461 23.3232 2.54461C23.2479 2.54461 23.2102 2.47191 23.2102 2.43556C23.2102 2.36285 23.2102 2.29015 23.2102 2.21745C23.2102 1.49042 23.2102 0.727032 23.2102 0L25.6217 0Z" fill="#6F6F6F"/>
<path d="M26.1492 20.7568C28.1085 20.7568 30.0678 20.7568 32.0271 20.7568C32.1401 20.7568 32.2532 20.7568 32.3662 20.7568C32.5169 20.7568 32.5546 20.7931 32.5546 20.9749C32.5546 21.0839 32.5546 21.193 32.5546 21.3021C32.5546 23.265 32.5546 25.228 32.5546 27.2274C32.5546 27.3364 32.5546 27.4455 32.5546 27.5545C32.5546 27.7726 32.5169 27.809 32.2908 27.809C31.9517 27.809 31.5749 27.809 31.2358 27.809C31.0098 27.809 31.0098 27.7726 30.9721 27.5182C30.9721 27.4091 30.9721 27.3001 30.9721 27.191C30.9721 25.8097 30.9721 24.3919 30.9721 23.0106C30.9721 22.9015 30.9721 22.8288 30.9721 22.7198C30.9721 22.429 30.9721 22.3926 30.6706 22.3926C30.0678 22.3926 29.4272 22.3926 28.8244 22.3926C28.636 22.3926 28.5983 22.429 28.5983 22.6471C28.5983 22.7925 28.5983 22.9379 28.5983 23.0833C28.5983 25.1917 28.5983 27.2637 28.5983 29.3721C28.5983 29.9537 28.636 29.881 28.1085 29.881C26.8274 29.881 25.5463 29.881 24.2652 29.881C24.1899 29.881 24.0768 29.881 24.0015 29.881C23.7754 29.881 23.7754 29.8447 23.7377 29.5902C23.7377 29.4812 23.7377 29.3358 23.7377 29.2267C23.7377 27.1183 23.7377 25.0463 23.7377 22.9379C23.7377 22.3563 23.7754 22.429 23.2479 22.3926C22.7581 22.3926 22.2306 22.3926 21.7408 22.3926C21.6277 22.3926 21.5524 22.3926 21.4393 22.3926C21.364 22.3926 21.3263 22.429 21.3263 22.5017C21.3263 22.6107 21.3263 22.7198 21.3263 22.8288C21.3263 23.4105 21.3263 23.9921 21.3263 24.5374C21.3263 24.6101 21.3263 24.6828 21.3263 24.7555C21.3263 24.8645 21.2509 24.9372 21.1756 24.9372C20.7611 24.9372 20.3466 24.9372 19.9322 24.9372C19.8191 24.9372 19.7815 24.8645 19.7438 24.7555C19.7438 24.6828 19.7438 24.6101 19.7438 24.5374C19.7438 23.3741 19.7438 22.2109 19.7438 21.0476C19.7438 21.0112 19.7438 20.9385 19.7438 20.9022C19.7438 20.7204 19.7815 20.6841 19.9322 20.6841C20.0452 20.6841 20.1582 20.6841 20.2713 20.6841C22.2306 20.7568 24.1899 20.7568 26.1492 20.7568Z" fill="#354990"/>
<path d="M14.2049 34.1706C13.2629 34.1706 12.3586 34.1706 11.4167 34.1706C11.3036 34.1706 11.2283 34.1706 11.1152 34.1706C10.9268 34.1706 10.8892 34.1343 10.8892 33.9162C10.8892 33.8435 10.8892 33.8071 10.8892 33.7344C10.8892 31.6987 10.8892 29.6267 10.8892 27.591C10.8892 27.1184 10.8892 27.1184 11.3413 27.1184C13.3006 27.1184 15.2222 27.1184 17.1815 27.1184C17.2569 27.1184 17.3699 27.1184 17.4453 27.1184C17.5206 27.1184 17.596 27.1548 17.596 27.2638C17.596 27.3729 17.596 27.4456 17.596 27.5546C17.596 29.6267 17.596 31.6987 17.596 33.7344C17.596 33.8435 17.596 33.9162 17.596 34.0252C17.596 34.0979 17.5583 34.1706 17.4453 34.1706C17.3322 34.1706 17.2192 34.1706 17.1062 34.1706C16.1265 34.1706 15.1846 34.1706 14.2049 34.1706Z" fill="#354990"/>
<path d="M26.4883 14.9405V17.8123C26.4883 17.9213 26.4883 17.994 26.4883 18.1031C26.4883 18.4666 26.4883 18.4666 26.1491 18.4666C24.1522 18.4666 22.1552 18.4666 20.1582 18.4666C20.1205 18.4666 20.0828 18.4666 20.0075 18.4666C19.8568 18.4666 19.8191 18.3939 19.8191 18.2848C19.8191 18.1758 19.8191 18.0667 19.8191 17.9577C19.8191 15.9583 19.8191 13.959 19.8191 11.9596C19.8191 11.8869 19.8191 11.8142 19.8191 11.7415C19.8191 11.5234 19.8568 11.4871 20.0828 11.4871C20.1959 11.4871 20.2712 11.4871 20.3843 11.4871C22.2305 11.4871 24.0768 11.4871 25.8854 11.4871C25.9231 11.4871 25.9607 11.4871 25.9607 11.4871C26.5259 11.4871 26.4506 11.4507 26.4883 11.996C26.4883 12.5049 26.4883 12.9775 26.4883 13.4864V14.9405Z" fill="#354990"/>
<path d="M34.6646 24.2466C34.6646 23.2651 34.6646 22.2836 34.6646 21.3021C34.6646 21.1931 34.6646 21.0477 34.6646 20.9386C34.6646 20.8659 34.7022 20.7932 34.8153 20.7932C34.8906 20.7932 35.0037 20.7932 35.079 20.7932C37.0383 20.7932 38.9976 20.7932 40.9569 20.7932C41.0323 20.7932 41.1453 20.7932 41.2207 20.7932C41.296 20.7932 41.3714 20.8659 41.3714 20.9386C41.3714 21.0477 41.3714 21.1567 41.3714 21.2658C41.3714 23.2651 41.3714 25.3008 41.3714 27.3002C41.3714 27.4092 41.3714 27.5183 41.3714 27.6273C41.3714 27.7 41.296 27.7727 41.2207 27.7727C41.1453 27.7727 41.0323 27.7727 40.9569 27.7727C38.9976 27.7727 37.0383 27.7727 35.079 27.7727C34.6646 27.7727 34.6646 27.7727 34.6646 27.3365C34.6646 26.3187 34.6646 25.2645 34.6646 24.2466Z" fill="#354990"/>
<path d="M29.2388 36.4243C30.1808 36.4243 31.1227 36.4243 32.0647 36.4243C32.1777 36.4243 32.2531 36.4243 32.3661 36.4243C32.5169 36.4243 32.5545 36.4607 32.5545 36.6424C32.5545 36.7515 32.5545 36.8605 32.5545 36.9696C32.5545 38.9326 32.5545 40.8956 32.5545 42.8949C32.5545 42.9676 32.5545 43.0403 32.5545 43.113C32.5545 43.4038 32.5169 43.4402 32.2531 43.4402C30.972 43.4402 29.7286 43.4402 28.4475 43.4402C27.7316 43.4402 27.0534 43.4402 26.3375 43.4402C26.2245 43.4402 26.1491 43.4402 26.0361 43.4402C25.9231 43.4402 25.8854 43.3675 25.8854 43.2584C25.8854 43.1857 25.8854 43.113 25.8854 43.0403C25.8854 40.9683 25.8854 38.9326 25.8854 36.8605C25.8854 36.8242 25.8854 36.7878 25.8854 36.7515C25.8854 36.4607 25.8854 36.4243 26.1868 36.4243C27.2041 36.4243 28.2215 36.4243 29.2388 36.4243Z" fill="#354990"/>
<path d="M32.5922 16.3583C32.5922 16.9036 32.5922 17.4489 32.5922 17.9941C32.5922 18.1032 32.5922 18.2123 32.5922 18.3213C32.5922 18.394 32.5545 18.4304 32.4791 18.4304C32.4038 18.4304 32.3284 18.4304 32.2531 18.4304C31.1604 18.4304 30.03 18.4304 28.9373 18.4304C28.862 18.4304 28.8243 18.4304 28.7489 18.4304C28.6359 18.4304 28.5982 18.3577 28.5605 18.2486C28.5605 18.1395 28.5605 18.0668 28.5605 17.9578C28.5605 16.8309 28.5605 15.7403 28.5605 14.6134C28.5605 14.5771 28.5605 14.5044 28.5605 14.468C28.5605 14.1772 28.5982 14.1409 28.862 14.1409C29.9923 14.1409 31.1227 14.1409 32.2531 14.1409C32.2908 14.1409 32.3284 14.1409 32.4038 14.1409C32.5168 14.1409 32.5545 14.2136 32.5922 14.3226C32.5922 14.4317 32.5922 14.5407 32.5922 14.6498C32.5922 15.2314 32.5922 15.7767 32.5922 16.3583Z" fill="#354990"/>
<path d="M36.6239 34.1704C36.0963 34.1704 35.5688 34.1704 35.0413 34.1704C34.966 34.1704 34.8529 34.1704 34.7776 34.1704C34.7022 34.1704 34.6646 34.1341 34.6646 34.0614C34.6646 33.9887 34.6646 33.916 34.6646 33.8433C34.6646 32.68 34.6646 31.4804 34.6646 30.3172C34.6646 30.2445 34.6646 30.1717 34.6646 30.099C34.6646 30.0263 34.7022 29.99 34.7776 29.99C34.8529 29.99 34.966 29.99 35.0413 29.99C36.0963 29.99 37.1514 29.99 38.2064 29.99C38.2817 29.99 38.3948 29.99 38.4701 29.99C38.5455 29.99 38.6208 30.0627 38.6208 30.1354C38.6208 30.2445 38.6208 30.3172 38.6208 30.4262C38.6208 31.5531 38.6208 32.68 38.6208 33.8069C38.6208 33.916 38.6208 33.9887 38.6208 34.0977C38.6208 34.1704 38.5455 34.2431 38.4701 34.2431C38.2817 34.2431 38.131 34.2431 37.9426 34.2431C37.5281 34.1704 37.076 34.1704 36.6239 34.1704Z" fill="#354990"/>
<path d="M8.66608 29.2993C8.66608 29.8446 8.66608 30.4262 8.66608 30.9715C8.66608 31.0442 8.66608 31.0805 8.66608 31.1532C8.66608 31.335 8.6284 31.3713 8.47768 31.3713C8.40233 31.3713 8.36465 31.3713 8.28929 31.3713C7.1966 31.3713 6.10392 31.3713 5.01123 31.3713C4.93587 31.3713 4.86051 31.3713 4.78516 31.3713C4.7098 31.3713 4.67212 31.335 4.67212 31.2623C4.67212 31.1896 4.67212 31.1169 4.67212 31.0442C4.67212 29.8809 4.67212 28.6813 4.67212 27.5181C4.67212 27.4817 4.67212 27.409 4.67212 27.3727C4.67212 27.1909 4.7098 27.1545 4.86051 27.1545C4.93587 27.1545 4.97355 27.1545 5.04891 27.1545C6.14159 27.1545 7.23428 27.1545 8.32697 27.1545C8.40233 27.1545 8.47768 27.1545 8.55304 27.1545C8.6284 27.1545 8.66608 27.1909 8.66608 27.2636C8.66608 27.3727 8.66608 27.4817 8.66608 27.5908C8.66608 28.136 8.66608 28.7177 8.66608 29.2993Z" fill="#354990"/>
<path d="M21.7407 36.4243C22.3059 36.4243 22.871 36.4243 23.4739 36.4243C23.7377 36.4243 23.7753 36.4606 23.7753 36.7151C23.7753 37.9147 23.7753 39.1507 23.7753 40.3503C23.7753 40.6411 23.7377 40.6411 23.5116 40.6411C22.3435 40.6411 21.1755 40.6411 20.0451 40.6411H20.0074C19.8191 40.6411 19.7814 40.6047 19.7814 40.423C19.7814 40.3503 19.7814 40.3139 19.7814 40.2412C19.7814 39.078 19.7814 37.9511 19.7814 36.7878C19.7814 36.7515 19.7814 36.6788 19.7814 36.6424C19.7814 36.4243 19.8191 36.4243 20.0074 36.3879C20.1958 36.3879 20.3466 36.3879 20.5349 36.3879C20.9117 36.4243 21.3262 36.4243 21.7407 36.4243Z" fill="#354990"/>
<path d="M43.6321 25.6643C43.6321 25.0463 43.6321 24.4647 43.6321 23.8467C43.6321 23.5559 43.6321 23.5559 43.8958 23.5559C44.6871 23.5559 45.4407 23.5559 46.2319 23.5559C46.6464 23.5559 47.0232 23.5559 47.4376 23.5559C47.5884 23.5559 47.626 23.5923 47.626 23.7377C47.626 23.8467 47.626 23.9194 47.626 24.0285C47.626 25.119 47.626 26.2096 47.626 27.3001C47.626 27.4092 47.626 27.5182 47.626 27.6273C47.626 27.7 47.5884 27.7727 47.4753 27.7727C47.4 27.7727 47.2869 27.7727 47.2116 27.7727C46.1566 27.7727 45.1016 27.7727 44.0465 27.7727C43.9712 27.7727 43.8582 27.7727 43.7828 27.7727C43.7074 27.7727 43.6321 27.7 43.6321 27.6273C43.6321 27.4819 43.6321 27.3001 43.6321 27.1547C43.6321 26.6821 43.6321 26.1732 43.6321 25.6643Z" fill="#354990"/>
<path d="M24.4158 9.12428C23.8883 9.12428 23.3608 9.12428 22.8333 9.12428C22.758 9.12428 22.6449 9.12428 22.5696 9.12428C22.4942 9.12428 22.4565 9.08793 22.4565 9.01523C22.4565 8.90617 22.4565 8.83347 22.4565 8.72442C22.4565 7.59752 22.4565 6.47062 22.4565 5.34372C22.4565 5.27101 22.4565 5.19831 22.4565 5.12561C22.4565 4.9802 22.4942 4.94385 22.6449 4.94385C22.7203 4.94385 22.758 4.94385 22.8333 4.94385C23.8883 4.94385 24.981 4.94385 26.036 4.94385C26.4128 4.94385 26.4128 4.94385 26.4128 5.34372C26.4128 6.50697 26.4128 7.63387 26.4128 8.79712C26.4128 8.86982 26.4128 8.90617 26.4128 8.97888C26.4128 9.08793 26.3751 9.16063 26.2621 9.16063C26.1491 9.16063 26.0737 9.16063 25.9607 9.16063C25.4332 9.12428 24.9057 9.12428 24.4158 9.12428Z" fill="#354990"/>
<path d="M15.599 25.01C15.0715 25.01 14.544 25.01 14.0165 25.01C13.9412 25.01 13.8281 25.01 13.7528 25.01C13.6774 25.01 13.6021 24.9737 13.6021 24.8646C13.6021 24.7919 13.6021 24.7192 13.6021 24.6465C13.6021 23.4833 13.6021 22.32 13.6021 21.1568C13.6021 21.0841 13.6021 21.0113 13.6021 20.9386C13.6021 20.8659 13.6397 20.8296 13.7151 20.8296C13.7904 20.8296 13.8658 20.8296 13.9412 20.8296C15.0338 20.8296 16.1265 20.8296 17.2192 20.8296C17.2946 20.8296 17.3699 20.8296 17.4453 20.8296C17.5207 20.8296 17.596 20.8659 17.596 20.975C17.596 21.0841 17.596 21.1568 17.596 21.2658C17.596 22.3927 17.596 23.4833 17.596 24.6102C17.596 24.6465 17.596 24.7192 17.596 24.7556C17.596 25.0464 17.5583 25.0827 17.2946 25.0827C16.7294 25.01 16.1642 25.01 15.599 25.01Z" fill="#354990"/>
<path d="M27.9201 50.0561C27.3926 50.0561 26.9027 50.0561 26.3752 50.0561C26.2622 50.0561 26.1868 50.0561 26.0738 50.0561C25.9608 50.0561 25.9231 49.9834 25.9231 49.8744C25.9231 49.7653 25.9231 49.6926 25.9231 49.5836C25.9231 48.4567 25.9231 47.3661 25.9231 46.2392C25.9231 46.1665 25.9231 46.0938 25.9231 46.0211C25.9231 45.8757 25.9608 45.8394 26.1115 45.8394C26.1868 45.8394 26.2622 45.8394 26.3376 45.8394C27.3926 45.8394 28.4476 45.8394 29.5026 45.8394C29.5779 45.8394 29.691 45.8394 29.7663 45.8394C29.8417 45.8394 29.8794 45.8757 29.8794 45.9484C29.8794 46.0575 29.8794 46.1302 29.8794 46.2392C29.8794 47.3661 29.8794 48.493 29.8794 49.6199C29.8794 49.729 29.8794 49.8017 29.8794 49.9107C29.8794 49.9834 29.804 50.0561 29.7287 50.0561C29.6156 50.0561 29.5403 50.0561 29.4272 50.0561C28.9374 50.0561 28.4099 50.0561 27.9201 50.0561Z" fill="#354990"/>
<path d="M19.7437 30.6445C19.7437 29.663 19.7437 28.6452 19.7437 27.6637C19.7437 27.5546 19.7437 27.4092 19.7437 27.3002C19.7437 27.1911 19.7814 27.1184 19.8944 27.1184H19.9321C20.3466 27.1184 20.7234 27.1184 21.1379 27.1184C21.2886 27.1184 21.3262 27.1548 21.3262 27.3002C21.3262 27.4456 21.3262 27.591 21.3262 27.7364C21.3262 29.2268 21.3262 30.7172 21.3262 32.2076C21.3262 32.6075 21.3262 32.6075 21.703 32.6439C22.2305 32.6439 22.758 32.6439 23.2855 32.6439C23.3986 32.6439 23.4739 32.6439 23.587 32.6439C23.6623 32.6439 23.7377 32.7166 23.7377 32.7893C23.7377 33.2255 23.7377 33.6253 23.7377 34.0616C23.7377 34.1706 23.6623 34.207 23.587 34.207C23.5116 34.207 23.4363 34.207 23.3609 34.207C22.2682 34.207 21.1755 34.207 20.0828 34.207C20.0075 34.207 19.8944 34.207 19.8191 34.207C19.7437 34.207 19.7061 34.1343 19.7061 34.0979C19.7061 33.9889 19.7061 33.8435 19.7061 33.7344C19.7437 32.6802 19.7437 31.6624 19.7437 30.6445Z" fill="#354990"/>
<path d="M29.2388 34.2068C28.2968 34.2068 27.3925 34.2068 26.4506 34.2068C26.3375 34.2068 26.2245 34.2068 26.1115 34.2068C25.9231 34.2068 25.8854 34.1704 25.8854 33.9886C25.8854 33.7705 25.8854 33.5524 25.8854 33.3343C25.8854 33.1526 25.8854 33.0071 25.8854 32.8254C25.8854 32.68 25.9231 32.6436 26.0738 32.6436C26.1868 32.6436 26.2998 32.6436 26.4129 32.6436C27.7316 32.6436 29.0881 32.6436 30.4068 32.6436C30.5576 32.6436 30.6706 32.6436 30.8213 32.6436C30.8967 32.6436 30.972 32.6073 30.972 32.4982C30.972 32.3892 30.972 32.2801 30.972 32.1711C30.972 31.5894 30.972 31.0078 30.972 30.4625C30.972 30.3535 30.972 30.2444 30.972 30.1354C30.972 30.0263 31.0474 29.9536 31.1227 29.9536C31.3865 29.9536 31.6502 29.9536 31.914 29.9536C32.0647 29.9536 32.2154 29.9536 32.3661 29.9536C32.4792 29.9536 32.5169 30.0263 32.5169 30.1354C32.5169 30.2081 32.5169 30.2808 32.5169 30.3535C32.5169 31.5167 32.5169 32.68 32.5169 33.8432C32.5169 33.9159 32.5169 33.9523 32.5169 34.025C32.5169 34.134 32.4792 34.2068 32.3661 34.2068C32.2531 34.2068 32.1401 34.2068 32.027 34.2068C31.1227 34.2068 30.1808 34.2068 29.2388 34.2068Z" fill="#354990"/>
<path d="M43.1046 31.2261C43.1046 31.5533 43.1046 31.9168 43.1046 32.244C43.1046 32.3894 43.0669 32.4621 42.9162 32.4621C42.2756 32.4984 41.6351 32.4984 40.9945 32.4621C40.7308 32.4621 40.7308 32.4257 40.6931 32.1713C40.6931 31.517 40.6931 30.8263 40.6931 30.1719C40.6931 29.9538 40.7308 29.9175 40.9192 29.9175C41.5597 29.9175 42.2003 29.9175 42.8785 29.9175C43.0669 29.9175 43.1046 29.9538 43.1046 30.1356C43.1046 30.4991 43.1046 30.8626 43.1046 31.2261Z" fill="#354990"/>
<path d="M10.2487 22.3562C10.5501 22.3562 10.8516 22.3562 11.1907 22.3562C11.3791 22.3562 11.4167 22.3925 11.4167 22.6106C11.4167 23.3013 11.4167 23.992 11.4167 24.6463C11.4167 24.8281 11.3791 24.8644 11.2283 24.8644C10.8892 24.8644 10.5124 24.9008 10.1733 24.9008C9.8719 24.9008 9.57047 24.9008 9.23136 24.8644C9.04297 24.8644 9.04297 24.8281 9.04297 24.6463C9.04297 23.9556 9.04297 23.265 9.04297 22.5379C9.04297 22.3562 9.08065 22.3198 9.26904 22.3198C9.57047 22.3562 9.90958 22.3562 10.2487 22.3562Z" fill="#354990"/>
<path d="M37.0383 17.1942C37.0383 17.5577 37.0383 17.9212 37.0383 18.2484C37.0383 18.3938 37.0006 18.4302 36.8499 18.4665C36.8122 18.4665 36.7746 18.4665 36.7746 18.4665C36.134 18.5029 35.4935 18.5029 34.8529 18.4665C34.7022 18.4665 34.6646 18.4302 34.6646 18.2848C34.6646 17.5577 34.6646 16.867 34.6646 16.14C34.6646 15.9946 34.7022 15.9583 34.8529 15.9583C35.5312 15.9583 36.1717 15.9583 36.8499 15.9583C37.0006 15.9583 37.0383 15.9946 37.076 16.1764C37.0383 16.5035 37.0383 16.867 37.0383 17.1942Z" fill="#354990"/>
<path d="M17.5583 37.6603C17.5583 38.0238 17.5583 38.3873 17.5583 38.7145C17.5583 38.8599 17.5207 38.8962 17.3699 38.8962C16.6917 38.8962 16.0135 38.8962 15.3353 38.8962C15.2222 38.8962 15.1846 38.8235 15.1846 38.7145C15.1846 38.5691 15.1846 38.3873 15.1846 38.2419C15.1846 37.733 15.1846 37.224 15.1846 36.7151C15.1846 36.388 15.1846 36.3516 15.5237 36.3516C16.1265 36.3516 16.7294 36.3153 17.3323 36.3516C17.5583 36.3516 17.5583 36.388 17.5583 36.6061C17.596 36.9696 17.596 37.3331 17.5583 37.6603Z" fill="#354990"/>
<path d="M15.1846 17.1942C15.1846 16.8307 15.1846 16.4672 15.1846 16.14C15.1846 16.031 15.2222 15.9583 15.3353 15.9583C15.4106 15.9583 15.4483 15.9583 15.5237 15.9583C16.0889 15.9583 16.654 15.9583 17.2569 15.9583C17.596 15.9583 17.596 15.9583 17.596 16.2854C17.596 16.9034 17.596 17.5214 17.596 18.1393C17.596 18.2121 17.596 18.2484 17.596 18.3211C17.596 18.3938 17.5207 18.4665 17.4453 18.4665C17.2946 18.4665 17.1815 18.5029 17.0308 18.5029C16.541 18.5029 16.0889 18.5029 15.6367 18.5029C15.5237 18.5029 15.4483 18.5029 15.3353 18.4665C15.2599 18.4665 15.2223 18.3938 15.2223 18.3211C15.1846 17.9576 15.1846 17.5577 15.1846 17.1942Z" fill="#354990"/>
<path d="M29.804 11.9961C29.4649 11.9961 29.1258 11.9961 28.7867 11.9961C28.6359 11.9961 28.5983 11.9597 28.5983 11.8143C28.5983 11.0873 28.5983 10.3966 28.5983 9.66957C28.5983 9.56051 28.6359 9.48781 28.749 9.48781C28.8243 9.48781 28.862 9.45146 28.9374 9.45146C29.5402 9.45146 30.1808 9.41511 30.7836 9.45146C30.972 9.45146 31.0097 9.48781 31.0097 9.66957C31.0097 10.3602 31.0097 11.0509 31.0097 11.778C31.0097 11.9597 30.972 11.9961 30.7836 11.9961C30.4822 11.9961 30.1431 11.9961 29.804 11.9961Z" fill="#354990"/>
<path d="M22.4189 42.9675C22.758 42.9675 23.0594 42.9675 23.3985 42.9675C23.5869 42.9675 23.6246 43.0039 23.6246 43.1856C23.6246 43.9127 23.6246 44.6034 23.6246 45.3304C23.6246 45.4394 23.5869 45.5121 23.4739 45.5121C23.3985 45.5121 23.3609 45.5485 23.2855 45.5485C22.6826 45.5485 22.0421 45.5848 21.4392 45.5121C21.2885 45.5121 21.2509 45.4758 21.2509 45.294C21.2509 44.6034 21.2509 43.9127 21.2509 43.2583C21.2509 43.0402 21.2885 43.0039 21.5146 43.0039C21.816 42.9675 22.1175 42.9675 22.4189 42.9675Z" fill="#354990"/>
<path d="M1.16804 30.5717C0.828935 30.5717 0.527504 30.5717 0.188394 30.5717C0.0376789 30.5717 0 30.5354 0 30.39C0 29.6993 0 29.0086 0 28.2816C0 28.0635 0.0376788 28.0635 0.263752 28.0635C0.602862 28.0635 0.941971 28.0635 1.28108 28.0635C1.58251 28.0635 1.88394 28.0635 2.22305 28.0635C2.41145 28.0635 2.41145 28.0998 2.41145 28.2816C2.41145 28.7178 2.41145 29.1904 2.41145 29.6266C2.41145 29.8811 2.41145 30.1355 2.41145 30.3536C2.41145 30.499 2.37377 30.5354 2.22305 30.5717C1.84626 30.5717 1.50715 30.5717 1.16804 30.5717Z" fill="#354990"/>
<path d="M50.9041 26.9001C50.565 26.9001 50.2636 26.9001 49.9245 26.9001C49.7738 26.9001 49.7361 26.8638 49.7361 26.7183C49.7361 26.0277 49.7361 25.337 49.7361 24.61C49.7361 24.4282 49.7738 24.3918 49.9245 24.3918C50.1129 24.3918 50.2636 24.3918 50.452 24.3918C50.9418 24.3918 51.4316 24.3918 51.9215 24.3918C52.1099 24.3918 52.1099 24.4282 52.1099 24.61C52.1099 25.3006 52.1099 25.9913 52.1099 26.7183C52.1099 26.9001 52.0722 26.9365 51.8838 26.9365C51.5823 26.9001 51.2432 26.9001 50.9041 26.9001Z" fill="#354990"/>
<path d="M34.6645 37.6603C34.6645 37.3331 34.6645 36.9696 34.6645 36.6424C34.6645 36.4607 34.7022 36.4243 34.8529 36.4243C35.5311 36.4243 36.2093 36.4243 36.8876 36.4243C37.0006 36.4243 37.0383 36.497 37.0383 36.6061C37.0383 36.7151 37.0383 36.7878 37.0383 36.8969C37.0383 37.5149 37.0383 38.1328 37.0383 38.7508C37.0383 38.8962 37.0006 38.9689 36.8499 38.9689C36.1717 38.9689 35.4934 38.9689 34.8152 38.9689C34.6645 38.9689 34.6268 38.9326 34.6268 38.7872C34.6645 38.3873 34.6645 38.0238 34.6645 37.6603Z" fill="#354990"/>
<path d="M26.4882 53.6913C26.4882 53.3278 26.4882 52.9642 26.4882 52.6371C26.4882 52.4917 26.5259 52.4553 26.6766 52.4553C27.3549 52.4553 28.0331 52.4553 28.7113 52.4553C28.8243 52.4553 28.862 52.528 28.862 52.6371V52.6734C28.862 53.3641 28.862 54.0548 28.862 54.7818C28.862 54.9636 28.8243 54.9999 28.6359 54.9999C27.9577 54.9999 27.3172 54.9999 26.639 54.9999C26.4882 54.9999 26.4506 54.9636 26.4506 54.8182C26.4882 54.4183 26.4882 54.0548 26.4882 53.6913Z" fill="#354990"/>
<path d="M60.3992 20.9748C60.3992 17.1942 60.3992 13.45 60.3992 9.66944C60.3992 8.94241 60.3615 9.01511 61.0397 9.01511C62.8106 9.01511 64.5815 9.01511 66.3524 9.01511C66.5032 9.01511 66.6162 9.01511 66.7669 9.01511C66.9553 9.01511 67.0307 9.05146 67.0307 9.23322C67.0307 9.41498 67.0307 9.59674 67.0307 9.81485C67.0307 16.4672 67.0307 23.1195 67.0307 29.7719C67.0307 30.4989 67.0683 31.226 67.2567 31.9166C67.7089 33.6252 68.7262 34.8248 70.3841 35.5154C72.3057 36.2788 74.265 36.2788 76.1866 35.4427C77.8445 34.7157 78.8241 33.407 79.2009 31.6985C79.314 31.2623 79.314 30.8261 79.314 30.3899C79.314 29.9173 79.314 29.4811 79.314 29.0085C79.314 22.6106 79.314 16.1764 79.314 9.7785C79.314 9.59674 79.314 9.41498 79.314 9.19687C79.314 9.05146 79.3893 9.01511 79.54 8.97876C79.6531 8.97876 79.7661 8.97876 79.8791 8.97876C81.7254 8.97876 83.534 8.97876 85.3803 8.97876C85.4933 8.97876 85.5687 8.97876 85.6817 8.97876C85.9078 8.97876 85.9454 9.01511 85.9454 9.26957C85.9454 9.41498 85.9454 9.52403 85.9454 9.66944C85.9454 16.7944 85.9454 23.8829 85.9454 31.0078C85.9454 32.0984 85.8324 33.1889 85.531 34.2068C84.8528 36.4242 83.4963 38.1691 81.537 39.4778C80.1806 40.4229 78.6357 41.0409 77.0156 41.4044C75.5838 41.7316 74.152 41.9133 72.6825 41.8406C70.5725 41.7679 68.5001 41.4044 66.5785 40.532C64.4308 39.5868 62.7353 38.1691 61.6049 36.1334C60.9644 35.0065 60.5876 33.8069 60.4745 32.4983C60.3992 31.7349 60.3992 30.9715 60.3992 30.2081C60.3992 27.1546 60.3992 24.0647 60.3992 20.9748Z" fill="#354990"/>
<path d="M158.515 29.9174V19.0119C158.515 18.8665 158.515 18.7211 158.515 18.5393C158.515 18.2485 158.553 18.2122 158.854 18.2122C160.135 18.2122 161.416 18.2122 162.697 18.2122C163.074 18.2122 163.488 18.2122 163.865 18.2122C164.129 18.2122 164.167 18.2485 164.204 18.503C164.317 19.0119 164.43 19.4845 164.581 19.9934C164.619 20.1388 164.694 20.1751 164.845 20.1024C165.146 19.9207 165.448 19.7753 165.749 19.5935C166.352 19.23 167.03 18.9392 167.709 18.6847C168.5 18.3576 169.329 18.2122 170.195 18.0667C171.137 17.885 172.079 17.885 173.059 17.9213C173.888 17.9577 174.717 18.1394 175.508 18.4303C176.751 18.9028 177.656 19.7026 178.334 20.7931C179.012 21.92 179.389 23.1196 179.54 24.3919C179.615 25.0826 179.653 25.8096 179.653 26.5003C179.653 31.2987 179.653 36.0971 179.653 40.8592C179.653 41.0046 179.653 41.1137 179.653 41.2591C179.653 41.4772 179.615 41.5135 179.351 41.5135C179.238 41.5135 179.125 41.5135 179.012 41.5135C177.354 41.5135 175.696 41.5135 174.039 41.5135C173.926 41.5135 173.85 41.5135 173.737 41.5135C173.436 41.5135 173.436 41.4772 173.398 41.1864C173.398 41.0046 173.398 40.8592 173.398 40.6775C173.398 36.3153 173.398 31.9167 173.398 27.5545C173.398 27.0819 173.36 26.6094 173.323 26.1368C173.097 24.3192 171.702 23.6649 170.497 23.5922C169.517 23.5558 168.613 23.774 167.709 24.1011C166.729 24.4646 165.787 24.9736 164.92 25.4825C164.77 25.5915 164.657 25.7006 164.657 25.8823C164.657 26.0277 164.657 26.1732 164.657 26.3549C164.657 31.1533 164.657 35.9881 164.657 40.7865C164.657 40.9683 164.657 41.15 164.657 41.3681C164.657 41.4408 164.581 41.5135 164.506 41.5135C164.393 41.5135 164.28 41.5135 164.167 41.5135C162.433 41.5135 160.738 41.5135 159.042 41.5135C158.967 41.5135 158.892 41.5135 158.816 41.5135C158.59 41.5135 158.553 41.4772 158.553 41.2227C158.553 41.0773 158.553 40.9319 158.553 40.7502C158.515 37.1877 158.515 33.5525 158.515 29.9174Z" fill="#354990"/>
<path d="M209.909 25.4097C209.72 25.3733 209.645 25.2643 209.494 25.1552C209.193 24.9371 208.892 24.719 208.628 24.5009C207.837 23.9192 206.97 23.6284 205.99 23.483C205.161 23.3376 204.332 23.374 203.503 23.5921C201.846 24.0283 200.866 25.4097 200.715 26.9001C200.715 27.0091 200.715 27.0818 200.715 27.1909C200.715 28.9721 200.715 30.717 200.715 32.4982C200.715 33.0799 200.866 33.6251 201.13 34.1341C201.695 35.2973 202.637 35.9516 203.918 36.1697C204.672 36.3151 205.425 36.2424 206.179 36.097C207.497 35.8426 208.703 35.2973 209.645 34.3522C209.683 34.3158 209.758 34.2795 209.796 34.2795C209.984 34.3885 210.097 34.5339 210.21 34.6793C211.228 35.8062 212.245 36.9331 213.225 38.06C213.262 38.0964 213.262 38.1327 213.3 38.1327C213.413 38.2781 213.451 38.3508 213.3 38.4599C212.961 38.7871 212.584 39.1142 212.207 39.405C210.662 40.6046 208.892 41.3317 206.97 41.5861C205.802 41.7315 204.634 41.7679 203.466 41.6952C201.733 41.5861 200.075 41.1863 198.568 40.3502C196.382 39.0779 195.063 37.2239 194.649 34.752C194.574 34.2795 194.536 33.7705 194.536 33.2616C194.536 30.9715 194.536 28.645 194.536 26.3548C194.536 25.3006 194.687 24.2828 195.101 23.3013C195.817 21.5927 197.023 20.2841 198.643 19.3389C199.849 18.6119 201.167 18.212 202.561 17.9576C203.692 17.7758 204.86 17.8122 205.99 17.8485C207.234 17.8849 208.439 18.103 209.57 18.5392C210.889 19.0118 212.057 19.7388 213.074 20.7203C213.112 20.7567 213.187 20.8294 213.225 20.9021C213.3 20.9748 213.3 21.0838 213.225 21.1565C213.187 21.2292 213.112 21.3019 213.036 21.3746C212.019 22.6469 211.002 23.8829 210.022 25.1552C210.022 25.3006 209.947 25.3733 209.909 25.4097Z" fill="#354990"/>
<path d="M90.6553 29.8083V18.9755C90.6553 18.8665 90.6553 18.7938 90.6553 18.6847C90.6553 18.1031 90.6553 18.1394 91.2205 18.1394C92.7276 18.1394 94.2724 18.1394 95.7796 18.1394C95.855 18.1394 95.9303 18.1394 96.0057 18.1394C96.2694 18.1394 96.3071 18.1758 96.3448 18.4303C96.4201 18.9392 96.4955 19.4845 96.5708 20.0297C96.6085 20.4296 96.6839 20.8658 96.7216 21.2657C96.7216 21.3384 96.7216 21.4111 96.7969 21.4474C96.8723 21.4838 96.9476 21.4111 96.9853 21.3747C97.5882 20.8295 98.2664 20.3932 98.9823 19.9934C100.602 19.0482 102.298 18.3576 104.182 17.994C104.634 17.9213 105.086 17.8486 105.576 17.8486C105.727 17.8486 105.802 17.9213 105.802 18.0667C105.802 18.1758 105.802 18.2849 105.802 18.3939C105.802 20.1024 105.802 21.7746 105.802 23.4831C105.802 23.5922 105.802 23.7012 105.802 23.8103C105.802 23.9921 105.727 24.0648 105.538 24.0648C105.086 24.1011 104.634 24.1738 104.22 24.2102C101.771 24.501 99.4721 25.228 97.3244 26.3913C97.2491 26.4276 97.1737 26.5003 97.0607 26.5367C96.8346 26.6094 96.7969 26.7911 96.7969 27.0092C96.7969 27.1547 96.7969 27.2637 96.7969 27.4091C96.7969 31.8804 96.7969 36.388 96.7969 40.8592C96.7969 41.6226 96.8723 41.5499 96.081 41.5499C94.4985 41.5499 92.8783 41.5499 91.2958 41.5499C91.1828 41.5499 91.0697 41.5499 90.9567 41.5499C90.6929 41.5499 90.6553 41.5135 90.6553 41.2227C90.6553 41.041 90.6553 40.8956 90.6553 40.7138C90.6553 37.0786 90.6553 33.4435 90.6553 29.8083Z" fill="#354990"/>
<path d="M184.137 29.9174C184.137 26.2459 184.137 22.538 184.137 18.8665C184.137 18.1758 184.099 18.2485 184.777 18.2485C186.322 18.2485 187.867 18.2485 189.374 18.2485C189.525 18.2485 189.638 18.2485 189.788 18.2485C190.278 18.2485 190.278 18.2485 190.316 18.7575C190.316 18.9029 190.316 19.0119 190.316 19.1573V40.6775V41.0047C190.316 41.5863 190.354 41.5499 189.751 41.5499C188.093 41.5499 186.397 41.5499 184.739 41.5499C184.626 41.5499 184.551 41.5499 184.438 41.5499C184.212 41.5499 184.174 41.5136 184.174 41.2591C184.174 41.0774 184.174 40.9319 184.174 40.7502C184.137 37.1514 184.137 33.5162 184.137 29.9174Z" fill="#354990"/>
<path d="M187.189 15.2313C185.568 15.304 183.76 13.9226 183.76 11.8506C183.797 10.033 185.305 8.46989 187.226 8.50624C189.148 8.50624 190.655 10.1057 190.655 11.9233C190.655 13.8863 188.884 15.3403 187.189 15.2313Z" fill="#354990"/>
<path d="M123.813 32.9345C123.813 33.4071 123.737 33.8433 123.587 34.2795C123.21 35.4428 122.193 36.1698 120.949 36.2061C120.497 36.2061 120.007 36.1698 119.555 36.0607C118.462 35.8063 117.407 35.5155 116.39 35.0792C116.051 34.9338 115.749 34.7521 115.41 34.5703C115.222 34.4976 115.147 34.3522 115.184 34.1341C115.184 33.9887 115.184 33.8796 115.184 33.7342C115.184 32.5346 115.184 31.2987 115.184 30.0991C115.184 28.8268 115.184 27.5545 115.184 26.2822C115.184 25.955 115.297 25.7369 115.599 25.5551C116.578 25.0098 117.558 24.5009 118.613 24.0647C119.404 23.7375 120.233 23.5558 121.138 23.6285C121.665 23.6648 122.155 23.8102 122.607 24.1374C123.059 24.4646 123.398 24.8644 123.587 25.4097C123.737 25.8823 123.813 26.3185 123.813 26.7911C123.813 27.918 123.813 29.0812 123.813 30.2081C123.813 31.1169 123.813 32.0257 123.813 32.9345ZM129.954 27.6272C129.954 26.7911 129.954 25.955 129.879 25.1189C129.804 23.8829 129.502 22.6833 128.975 21.5564C128.259 20.1024 127.204 19.0118 125.659 18.4302C124.905 18.1394 124.114 17.994 123.323 17.9213C121.213 17.7395 119.216 18.1394 117.294 18.9755C116.691 19.2299 116.126 19.5571 115.523 19.8479C115.41 19.8843 115.335 19.9933 115.147 19.8843C115.147 19.7025 115.147 19.4844 115.147 19.3026C115.147 15.6311 115.147 11.9596 115.147 8.2881C115.147 7.70648 115.184 7.74283 114.581 7.74283C112.961 7.74283 111.341 7.74283 109.721 7.74283C108.967 7.74283 109.043 7.67013 109.043 8.43351C109.043 8.50621 109.043 8.57892 109.043 8.65162V26.9001C109.043 31.5531 109.043 36.1698 109.043 40.8228C109.043 41.0046 109.043 41.1863 109.043 41.4044C109.043 41.4771 109.118 41.5498 109.193 41.5498C109.344 41.5498 109.457 41.5498 109.608 41.5498C110.964 41.5498 112.321 41.5498 113.715 41.5498C114.016 41.5498 114.318 41.5862 114.657 41.5135C114.845 41.259 114.845 40.8955 114.958 40.6047C115.071 40.3139 115.071 40.0231 115.222 39.7323C115.41 39.7323 115.523 39.8413 115.636 39.914C116.277 40.2412 116.918 40.5683 117.596 40.8228C119.291 41.4771 120.987 41.877 122.833 41.6952C123.926 41.5862 124.943 41.3681 125.923 40.8955C127.242 40.2775 128.259 39.3324 128.937 38.0601C129.502 36.9695 129.766 35.8063 129.879 34.6067C129.954 33.8069 129.954 33.0072 129.954 32.2075C129.954 30.6807 129.954 29.1539 129.954 27.6272Z" fill="#354990"/>
<path d="M230.632 34.7886C230.143 35.0067 229.653 35.2612 229.163 35.4793C228.334 35.8428 227.505 36.1336 226.638 36.279C225.96 36.3881 225.244 36.3881 224.528 36.3154C224.265 36.279 224.001 36.2063 223.737 36.0972C222.23 35.4429 222.192 33.4072 223.323 32.5711C223.624 32.353 223.963 32.1713 224.302 32.0986C224.604 32.0259 224.905 31.9895 225.207 31.9895C226.94 31.9895 228.711 31.9895 230.444 31.9895C230.482 31.9895 230.519 31.9895 230.557 31.9895C230.745 31.9895 230.821 32.0622 230.821 32.2076C230.821 32.5711 230.821 32.971 230.821 33.3345C230.821 33.698 230.821 34.0616 230.821 34.4251C230.858 34.6068 230.821 34.7159 230.632 34.7886ZM237 40.8593C237 36.6789 237 32.5348 237 28.3544C237 27.5183 237 26.6822 236.925 25.8461C236.887 25.0464 236.736 24.2466 236.548 23.4832C236.209 22.2109 235.606 21.084 234.626 20.1389C233.722 19.2664 232.667 18.7212 231.461 18.394C230.218 18.0305 228.937 17.8851 227.656 17.8487C226.94 17.8124 226.262 17.8487 225.546 17.9214C224.415 18.0305 223.323 18.2122 222.23 18.4667C220.534 18.8666 218.99 19.6663 217.595 20.6842C217.558 20.7205 217.52 20.7569 217.445 20.7932C217.369 20.8659 217.369 20.9386 217.407 21.0113C217.445 21.084 217.482 21.1567 217.52 21.1931C218.311 22.4654 219.103 23.7377 219.894 24.9736C219.932 25.0464 220.007 25.1554 220.12 25.1918C220.271 25.0827 220.459 24.9737 220.61 24.8646C221.476 24.283 222.418 23.8104 223.436 23.5923C224.34 23.4105 225.244 23.2651 226.149 23.2288C227.053 23.1924 227.957 23.2651 228.861 23.5559C229.766 23.8468 230.331 24.4284 230.632 25.3008C230.858 25.9551 230.821 26.6458 230.783 27.3365C230.783 27.4456 230.708 27.5183 230.595 27.5183C230.444 27.5183 230.293 27.5183 230.143 27.5183C228.447 27.5183 226.751 27.5183 225.056 27.5183C224.152 27.5183 223.247 27.591 222.343 27.7727C220.949 28.0272 219.63 28.5361 218.537 29.3722C217.256 30.3537 216.352 31.5896 216.051 33.1891C215.9 34.0979 215.9 35.0067 216.013 35.9155C216.126 36.9333 216.465 37.8785 217.03 38.7509C217.972 40.1686 219.291 41.0411 220.949 41.4409C222.343 41.8044 223.775 41.8408 225.169 41.659C226.563 41.4773 227.919 41.0774 229.163 40.4594C229.615 40.2413 230.067 40.0232 230.519 39.7688C230.896 39.587 230.896 39.587 231.009 40.0232C231.122 40.4231 231.198 40.823 231.273 41.2592C231.348 41.5863 231.348 41.5863 231.687 41.5863C231.8 41.5863 231.913 41.5863 232.026 41.5863C233.421 41.5863 234.815 41.5863 236.246 41.5863C237.075 41.55 237 41.6227 237 40.8593Z" fill="#354990"/>
<path d="M148.04 34.7521C146.721 35.3701 145.44 36.0244 143.971 36.2425C143.293 36.3516 142.614 36.3516 141.936 36.2789C141.635 36.2425 141.333 36.1698 141.032 36.0244C140.165 35.5882 139.751 34.7884 139.939 33.7342C140.09 32.8255 140.731 32.3529 141.597 32.0984C141.899 32.0257 142.238 31.9894 142.577 31.9894C144.31 31.9894 146.081 31.9894 147.814 31.9894C147.89 31.9894 147.927 31.9894 148.003 31.9894C148.116 31.9894 148.191 32.0621 148.191 32.1711C148.191 32.571 148.191 32.9709 148.191 33.3707C148.191 33.7342 148.191 34.0978 148.191 34.4613C148.229 34.5703 148.191 34.6794 148.04 34.7521ZM154.333 28.6814C154.333 27.8816 154.333 27.0819 154.333 26.2822C154.333 25.3734 154.182 24.5009 153.956 23.6285C153.617 22.3198 153.014 21.1566 152.034 20.1751C151.13 19.3026 150.037 18.7574 148.832 18.3939C147.588 18.0303 146.307 17.8849 145.026 17.8486C143.67 17.8122 142.313 17.9576 140.957 18.1757C138.771 18.5029 136.812 19.339 135.041 20.6477C134.966 20.684 134.928 20.7567 134.853 20.7931C134.777 20.8658 134.74 20.9385 134.815 21.0475C134.853 21.1202 134.928 21.2293 134.966 21.302C135.493 22.1381 136.021 22.9742 136.548 23.8466C136.85 24.3192 137.151 24.7917 137.452 25.3007C137.716 25.1189 137.905 25.0099 138.093 24.8644C139.073 24.2101 140.128 23.7375 141.296 23.5558C142.012 23.4467 142.765 23.3377 143.481 23.3013C144.423 23.265 145.365 23.3377 146.232 23.6285C147.287 23.9557 147.89 24.6827 148.078 25.7732C148.153 26.2095 148.191 26.6457 148.153 27.0819C148.153 27.6272 148.153 27.6272 147.626 27.6272C145.817 27.6272 144.046 27.6272 142.238 27.6272C141.371 27.6272 140.542 27.6999 139.676 27.8453C138.357 28.0997 137.076 28.536 135.983 29.3357C134.627 30.3172 133.722 31.5531 133.383 33.189C133.119 34.3886 133.195 35.6245 133.496 36.8241C134.024 38.9689 135.342 40.4593 137.452 41.2954C138.621 41.7316 139.826 41.877 141.07 41.8407C142.238 41.8407 143.406 41.6225 144.498 41.2954C145.629 40.9682 146.684 40.4593 147.701 39.914C147.814 39.8413 147.927 39.805 148.078 39.7323C148.153 39.6959 148.191 39.7323 148.229 39.805C148.266 39.8777 148.304 39.9504 148.304 40.0231C148.417 40.4956 148.53 40.9319 148.643 41.4044C148.681 41.5498 148.756 41.6225 148.907 41.6225C149.02 41.6225 149.133 41.6225 149.246 41.6225C150.263 41.6225 151.281 41.6225 152.298 41.6225C152.863 41.6225 153.428 41.6225 153.994 41.6225C154.22 41.6225 154.257 41.5862 154.295 41.3681C154.295 41.1863 154.295 41.0409 154.295 40.8592C154.333 36.7514 154.333 32.7164 154.333 28.6814Z" fill="#354990"/>
</g>
<defs>
<clipPath id="clip0_68_124">
<rect width="237" height="55" fill="white"/>
</clipPath>
</defs>
</svg>
