<svg width="3023" height="2212" viewBox="0 0 3023 2212" fill="none" xmlns="http://www.w3.org/2000/svg">
<g clip-path="url(#clip0_62_102)">
<path d="M628.102 1795.15C695.196 1790.02 761.086 1813.48 796.702 1872.46C885.752 2019.96 719.625 2168.36 574.12 2088.82C509.434 2053.44 492.053 1993.04 497.46 1922.63C502.494 1856.82 563.218 1800.1 628.124 1795.15H628.102Z" fill="#263451"/>
<path d="M95.3325 0V668.807C95.3325 678.118 119.302 702.128 130.839 701.69C337.353 706.291 544.37 703.158 751.082 704.012C806.968 704.253 850.442 714.418 882.862 764.586C920.842 823.341 899.105 870.332 906.547 931.717C911.254 970.514 965.017 982.432 987.542 951.455C989.578 948.673 996.539 933.885 996.539 931.651V0H1091.87L1091.96 924.531C1081.43 1111.05 826.385 1103.51 811.477 938.617C808.61 906.83 816.249 862.271 810.842 833.046C807.296 813.987 786.916 796.987 767.281 797.447L128.847 797.315C71.7565 796.724 0.0216064 731.966 0.0216064 674.218V0H95.3544H95.3325Z" fill="#7FB8D1"/>
<path d="M724.31 1380.36L964.667 1380.31C1015.96 1382.37 1061.68 1411.18 1084.91 1457.84C1095.22 1480.69 1101.15 1514.28 1097.69 1540.7C1097.48 1542.38 1095.99 1541.88 1095.83 1542.6C1093.84 1551.61 1094.48 1558.97 1091.22 1568.36C1077.69 1607.38 1043.32 1642.1 1004.05 1654.79C994.328 1657.92 983.076 1658.05 973.685 1661.25C932.882 1663.07 889.67 1658.6 849.129 1661.14C844.948 1661.4 837.702 1663.86 833.762 1665.59C829.822 1667.32 816.775 1680.73 815.44 1684.47C814.455 1687.25 814.236 1692.6 813.491 1695.73C813.294 1696.52 811.893 1696.08 811.675 1697.7C811.456 1699.41 811.412 1706.07 811.762 1707.52C811.915 1708.18 813.294 1708.04 813.491 1708.79C815.834 1717.22 814.52 1720.64 820.89 1728.33C828.399 1737.42 837.089 1740.77 847.29 1744.32C889.342 1745.59 932.619 1742.4 974.539 1744.21C1017.97 1746.1 1056.04 1769.25 1080.12 1805.58C1091.87 1823.3 1100.87 1842.75 1102.09 1864.79C1103.25 1885.58 1103.32 1914.17 1097.5 1933.14C1085.26 1973.08 1050.96 2009.09 1010.68 2022.5C1008.91 2023.09 1004.51 2024.87 1004 2024.98C959.632 2036.5 899.915 2025.85 852.697 2029.49C849.786 2032.65 840.023 2034.05 837.243 2036.15C836.345 2036.83 835.951 2039.11 834.878 2040.12C833.806 2041.12 831.879 2041.52 830.96 2042.5C820.387 2054 816.469 2074.9 821.744 2090.24C822.357 2092.04 828.749 2102.27 830.347 2104.28C834.134 2109.08 844.226 2114.84 850.136 2116.18C854.426 2117.14 854.711 2118.04 855.018 2118.04H3020.26V2211.96L851.822 2212C846.042 2210.4 838.687 2211.5 833.105 2210.14C832.405 2209.96 832.558 2208.56 831.857 2208.39C827.567 2207.33 825.028 2206.94 820.956 2205.73C784.662 2194.91 753.665 2168.21 737.86 2133.62C734.117 2125.44 732.803 2119.29 730.505 2110.64C726.28 2094.66 721.792 2067.89 726.083 2050.08C726.258 2049.4 727.703 2049.54 727.856 2048.86C729.235 2042.79 729.476 2036.24 731.402 2030.02C739.195 2005.02 754.759 1982.32 776.3 1966.13C777.285 1965.39 777.657 1962.91 778.62 1962.13C782.998 1958.51 794.797 1951.83 799.81 1949.31C848.078 1924.97 913.18 1939.69 968.257 1935.77C972.525 1933.69 977.122 1933.08 982.004 1931.28C996.758 1925.85 1002.8 1917.87 1006.56 1902.93C1006.76 1902.14 1008.18 1902.65 1008.4 1901C1009.08 1895.88 1009.08 1878.02 1008.4 1872.9C1008.18 1871.23 1006.76 1871.76 1006.56 1870.97C1002.89 1856.4 997.809 1849.06 983.733 1842.69C978.436 1840.28 974.649 1840.67 970.074 1838.13C927.54 1836.62 883.344 1840.39 841.008 1838.24C826.341 1837.49 808.654 1831.8 795.694 1825.62C745.062 1801.52 715.379 1751.07 717.918 1694.13C718.706 1676.41 723.85 1658.05 731.49 1642.89C749.856 1606.4 778.576 1582.34 817.366 1571.76C823.67 1570.05 832.12 1568.61 838.271 1566.35C879.863 1564.4 924.213 1569.22 965.477 1566.41C974.342 1565.82 981.457 1562.47 988.111 1556.6C992.336 1552.85 996.364 1549.2 999.232 1543.15C1003.57 1533.99 1003.72 1521.57 1002.93 1510.86C1002.32 1502.36 994.241 1489.02 987.214 1483.71C986.054 1482.84 972.657 1476.13 971.803 1476.13H724.266V1380.42L724.31 1380.36Z" fill="#7FB8D1"/>
<path d="M770.411 0L771.746 14.5683L771.637 1118.74C778.533 1172.87 823.386 1215.17 877.827 1218.66C945.316 1222.97 1026.13 1207.86 1089.97 1230.38C1157.3 1254.15 1209.77 1313.71 1223.89 1384.01C1232.15 1425.11 1222.4 1455.17 1248.89 1492.63C1298.23 1562.45 1388.9 1536.47 1463.02 1540.54C1559.41 1545.84 1640.58 1618.44 1656.53 1713.43C1663.04 1752.12 1655.05 1776.24 1678.8 1812.06C1692.3 1832.43 1730.44 1861.31 1755.5 1861.31H3023V1956.76L1770.72 1956.8C1675.34 1955.33 1589.13 1886.37 1569.76 1792.63C1562.73 1758.61 1569.17 1728.75 1552.86 1696.28C1509.72 1610.34 1406.2 1639.39 1328.09 1634.83C1231.77 1629.22 1147.76 1551.69 1135.61 1455.8C1133.64 1440.27 1135.02 1424.48 1132.74 1409.03C1125.08 1357.11 1080.07 1316.52 1027.95 1312.82C953.174 1307.49 869.203 1326.33 799.197 1294.81C725.295 1261.53 677.53 1187.37 676.26 1106.1L676.873 1.2049C677.136 0.701033 680.091 0.0438146 680.726 0.0438146H770.389L770.411 0Z" fill="#A6CA9F"/>
<path d="M1352.56 1662.19C1372 1637.5 1386.25 1608.76 1417.12 1595.99C1486.45 1567.31 1545.57 1625.1 1518.56 1695.32C1509.1 1719.92 1489.12 1736.04 1467.4 1749.23C1476.11 1761.56 1487.1 1772.06 1495.22 1784.9C1523.99 1830.35 1527.27 1886.7 1501.53 1934.39C1480.23 1973.85 1416.97 2032.49 1375 1986.2C1356.2 1965.48 1356.18 1942.78 1353.55 1916.82C1353.44 1915.7 1353.11 1911.67 1351.51 1911.76C1347.11 1940.06 1327.81 1958.84 1306.55 1975.69C1276.34 1999.65 1233.09 2032.19 1199.99 1992.75C1172.01 1959.43 1178.1 1901.68 1199.64 1866.5C1201.67 1863.19 1206.34 1861.15 1205.96 1856.58C1205.55 1855.24 1204.3 1855.24 1203.27 1854.82C1197.01 1852.28 1184.1 1851.41 1176.26 1849.04C1113.87 1830.13 1083.25 1768.95 1143.75 1725.2C1166.67 1708.61 1192.22 1707.58 1219.14 1713.61C1220.08 1712.89 1204.17 1698.23 1202.77 1696.63C1183.5 1674.64 1171.05 1646.57 1173.22 1616.78C1176.76 1567.93 1241.14 1549.2 1281.9 1555.04C1337.31 1563 1349.81 1613.95 1352.61 1662.17L1352.56 1662.19Z" fill="#AF4049"/>
<path d="M1371.06 533.596C1371.85 528.25 1375.11 525.139 1380.45 524.395C1385.38 523.694 1404.95 523.65 1408.65 525.534C1409.92 526.169 1411.17 527.571 1412.06 528.688L1411.58 594.936L1409.35 609.658L1441.09 591.628C1467.58 579.316 1513.52 566.807 1534.61 594.323C1557.09 623.656 1528.83 648.675 1503.06 660.22C1501.7 660.833 1487.8 664.776 1489.2 666.573C1512.63 672.926 1534.56 685.983 1552.12 702.676C1566.28 716.127 1585.26 743.927 1573.64 763.688C1559.25 788.136 1514.44 772.976 1493.91 764.192C1489.91 762.483 1465.58 749.295 1464.03 750.872C1463.94 756.897 1467.45 762.154 1469.17 768.135C1477.32 796.154 1484.65 839.794 1457.97 860.277C1431.28 880.76 1407.49 852.522 1394.64 831.754C1380.39 808.707 1373.58 782.002 1365.55 756.327C1363.64 757.137 1362.85 761.475 1362.26 763.425C1354.95 787.654 1351.78 808.598 1337.57 830.658C1295.93 895.372 1214.17 854.888 1251.63 785.157L1275.86 746.491C1250.91 750.806 1213.8 755.429 1196.05 732.777C1177.11 708.613 1204.17 677.943 1224.11 664.601C1240.86 653.407 1258.37 648.872 1276.96 641.949C1259.11 632.113 1234.82 623.109 1226.45 602.735C1216.14 577.585 1234.93 563.192 1257.28 557.65C1286.74 550.333 1323.25 558.044 1349.5 572.656C1356.86 576.753 1363.4 583.106 1371.04 585.56V533.574L1371.06 533.596Z" fill="#7FB8D1"/>
</g>
<defs>
<clipPath id="clip0_62_102">
<rect width="3023" height="2212" fill="white"/>
</clipPath>
</defs>
</svg>
