<svg width="2191" height="2542" viewBox="0 0 2191 2542" fill="none" xmlns="http://www.w3.org/2000/svg">
<g clip-path="url(#clip0_63_110)">
<path d="M1399.48 0L1399.54 1485.15C1397.89 1570.93 1337.07 1651.52 1254.17 1674.58C1216.61 1685.03 1180.15 1676.5 1145.1 1695.57C1055.02 1744.58 1104.35 1866.69 1083.34 1947.84C1065.12 2018.29 1006.34 2076.45 935.097 2092.76C901.694 2100.4 871.755 2092.93 838.922 2109.31C741.143 2158.07 794.414 2298.76 774.356 2384.8C752.355 2479.2 670.728 2534.71 576.665 2539.23C391.897 2548.1 200.139 2532.37 14.6316 2539.23L-0.0214844 2537.42V2447.2H592.205C616.613 2447.2 655.632 2421.04 669.081 2400.91C702.294 2351.22 684.685 2256.42 688.38 2196.4C693.215 2118.1 743.635 2047.42 816.795 2019.52C874.225 1997.62 932.352 2020.98 975.298 1964.7C1013.35 1914.84 995.314 1840.04 998.776 1779.98C1003.82 1692.57 1067.02 1614.98 1152.8 1595.74C1197.42 1585.73 1231.31 1597.9 1270.28 1564.07C1284.62 1551.63 1307.53 1518.07 1307.53 1498.96V0H1399.44H1399.48Z" fill="#A6CA9F"/>
<path d="M1491.01 1855.26C1515.52 1884.03 1535.33 1907.87 1532.88 1949.26C1526.48 2056.73 1390.95 2067.27 1311.77 2038.23C1197.21 1996.23 1109.08 1866.16 1210.06 1760.59C1249.97 1718.88 1298 1709.13 1354.32 1720.95C1414.7 1733.62 1428.09 1772.71 1460.12 1816.95C1469.83 1830.36 1480.3 1842.72 1491.01 1855.28V1855.26Z" fill="#263451"/>
<path d="M1590.57 1379.18C1610.01 1354.49 1624.26 1325.75 1655.12 1312.98C1724.45 1284.3 1783.58 1342.09 1756.56 1412.31C1747.11 1436.91 1727.12 1453.03 1705.41 1466.22C1714.12 1478.55 1725.11 1489.05 1733.23 1501.89C1761.99 1547.34 1765.28 1603.69 1739.53 1651.38C1718.23 1690.84 1654.97 1749.48 1613.01 1703.19C1594.2 1682.47 1594.18 1659.77 1591.55 1633.81C1591.44 1632.69 1591.12 1628.66 1589.52 1628.75C1585.12 1657.06 1565.81 1675.83 1544.56 1692.68C1514.35 1716.64 1471.09 1749.18 1437.99 1709.74C1410.02 1676.42 1416.1 1618.67 1437.64 1583.49C1439.68 1580.18 1444.34 1578.15 1443.97 1573.57C1443.55 1572.23 1442.31 1572.23 1441.28 1571.81C1435.02 1569.27 1422.1 1568.4 1414.26 1566.03C1351.88 1547.12 1321.25 1485.94 1381.76 1442.19C1404.68 1425.6 1430.22 1424.58 1457.15 1430.6C1458.09 1429.88 1442.17 1415.22 1440.77 1413.62C1421.51 1391.63 1409.05 1363.56 1411.22 1333.77C1414.77 1284.92 1479.15 1266.19 1519.91 1272.03C1575.31 1279.99 1587.81 1330.94 1590.61 1379.16L1590.57 1379.18Z" fill="#AF4049"/>
<path d="M2191 92.0113H1551.56C1533.47 92.0113 1512.44 118.831 1514.19 136.782L1514.23 752.352C1509.65 803.309 1474.92 848.798 1426.84 866.051C1384.59 881.193 1342.2 870.718 1299.02 874.329C1258.88 877.687 1242.45 925.519 1273.22 951.579C1277.19 954.937 1287.95 961.357 1292.87 961.357H2191.02V1053.33L1297.71 1053.39C1174.07 1048.55 1118.56 896.039 1214.41 814.27C1266 770.26 1316.82 787.851 1377.5 783.627C1403.13 781.853 1420.99 767.704 1423.49 741.328L1423.38 128.123C1426.82 72.5827 1464.05 24.0746 1516.89 7.05341C1521.77 5.49068 1536.28 1.26707 1540.54 1.26707H2189.16C2189.54 1.26707 2190.11 -0.295665 2191 0.0422239V92.0113Z" fill="#7FB8D1"/>
</g>
<defs>
<clipPath id="clip0_63_110">
<rect width="2191" height="2542" fill="white"/>
</clipPath>
</defs>
</svg>
