<svg width="61" height="61" viewBox="0 0 61 61" fill="none" xmlns="http://www.w3.org/2000/svg">
<g clip-path="url(#clip0_1_64)">
<path d="M30.2788 37.7644C34.0451 37.7644 37.0982 34.7122 37.0982 30.9471C37.0982 27.182 34.0451 24.1298 30.2788 24.1298C26.5125 24.1298 23.4593 27.182 23.4593 30.9471C23.4593 34.7122 26.5125 37.7644 30.2788 37.7644Z" fill="#BED0AE"/>
<path d="M30.5048 60.7596C38.9511 60.7596 45.7981 47.2119 45.7981 30.5C45.7981 13.7881 38.9511 0.240383 30.5048 0.240383C22.0586 0.240383 15.2115 13.7881 15.2115 30.5C15.2115 47.2119 22.0586 60.7596 30.5048 60.7596Z" stroke="#9E4821" stroke-miterlimit="10"/>
<path d="M40.751 41.85C53.1625 30.6546 58.6372 16.4969 52.979 10.228C47.3208 3.95914 32.6723 7.95292 20.2608 19.1484C7.84918 30.3438 2.3745 44.5015 8.03271 50.7704C13.6909 57.0393 28.3394 53.0455 40.751 41.85Z" stroke="#9E4821" stroke-miterlimit="10"/>
<path d="M57.4758 44.2398C61.3103 36.7165 52.3439 24.4672 37.4488 16.8801C22.5537 9.29305 7.37031 9.24136 3.53579 16.7646C-0.298721 24.2879 8.66768 36.5373 23.5628 44.1243C38.4579 51.7114 53.6413 51.7631 57.4758 44.2398Z" stroke="#9E4821" stroke-miterlimit="10"/>
<path d="M30.9151 44.2539C47.6249 43.7581 60.9847 37.0845 60.7551 29.3479C60.5254 21.6114 46.7932 15.7416 30.0833 16.2374C13.3735 16.7331 0.0136981 23.4068 0.243386 31.1433C0.473074 38.8798 14.2053 44.7496 30.9151 44.2539Z" stroke="#9E4821" stroke-miterlimit="10"/>
<path d="M30.2788 40.8029C30.2788 34.726 26.5613 31.0096 20.4824 31.0096C26.5613 31.0096 30.2788 27.2933 30.2788 21.2163C30.2788 27.2933 33.9963 31.0096 40.0751 31.0096C33.9963 31.0096 30.2788 34.726 30.2788 40.8029Z" fill="#5B293D"/>
</g>
<defs>
<clipPath id="clip0_1_64">
<rect width="61" height="61" fill="white"/>
</clipPath>
</defs>
</svg>
